<svg width="224" height="51" viewBox="0 0 224 51" fill="none" xmlns="http://www.w3.org/2000/svg">
<path d="M27.4997 45.2336H27.5H27.4997ZM41.1255 33.8589C39.9319 33.6207 39.078 33.48 39.078 33.48L41.1255 34.3655L43.9539 35.5887L44.4966 35.6816C43.6221 35.7432 42.6203 35.9289 41.5061 36.3201C41.3837 36.3633 41.2563 36.4117 41.1255 36.4639C40.9825 36.5212 40.8333 36.5846 40.6811 36.6522C40.0774 36.9189 39.4073 37.2616 38.6962 37.6581C36.8678 38.6771 34.7791 40.0414 32.9035 41.3322C30.9938 42.6461 29.306 43.8831 28.3447 44.5988L28.1562 41.9325L27.7833 36.6522L27.7434 36.0868C27.8827 36.0418 28.0789 35.979 28.3201 35.9024C28.8011 35.7495 29.465 35.5428 30.2326 35.3136C31.0392 35.0725 31.9597 34.8076 32.9035 34.5544C35.0941 33.9671 37.4043 33.4487 38.6962 33.4596C38.8346 33.4606 38.9648 33.4662 39.078 33.48C39.078 33.48 38.9605 33.409 38.6962 33.3274C38.1179 33.1482 36.8374 32.9187 34.5532 33.2733C34.0078 33.358 33.452 33.4734 32.9035 33.6069C31.96 33.8364 31.0395 34.1194 30.2326 34.3946C29.0297 34.8045 28.0804 35.1954 27.6921 35.3605L27.6918 35.3548H27.4997H27.3079L27.3075 35.3605C26.8846 35.1807 25.7968 34.7329 24.4399 34.2845C23.6189 34.0134 22.6996 33.742 21.769 33.5297C21.3276 33.429 20.8835 33.3414 20.4464 33.2733C17.5223 32.8192 16.2436 33.323 15.9763 33.4515C15.9395 33.4693 15.9217 33.48 15.9217 33.48C15.9386 33.4781 15.9588 33.4775 15.9763 33.4756C16.104 33.4628 16.2449 33.4562 16.4017 33.4581C17.6439 33.4728 19.7347 33.9318 21.769 34.4674C22.7002 34.7126 23.6195 34.9737 24.4399 35.2163C25.7456 35.6019 26.8008 35.9396 27.2563 36.0868L27.2164 36.6522L26.8435 41.9325L26.6562 44.5823C25.6406 43.8055 23.8128 42.43 21.769 40.9979C19.8654 39.6643 17.7758 38.2825 15.9763 37.2863C15.5518 37.0512 15.1439 36.8385 14.7581 36.6522C14.3956 36.4771 14.0534 36.3264 13.736 36.2044C13.6541 36.1731 13.5718 36.1409 13.4939 36.1134C12.6311 35.8107 11.8367 35.64 11.1155 35.5587L13.736 34.4252L15.9217 33.48C15.9217 33.48 15.0015 33.6316 13.736 33.8868C11.1241 34.413 7.03942 35.3792 6.52777 36.362L15.9763 40.9435L21.5661 43.6542L27.4997 46.5312L33.4336 43.6542L38.6962 41.102L48.4719 36.362C47.951 35.3617 43.7292 34.3783 41.1255 33.8589" fill="white"/>
<path d="M27.4309 11.6532C27.4309 11.6532 40.2944 13.469 43.1657 16.9761C43.1657 16.9761 43.6789 11.2645 37.6928 7.71925C30.4094 3.40603 27.4309 -8.17786e-05 27.4309 -8.17786e-05C27.4309 -8.17786e-05 24.4522 3.40603 17.1687 7.71925C11.1827 11.2645 11.6959 16.9761 11.6959 16.9761C14.4684 13.59 27.4309 11.6532 27.4309 11.6532" fill="white"/>
<path d="M39.7803 31.2943C40.0688 31.3444 40.5418 31.4291 41.1255 31.542V18.9141C41.1255 16.1424 27.4309 13.8954 27.4309 13.8954C27.4309 13.8954 13.736 16.1424 13.736 18.9141V31.5689C14.384 31.4425 14.9085 31.3484 15.2194 31.2943C15.422 31.2152 15.6749 31.1339 15.9763 31.0607V22.0841C15.9763 22.0797 15.9769 22.076 15.9769 22.0716C15.9739 22.076 15.9689 22.0797 15.9662 22.0841C15.9662 22.0841 15.8713 20.8543 16.9772 20.091C18.3225 19.1623 18.8725 18.4288 18.8725 18.4288C18.8725 18.4288 19.4228 19.1623 20.7684 20.091C21.8743 20.8543 21.7794 22.0841 21.7794 22.0841C21.7764 22.0797 21.7715 22.076 21.7684 22.0716C21.7684 22.0757 21.769 22.0797 21.769 22.0841V31.2033C22.6849 31.3906 23.5958 31.6364 24.4399 31.8953V20.3624C24.4399 20.3584 24.4405 20.3543 24.4405 20.3499C24.4374 20.3543 24.4325 20.3584 24.4295 20.3624C24.4295 20.3624 24.3349 19.1326 25.4405 18.3694C26.7861 17.4407 27.3364 16.7071 27.3364 16.7071C27.3364 16.7071 27.8864 17.4407 29.232 18.3694C30.3376 19.1326 30.243 20.3624 30.243 20.3624C30.24 20.3584 30.235 20.3543 30.232 20.3499C30.232 20.354 30.2326 20.3584 30.2326 20.3624V31.9976C31.0674 31.733 31.9793 31.4769 32.9035 31.274V22.0841C32.9035 22.0797 32.9041 22.076 32.9041 22.0716C32.901 22.076 32.8961 22.0797 32.8934 22.0841C32.8934 22.0841 32.7985 20.8543 33.9044 20.091C35.2497 19.1623 35.7997 18.4288 35.7997 18.4288C35.7997 18.4288 36.35 19.1623 37.6956 20.091C38.8015 20.8543 38.7066 22.0841 38.7066 22.0841C38.7036 22.0797 38.6986 22.076 38.6956 22.0716C38.6956 22.0757 38.6962 22.0797 38.6962 22.0841V30.9898C39.1486 31.0779 39.5089 31.1883 39.7803 31.2943" fill="white"/>
<path d="M47.6052 20.546C47.6052 20.546 50.3246 20.93 50.9314 21.6714C50.9314 21.6714 51.04 19.9835 49.7746 19.234C48.235 18.3222 47.6052 17.6024 47.6052 17.6024C47.6052 17.6024 46.9754 18.3222 45.4358 19.234C44.1703 19.9835 44.2787 21.6714 44.2787 21.6714C44.8649 20.9556 47.6052 20.546 47.6052 20.546" fill="white"/>
<path d="M44.7102 23.4593V32.33C47.1764 32.9469 48.9277 33.571 49.9507 34.5288H50.5001V23.4593C50.5001 22.8734 47.6052 22.3984 47.6052 22.3984C47.6052 22.3984 44.7102 22.8734 44.7102 23.4593" fill="white"/>
<path d="M7.39456 20.546C7.39456 20.546 10.1348 20.9556 10.7211 21.6714C10.7211 21.6714 10.8294 19.9835 9.56394 19.234C8.02438 18.3222 7.39456 17.6024 7.39456 17.6024C7.39456 17.6024 6.76505 18.3222 5.22548 19.234C3.96001 19.9835 4.06836 21.6714 4.06836 21.6714C4.67546 20.93 7.39456 20.546 7.39456 20.546Z" fill="white"/>
<path d="M4.49957 23.4593V34.5288H5.04929C6.07198 33.571 7.82363 32.9469 10.2898 32.33V23.4593C10.2898 22.8734 7.39454 22.3984 7.39454 22.3984C7.39454 22.3984 4.49957 22.8734 4.49957 23.4593" fill="white"/>
<path d="M38.9577 43.9801L27.4997 48.8809L16.0447 43.9807L0 37.1178C0.355947 39.645 2.08894 41.7475 4.47071 42.5411L27.4997 50.2173L50.5289 42.5411C52.9107 41.7475 54.644 39.645 55 37.1178L38.9577 43.9801Z" fill="white"/>
<path d="M76.2142 22.4265C76.0476 22.2431 75.8059 22.0515 75.4892 21.8515C75.1726 21.6348 74.7976 21.4348 74.3642 21.2515C73.9309 21.0681 73.4642 20.9181 72.9642 20.8015C72.4642 20.6848 71.9476 20.6265 71.4142 20.6265C70.2476 20.6265 69.3809 20.8431 68.8142 21.2765C68.2476 21.7098 67.9642 22.3098 67.9642 23.0765C67.9642 23.6431 68.1226 24.0931 68.4392 24.4265C68.7559 24.7431 69.2392 25.0098 69.8892 25.2265C70.5392 25.4431 71.3559 25.6765 72.3392 25.9265C73.5392 26.2098 74.5809 26.5515 75.4642 26.9515C76.3476 27.3348 77.0226 27.8515 77.4892 28.5015C77.9559 29.1515 78.1892 30.0098 78.1892 31.0765C78.1892 31.9765 78.0226 32.7515 77.6892 33.4015C77.3559 34.0515 76.8892 34.5848 76.2892 35.0015C75.6892 35.4015 74.9976 35.7015 74.2142 35.9015C73.4309 36.0848 72.5892 36.1765 71.6892 36.1765C70.8059 36.1765 69.9226 36.0848 69.0392 35.9015C68.1726 35.7181 67.3392 35.4515 66.5392 35.1015C65.7559 34.7348 65.0309 34.2931 64.3642 33.7765L65.6392 31.3765C65.8559 31.5931 66.1642 31.8348 66.5642 32.1015C66.9809 32.3515 67.4559 32.5931 67.9892 32.8265C68.5392 33.0598 69.1309 33.2598 69.7642 33.4265C70.4142 33.5765 71.0726 33.6515 71.7392 33.6515C72.8559 33.6515 73.7059 33.4598 74.2892 33.0765C74.8892 32.6765 75.1892 32.1098 75.1892 31.3765C75.1892 30.7765 74.9976 30.3015 74.6142 29.9515C74.2309 29.5848 73.6726 29.2765 72.9392 29.0265C72.2059 28.7765 71.3309 28.5265 70.3142 28.2765C69.1476 27.9598 68.1726 27.6181 67.3892 27.2515C66.6059 26.8681 66.0142 26.3848 65.6142 25.8015C65.2309 25.2015 65.0392 24.4431 65.0392 23.5265C65.0392 22.3598 65.3226 21.3765 65.8892 20.5765C66.4559 19.7598 67.2226 19.1515 68.1892 18.7515C69.1726 18.3348 70.2726 18.1265 71.4892 18.1265C72.2892 18.1265 73.0476 18.2181 73.7642 18.4015C74.4809 18.5681 75.1476 18.8015 75.7642 19.1015C76.3976 19.4015 76.9726 19.7431 77.4892 20.1265L76.2142 22.4265ZM86.2562 18.2515H88.9062L95.8062 36.0015H92.8562L90.9812 31.1765H84.1312L82.2812 36.0015H79.3062L86.2562 18.2515ZM90.4312 29.1015L87.5812 21.3265L84.6312 29.1015H90.4312ZM98.5013 36.0015V18.2515H110.326V20.7265H101.301V26.0265H108.851V28.3515H101.301V36.0015H98.5013ZM113.479 36.0015V18.2515H121.204C122.004 18.2515 122.737 18.4181 123.404 18.7515C124.071 19.0848 124.646 19.5265 125.129 20.0765C125.629 20.6265 126.012 21.2431 126.279 21.9265C126.562 22.6098 126.704 23.3098 126.704 24.0265C126.704 24.8098 126.562 25.5598 126.279 26.2765C125.996 26.9931 125.587 27.6098 125.054 28.1265C124.537 28.6431 123.929 29.0181 123.229 29.2515L127.404 36.0015H124.254L120.404 29.8265H116.279V36.0015H113.479ZM116.279 27.3515H121.179C121.696 27.3515 122.154 27.2015 122.554 26.9015C122.954 26.6015 123.271 26.2015 123.504 25.7015C123.737 25.1848 123.854 24.6265 123.854 24.0265C123.854 23.4098 123.721 22.8598 123.454 22.3765C123.187 21.8765 122.837 21.4765 122.404 21.1765C121.987 20.8765 121.529 20.7265 121.029 20.7265H116.279V27.3515ZM149.359 33.5265V36.0015H137.184V18.2515H149.134V20.7265H139.984V25.7765H147.909V28.1015H139.984V33.5265H149.359ZM159.424 36.0015V18.2515H162.224V36.0015H159.424ZM181.661 36.0015V23.3515L176.436 32.9515H174.786L169.536 23.3515V36.0015H166.736V18.2515H169.736L175.611 29.1015L181.486 18.2515H184.486V36.0015H181.661ZM194.114 18.2515H196.764L203.664 36.0015H200.714L198.839 31.1765H191.989L190.139 36.0015H187.164L194.114 18.2515ZM198.289 29.1015L195.439 21.3265L192.489 29.1015H198.289ZM209.159 23.4515V36.0015H206.359V18.2515H208.659L218.709 31.0765V18.2765H221.534V36.0015H219.084L209.159 23.4515Z" fill="white"/>
</svg>
