<svg width="22" height="22" viewBox="0 0 22 22" fill="none" xmlns="http://www.w3.org/2000/svg">
<path fill-rule="evenodd" clip-rule="evenodd" d="M6.84294 0.977164C7.91819 0.927664 8.26102 0.916664 11 0.916664C13.739 0.916664 14.0819 0.928581 15.1562 0.977164C16.2305 1.02575 16.9639 1.19716 17.6055 1.44558C18.2774 1.6995 18.887 2.09641 19.3912 2.60975C19.9045 3.113 20.3005 3.72166 20.5535 4.3945C20.8029 5.03616 20.9734 5.7695 21.0229 6.842C21.0724 7.91908 21.0834 8.26191 21.0834 11C21.0834 13.739 21.0714 14.0818 21.0229 15.1571C20.9743 16.2296 20.8029 16.9629 20.5535 17.6046C20.3005 18.2775 19.9039 18.8872 19.3912 19.3912C18.887 19.9045 18.2774 20.3005 17.6055 20.5535C16.9639 20.8028 16.2305 20.9733 15.158 21.0228C14.0819 21.0723 13.739 21.0833 11 21.0833C8.26102 21.0833 7.91819 21.0714 6.84294 21.0228C5.77044 20.9742 5.0371 20.8028 4.39544 20.5535C3.72253 20.3005 3.11286 19.9038 2.60885 19.3912C2.09587 18.8876 1.69889 18.2782 1.4456 17.6055C1.19719 16.9638 1.02669 16.2305 0.977187 15.158C0.927687 14.0809 0.916687 13.7381 0.916687 11C0.916687 8.261 0.928604 7.91816 0.977187 6.84383C1.02577 5.7695 1.19719 5.03616 1.4456 4.3945C1.69927 3.72174 2.09655 3.11237 2.60977 2.60883C3.11306 2.09596 3.72212 1.69899 4.39452 1.44558C5.03619 1.19716 5.76952 1.02666 6.84202 0.977164H6.84294ZM15.0746 2.79216C14.0113 2.74358 13.6923 2.7335 11 2.7335C8.30777 2.7335 7.98877 2.74358 6.92544 2.79216C5.94185 2.83708 5.40835 3.00116 5.05269 3.13958C4.58244 3.32291 4.24602 3.54016 3.8931 3.89308C3.55856 4.21854 3.3011 4.61476 3.1396 5.05266C3.00119 5.40833 2.8371 5.94183 2.79219 6.92541C2.7436 7.98875 2.73352 8.30775 2.73352 11C2.73352 13.6922 2.7436 14.0112 2.79219 15.0746C2.8371 16.0582 3.00119 16.5917 3.1396 16.9473C3.30094 17.3846 3.55852 17.7815 3.8931 18.1069C4.21852 18.4415 4.61544 18.6991 5.05269 18.8604C5.40835 18.9988 5.94185 19.1629 6.92544 19.2078C7.98877 19.2564 8.30685 19.2665 11 19.2665C13.6932 19.2665 14.0113 19.2564 15.0746 19.2078C16.0582 19.1629 16.5917 18.9988 16.9474 18.8604C17.4176 18.6771 17.754 18.4598 18.1069 18.1069C18.4415 17.7815 18.6991 17.3846 18.8604 16.9473C18.9989 16.5917 19.1629 16.0582 19.2079 15.0746C19.2564 14.0112 19.2665 13.6922 19.2665 11C19.2665 8.30775 19.2564 7.98875 19.2079 6.92541C19.1629 5.94183 18.9989 5.40833 18.8604 5.05266C18.6771 4.58241 18.4599 4.246 18.1069 3.89308C17.7815 3.55856 17.3852 3.30111 16.9474 3.13958C16.5917 3.00116 16.0582 2.83708 15.0746 2.79216ZM9.7121 14.1084C10.4314 14.4078 11.2323 14.4482 11.978 14.2227C12.7238 13.9972 13.3681 13.5198 13.801 12.8721C14.2339 12.2243 14.4284 11.4463 14.3514 10.671C14.2744 9.89572 13.9306 9.17122 13.3788 8.62125C13.027 8.26968 12.6016 8.00049 12.1333 7.83305C11.665 7.66561 11.1654 7.60408 10.6705 7.65289C10.1755 7.70171 9.69758 7.85966 9.27101 8.11537C8.84444 8.37107 8.47987 8.71818 8.20355 9.13169C7.92723 9.54521 7.74603 10.0148 7.67299 10.5068C7.59996 10.9987 7.63691 11.5008 7.78118 11.9767C7.92545 12.4527 8.17346 12.8907 8.50735 13.2593C8.84123 13.6279 9.25269 13.9179 9.7121 14.1084ZM7.33519 7.33516C7.81646 6.85389 8.38781 6.47213 9.01663 6.21166C9.64544 5.9512 10.3194 5.81714 11 5.81714C11.6806 5.81714 12.3546 5.9512 12.9834 6.21166C13.6122 6.47212 14.1836 6.85389 14.6649 7.33516C15.1461 7.81644 15.5279 8.38779 15.7884 9.0166C16.0488 9.64542 16.1829 10.3194 16.1829 11C16.1829 11.6806 16.0488 12.3546 15.7884 12.9834C15.5279 13.6122 15.1461 14.1836 14.6649 14.6648C13.6929 15.6368 12.3746 16.1829 11 16.1829C9.62544 16.1829 8.30716 15.6368 7.33519 14.6648C6.36321 13.6929 5.81716 12.3746 5.81716 11C5.81716 9.62542 6.36321 8.30714 7.33519 7.33516ZM17.3324 6.589C17.4516 6.47649 17.5471 6.3412 17.6131 6.19114C17.6792 6.04108 17.7144 5.87929 17.7168 5.71535C17.7192 5.55141 17.6887 5.38867 17.627 5.23674C17.5654 5.08481 17.4739 4.9468 17.358 4.83087C17.2421 4.71493 17.104 4.62344 16.9521 4.56181C16.8002 4.50017 16.6374 4.46964 16.4735 4.47203C16.3096 4.47442 16.1478 4.50968 15.9977 4.57572C15.8476 4.64176 15.7124 4.73723 15.5999 4.8565C15.3811 5.08844 15.2613 5.39653 15.2659 5.71535C15.2706 6.03417 15.3993 6.33864 15.6247 6.5641C15.8502 6.78957 16.1547 6.91829 16.4735 6.92294C16.7923 6.92759 17.1004 6.8078 17.3324 6.589Z" fill="white"/>
</svg>
