<svg width="159" height="36" viewBox="0 0 159 36" fill="none" xmlns="http://www.w3.org/2000/svg">
<path d="M19.4998 32.0746H19.5H19.4998ZM29.1618 24.009C28.3154 23.84 27.7099 23.7402 27.7099 23.7402L29.1618 24.3682L31.1673 25.2355L31.5521 25.3014C30.9321 25.3451 30.2217 25.4768 29.4317 25.7541C29.3448 25.7847 29.2545 25.8191 29.1618 25.8561C29.0604 25.8967 28.9546 25.9417 28.8466 25.9896C28.4185 26.1788 27.9434 26.4218 27.4391 26.7029C26.1427 27.4255 24.6616 28.3929 23.3316 29.3082C21.9774 30.2399 20.7806 31.117 20.099 31.6245L19.9653 29.7339L19.7009 25.9896L19.6726 25.5887C19.7714 25.5568 19.9105 25.5123 20.0816 25.4579C20.4226 25.3495 20.8934 25.2029 21.4377 25.0404C22.0097 24.8695 22.6624 24.6817 23.3316 24.5021C24.8849 24.0857 26.5231 23.7181 27.4391 23.7258C27.5373 23.7265 27.6296 23.7305 27.7099 23.7402C27.7099 23.7402 27.6265 23.6899 27.4391 23.632C27.0291 23.505 26.1211 23.3422 24.5014 23.5937C24.1147 23.6538 23.7205 23.7356 23.3316 23.8302C22.6626 23.993 22.0099 24.1937 21.4377 24.3888C20.5848 24.6794 19.9116 24.9566 19.6363 25.0737L19.6361 25.0697H19.4998H19.3638L19.3636 25.0737C19.0637 24.9462 18.2923 24.6287 17.3301 24.3107C16.748 24.1185 16.0961 23.926 15.4362 23.7755C15.1233 23.7041 14.8083 23.642 14.4984 23.5937C12.4249 23.2717 11.5183 23.6289 11.3287 23.7201C11.3026 23.7327 11.2899 23.7402 11.2899 23.7402C11.3019 23.7389 11.3163 23.7385 11.3287 23.7371C11.4192 23.728 11.5191 23.7234 11.6303 23.7247C12.5111 23.7351 13.9937 24.0606 15.4362 24.4404C16.0966 24.6143 16.7484 24.7994 17.3301 24.9715C18.256 25.2448 19.0042 25.4843 19.3272 25.5887L19.2989 25.9896L19.0345 29.7339L18.9017 31.6128C18.1816 31.062 16.8855 30.0866 15.4362 29.0711C14.0864 28.1255 12.6047 27.1457 11.3287 26.4393C11.0277 26.2725 10.7384 26.1218 10.4649 25.9896C10.2078 25.8655 9.96516 25.7586 9.74012 25.6721C9.68201 25.6499 9.62368 25.6271 9.5684 25.6076C8.95661 25.393 8.39336 25.2719 7.8819 25.2142L9.74012 24.4105L11.2899 23.7402C11.2899 23.7402 10.6375 23.8478 9.74012 24.0287C7.888 24.4019 4.99162 25.087 4.62881 25.7839L11.3287 29.0326L15.2924 30.9547L19.4998 32.9948L23.7075 30.9547L27.4391 29.145L34.371 25.7839C34.0017 25.0746 31.008 24.3772 29.1618 24.009" fill="#CEB041"/>
<path d="M19.4511 8.26323C19.4511 8.26323 28.5724 9.55078 30.6085 12.0376C30.6085 12.0376 30.9723 7.98763 26.7277 5.47372C21.5631 2.41525 19.4511 4.69778e-06 19.4511 4.69778e-06C19.4511 4.69778e-06 17.3389 2.41525 12.1742 5.47372C7.92958 7.98763 8.29347 12.0376 8.29347 12.0376C10.2594 9.63659 19.4511 8.26323 19.4511 8.26323" fill="#CEB041"/>
<path d="M28.2078 22.1906C28.4124 22.2261 28.7478 22.2862 29.1618 22.3662V13.4119C29.1618 11.4465 19.451 9.85321 19.451 9.85321C19.451 9.85321 9.74011 11.4465 9.74011 13.4119V22.3853C10.1996 22.2957 10.5715 22.229 10.792 22.1906C10.9356 22.1345 11.115 22.0769 11.3287 22.025V15.6597C11.3287 15.6566 11.3291 15.654 11.3291 15.6509C11.3269 15.654 11.3235 15.6566 11.3215 15.6597C11.3215 15.6597 11.2542 14.7877 12.0384 14.2465C12.9923 13.5879 13.3823 13.0678 13.3823 13.0678C13.3823 13.0678 13.7726 13.5879 14.7267 14.2465C15.5109 14.7877 15.4436 15.6597 15.4436 15.6597C15.4414 15.6566 15.438 15.654 15.4358 15.6509C15.4358 15.6537 15.4362 15.6566 15.4362 15.6597V22.1261C16.0857 22.2589 16.7316 22.4332 17.3301 22.6168V14.4389C17.3301 14.436 17.3306 14.4331 17.3306 14.43C17.3284 14.4331 17.3249 14.436 17.3227 14.4389C17.3227 14.4389 17.2557 13.5669 18.0396 13.0256C18.9938 12.3671 19.384 11.847 19.384 11.847C19.384 11.847 19.774 12.3671 20.7282 13.0256C21.5121 13.5669 21.4451 14.4389 21.4451 14.4389C21.4429 14.436 21.4394 14.4331 21.4372 14.43C21.4372 14.4329 21.4377 14.436 21.4377 14.4389V22.6893C22.0297 22.5017 22.6763 22.3201 23.3316 22.1762V15.6597C23.3316 15.6566 23.332 15.654 23.332 15.6509C23.3299 15.654 23.3264 15.6566 23.3244 15.6597C23.3244 15.6597 23.2572 14.7877 24.0413 14.2465C24.9952 13.5879 25.3853 13.0678 25.3853 13.0678C25.3853 13.0678 25.7755 13.5879 26.7296 14.2465C27.5138 14.7877 27.4465 15.6597 27.4465 15.6597C27.4444 15.6566 27.4409 15.654 27.4387 15.6509C27.4387 15.6537 27.4391 15.6566 27.4391 15.6597V21.9747C27.7599 22.0372 28.0155 22.1154 28.2078 22.1906" fill="#CEB041"/>
<path d="M33.7564 14.569C33.7564 14.569 35.6847 14.8413 36.115 15.367C36.115 15.367 36.192 14.1702 35.2947 13.6387C34.203 12.9921 33.7564 12.4817 33.7564 12.4817C33.7564 12.4817 33.3098 12.9921 32.2181 13.6387C31.3207 14.1702 31.3976 15.367 31.3976 15.367C31.8133 14.8595 33.7564 14.569 33.7564 14.569" fill="#CEB041"/>
<path d="M31.7036 16.6351V22.9252C33.4523 23.3626 34.6942 23.8052 35.4196 24.4843H35.8091V16.6351C35.8091 16.2196 33.7563 15.8828 33.7563 15.8828C33.7563 15.8828 31.7036 16.2196 31.7036 16.6351" fill="#CEB041"/>
<path d="M5.2434 14.569C5.2434 14.569 7.1865 14.8595 7.6022 15.367C7.6022 15.367 7.67902 14.1702 6.78169 13.6387C5.69 12.9921 5.2434 12.4817 5.2434 12.4817C5.2434 12.4817 4.79702 12.9921 3.70533 13.6387C2.80799 14.1702 2.88482 15.367 2.88482 15.367C3.31532 14.8413 5.2434 14.569 5.2434 14.569Z" fill="#CEB041"/>
<path d="M3.19058 16.6351V24.4843H3.58038C4.30556 23.8052 5.54764 23.3626 7.29639 22.9252V16.6351C7.29639 16.2196 5.24338 15.8828 5.24338 15.8828C5.24338 15.8828 3.19058 16.2196 3.19058 16.6351" fill="#CEB041"/>
<path d="M27.6245 31.186L19.4998 34.6611L11.3772 31.1864L0 26.32C0.252399 28.112 1.48125 29.6029 3.17014 30.1656L19.4998 35.6087L35.8296 30.1656C37.5185 29.6029 38.7475 28.112 39 26.32L27.6245 31.186Z" fill="#CEB041"/>
<path d="M52 9.31197C51.8933 9.19464 51.7387 9.07197 51.536 8.94397C51.3333 8.8053 51.0933 8.6773 50.816 8.55997C50.5387 8.44264 50.24 8.34664 49.92 8.27197C49.6 8.1973 49.2693 8.15997 48.928 8.15997C48.1813 8.15997 47.6267 8.29864 47.264 8.57597C46.9013 8.8533 46.72 9.2373 46.72 9.72797C46.72 10.0906 46.8213 10.3786 47.024 10.592C47.2267 10.7946 47.536 10.9653 47.952 11.104C48.368 11.2426 48.8907 11.392 49.52 11.552C50.288 11.7333 50.9547 11.952 51.52 12.208C52.0853 12.4533 52.5173 12.784 52.816 13.2C53.1147 13.616 53.264 14.1653 53.264 14.848C53.264 15.424 53.1573 15.92 52.944 16.336C52.7307 16.752 52.432 17.0933 52.048 17.36C51.664 17.616 51.2213 17.808 50.72 17.936C50.2187 18.0533 49.68 18.112 49.104 18.112C48.5387 18.112 47.9733 18.0533 47.408 17.936C46.8533 17.8186 46.32 17.648 45.808 17.424C45.3067 17.1893 44.8427 16.9066 44.416 16.576L45.232 15.04C45.3707 15.1786 45.568 15.3333 45.824 15.504C46.0907 15.664 46.3947 15.8186 46.736 15.968C47.088 16.1173 47.4667 16.2453 47.872 16.352C48.288 16.448 48.7093 16.496 49.136 16.496C49.8507 16.496 50.3947 16.3733 50.768 16.128C51.152 15.872 51.344 15.5093 51.344 15.04C51.344 14.656 51.2213 14.352 50.976 14.128C50.7307 13.8933 50.3733 13.696 49.904 13.536C49.4347 13.376 48.8747 13.216 48.224 13.056C47.4773 12.8533 46.8533 12.6346 46.352 12.4C45.8507 12.1546 45.472 11.8453 45.216 11.472C44.9707 11.088 44.848 10.6026 44.848 10.016C44.848 9.2693 45.0293 8.63997 45.392 8.12797C45.7547 7.6053 46.2453 7.21597 46.864 6.95997C47.4933 6.6933 48.1973 6.55997 48.976 6.55997C49.488 6.55997 49.9733 6.61864 50.432 6.73597C50.8907 6.84264 51.3173 6.99197 51.712 7.18397C52.1173 7.37597 52.4853 7.59464 52.816 7.83997L52 9.31197ZM59.0669 6.63997H60.7629L65.1789 18H63.2909L62.0909 14.912H57.7069L56.5229 18H54.6189L59.0669 6.63997ZM61.7389 13.584L59.9149 8.60797L58.0269 13.584H61.7389ZM67.5438 18V6.63997H75.1118V8.22397H69.3358V11.616H74.1678V13.104H69.3358V18H67.5438ZM77.7694 18V6.63997H82.7134C83.2254 6.63997 83.6947 6.74664 84.1214 6.95997C84.548 7.1733 84.916 7.45597 85.2254 7.80797C85.5454 8.15997 85.7907 8.55464 85.9614 8.99197C86.1427 9.4293 86.2334 9.8773 86.2334 10.336C86.2334 10.8373 86.1427 11.3173 85.9614 11.776C85.78 12.2346 85.5187 12.6293 85.1774 12.96C84.8467 13.2906 84.4574 13.5306 84.0094 13.68L86.6814 18H84.6654L82.2014 14.048H79.5614V18H77.7694ZM79.5614 12.464H82.6974C83.028 12.464 83.3214 12.368 83.5774 12.176C83.8334 11.984 84.036 11.728 84.1854 11.408C84.3347 11.0773 84.4094 10.72 84.4094 10.336C84.4094 9.9413 84.324 9.5893 84.1534 9.27997C83.9827 8.95997 83.7587 8.70397 83.4814 8.51197C83.2147 8.31997 82.9214 8.22397 82.6014 8.22397H79.5614V12.464ZM89.0035 14.416V12.832H93.7875V14.416H89.0035ZM104.794 16.416V18H97.0019V6.63997H104.65V8.22397H98.7939V11.456H103.866V12.944H98.7939V16.416H104.794ZM107.298 14.416V12.832H112.082V14.416H107.298ZM115.297 18V6.63997H117.089V18H115.297ZM130.168 18V9.90397L126.824 16.048H125.768L122.408 9.90397V18H120.616V6.63997H122.536L126.296 13.584L130.056 6.63997H131.976V18H130.168ZM138.778 6.63997H140.474L144.89 18H143.002L141.802 14.912H137.418L136.234 18H134.33L138.778 6.63997ZM141.45 13.584L139.626 8.60797L137.738 13.584H141.45ZM149.047 9.96797V18H147.255V6.63997H148.727L155.159 14.848V6.65597H156.967V18H155.399L149.047 9.96797Z" fill="#CEB041"/>
<path d="M72.01 24.89H69.65V31H68.52V24.89H66.15V23.9H72.01V24.89ZM75.098 26.72C74.6714 26.7266 74.2914 26.8233 73.958 27.01C73.6314 27.1966 73.398 27.46 73.258 27.8V31H72.158V25.77H73.178V26.94C73.358 26.58 73.5947 26.2933 73.888 26.08C74.1814 25.86 74.4914 25.74 74.818 25.72C74.8847 25.72 74.938 25.72 74.978 25.72C75.0247 25.72 75.0647 25.7233 75.098 25.73V26.72ZM75.5085 29.47C75.5085 29.1366 75.6018 28.8466 75.7885 28.6C75.9818 28.3466 76.2452 28.1533 76.5785 28.02C76.9118 27.88 77.2985 27.81 77.7385 27.81C77.9718 27.81 78.2085 27.8266 78.4485 27.86C78.6952 27.8933 78.9118 27.9466 79.0985 28.02V27.69C79.0985 27.3233 78.9885 27.0366 78.7685 26.83C78.5485 26.6233 78.2318 26.52 77.8185 26.52C77.5252 26.52 77.2485 26.5733 76.9885 26.68C76.7285 26.78 76.4518 26.9233 76.1585 27.11L75.7885 26.37C76.1352 26.1366 76.4818 25.9633 76.8285 25.85C77.1818 25.7366 77.5518 25.68 77.9385 25.68C78.6385 25.68 79.1885 25.8666 79.5885 26.24C79.9952 26.6066 80.1985 27.13 80.1985 27.81V29.76C80.1985 29.8866 80.2185 29.9766 80.2585 30.03C80.3052 30.0833 80.3818 30.1133 80.4885 30.12V31C80.3885 31.02 80.2985 31.0333 80.2185 31.04C80.1385 31.0466 80.0718 31.05 80.0185 31.05C79.7852 31.05 79.6085 30.9933 79.4885 30.88C79.3685 30.7666 79.2985 30.6333 79.2785 30.48L79.2485 30.18C79.0218 30.4733 78.7318 30.7 78.3785 30.86C78.0252 31.02 77.6685 31.1 77.3085 31.1C76.9618 31.1 76.6518 31.03 76.3785 30.89C76.1052 30.7433 75.8918 30.5466 75.7385 30.3C75.5852 30.0533 75.5085 29.7766 75.5085 29.47ZM78.8385 29.79C78.9185 29.7033 78.9818 29.6166 79.0285 29.53C79.0752 29.4433 79.0985 29.3666 79.0985 29.3V28.7C78.9118 28.6266 78.7152 28.5733 78.5085 28.54C78.3018 28.5 78.0985 28.48 77.8985 28.48C77.4985 28.48 77.1718 28.56 76.9185 28.72C76.6718 28.88 76.5485 29.1 76.5485 29.38C76.5485 29.5333 76.5885 29.68 76.6685 29.82C76.7552 29.96 76.8752 30.0733 77.0285 30.16C77.1885 30.2466 77.3852 30.29 77.6185 30.29C77.8585 30.29 78.0885 30.2433 78.3085 30.15C78.5285 30.0566 78.7052 29.9366 78.8385 29.79ZM82.8173 31L80.8273 25.77H81.9673L83.4573 29.98L84.9473 25.77H86.0073L84.0173 31H82.8173ZM88.9909 31.1C88.5843 31.1 88.2143 31.03 87.8809 30.89C87.5543 30.7433 87.2709 30.5466 87.0309 30.3C86.7909 30.0466 86.6043 29.76 86.4709 29.44C86.3443 29.1133 86.2809 28.7666 86.2809 28.4C86.2809 27.9066 86.3943 27.4566 86.6209 27.05C86.8476 26.6366 87.1643 26.3066 87.5709 26.06C87.9776 25.8066 88.4543 25.68 89.0009 25.68C89.5476 25.68 90.0176 25.8066 90.4109 26.06C90.8109 26.3066 91.1209 26.6333 91.3409 27.04C91.5609 27.4466 91.6709 27.8833 91.6709 28.35C91.6709 28.43 91.6676 28.5066 91.6609 28.58C91.6543 28.6466 91.6476 28.7033 91.6409 28.75H87.4509C87.4709 29.0566 87.5543 29.3266 87.7009 29.56C87.8543 29.7866 88.0476 29.9666 88.2809 30.1C88.5143 30.2266 88.7643 30.29 89.0309 30.29C89.3243 30.29 89.6009 30.2166 89.8609 30.07C90.1276 29.9233 90.3076 29.73 90.4009 29.49L91.3409 29.76C91.2276 30.0133 91.0543 30.2433 90.8209 30.45C90.5943 30.65 90.3243 30.81 90.0109 30.93C89.6976 31.0433 89.3576 31.1 88.9909 31.1ZM87.4209 28.02H90.5809C90.5609 27.72 90.4743 27.4566 90.3209 27.23C90.1743 26.9966 89.9843 26.8166 89.7509 26.69C89.5243 26.5566 89.2709 26.49 88.9909 26.49C88.7176 26.49 88.4643 26.5566 88.2309 26.69C88.0043 26.8166 87.8176 26.9966 87.6709 27.23C87.5243 27.4566 87.4409 27.72 87.4209 28.02ZM92.5782 23.7H93.6782V29.49C93.6782 29.7566 93.7182 29.9266 93.7982 30C93.8782 30.0733 93.9782 30.11 94.0982 30.11C94.2315 30.11 94.3549 30.0966 94.4682 30.07C94.5882 30.0433 94.6915 30.01 94.7782 29.97L94.9382 30.84C94.7782 30.9066 94.5882 30.9633 94.3682 31.01C94.1482 31.0566 93.9515 31.08 93.7782 31.08C93.4049 31.08 93.1115 30.9766 92.8982 30.77C92.6849 30.5566 92.5782 30.2633 92.5782 29.89V23.7ZM102.584 31L99.1735 27.39C98.8868 27.0833 98.6602 26.8233 98.4935 26.61C98.3268 26.3966 98.2068 26.2 98.1335 26.02C98.0602 25.84 98.0235 25.6533 98.0235 25.46C98.0235 25.1333 98.1035 24.8466 98.2635 24.6C98.4302 24.3533 98.6568 24.16 98.9435 24.02C99.2302 23.88 99.5502 23.81 99.9035 23.81C100.23 23.81 100.53 23.87 100.804 23.99C101.077 24.1033 101.297 24.2733 101.464 24.5C101.63 24.72 101.714 24.9933 101.714 25.32C101.714 25.6266 101.634 25.9033 101.474 26.15C101.314 26.3966 101.1 26.6233 100.834 26.83C100.567 27.0366 100.27 27.24 99.9435 27.44C99.6902 27.6066 99.4602 27.7733 99.2535 27.94C99.0468 28.1 98.8835 28.2733 98.7635 28.46C98.6502 28.64 98.5935 28.8433 98.5935 29.07C98.5935 29.2966 98.6568 29.5 98.7835 29.68C98.9102 29.8533 99.0802 29.99 99.2935 30.09C99.5068 30.1833 99.7402 30.23 99.9935 30.23C100.307 30.23 100.604 30.1566 100.884 30.01C101.164 29.8633 101.414 29.6566 101.634 29.39C101.854 29.1166 102.024 28.7966 102.144 28.43C102.27 28.0633 102.334 27.6633 102.334 27.23H103.234C103.234 27.8166 103.14 28.3466 102.954 28.82C102.774 29.2933 102.527 29.7 102.214 30.04C101.907 30.38 101.55 30.6433 101.144 30.83C100.744 31.01 100.32 31.1 99.8735 31.1C99.4135 31.1 99.0068 31.01 98.6535 30.83C98.3002 30.6433 98.0235 30.3966 97.8235 30.09C97.6302 29.7833 97.5335 29.44 97.5335 29.06C97.5335 28.6866 97.6168 28.3633 97.7835 28.09C97.9568 27.81 98.1768 27.5633 98.4435 27.35C98.7168 27.13 98.9902 26.9333 99.2635 26.76C99.5568 26.5733 99.8102 26.41 100.024 26.27C100.237 26.1233 100.404 25.9766 100.524 25.83C100.644 25.6766 100.704 25.5133 100.704 25.34C100.704 25.1266 100.627 24.9566 100.474 24.83C100.327 24.6966 100.137 24.63 99.9035 24.63C99.7302 24.63 99.5768 24.6666 99.4435 24.74C99.3168 24.8133 99.2168 24.91 99.1435 25.03C99.0702 25.15 99.0335 25.2833 99.0335 25.43C99.0335 25.53 99.0602 25.6333 99.1135 25.74C99.1668 25.84 99.2668 25.9733 99.4135 26.14C99.5602 26.3 99.7635 26.52 100.024 26.8L104.034 31H102.584ZM112.244 24.89H109.884V31H108.754V24.89H106.384V23.9H112.244V24.89ZM114.352 31.1C113.938 31.1 113.568 31.03 113.242 30.89C112.915 30.7433 112.632 30.5433 112.392 30.29C112.158 30.0366 111.978 29.75 111.852 29.43C111.725 29.1033 111.662 28.7566 111.662 28.39C111.662 28.0233 111.725 27.6766 111.852 27.35C111.978 27.0233 112.158 26.7366 112.392 26.49C112.632 26.2366 112.915 26.04 113.242 25.9C113.575 25.7533 113.945 25.68 114.352 25.68C114.758 25.68 115.125 25.7533 115.452 25.9C115.785 26.04 116.068 26.2366 116.302 26.49C116.542 26.7366 116.725 27.0233 116.852 27.35C116.978 27.6766 117.042 28.0233 117.042 28.39C117.042 28.7566 116.978 29.1033 116.852 29.43C116.725 29.75 116.542 30.0366 116.302 30.29C116.068 30.5433 115.785 30.7433 115.452 30.89C115.125 31.03 114.758 31.1 114.352 31.1ZM112.792 28.4C112.792 28.7333 112.862 29.0333 113.002 29.3C113.142 29.5666 113.328 29.7766 113.562 29.93C113.795 30.0833 114.058 30.16 114.352 30.16C114.638 30.16 114.898 30.0833 115.132 29.93C115.372 29.77 115.562 29.5566 115.702 29.29C115.842 29.0166 115.912 28.7166 115.912 28.39C115.912 28.0566 115.842 27.7566 115.702 27.49C115.562 27.2233 115.372 27.0133 115.132 26.86C114.898 26.7 114.638 26.62 114.352 26.62C114.058 26.62 113.795 26.7 113.562 26.86C113.328 27.02 113.142 27.2333 113.002 27.5C112.862 27.76 112.792 28.06 112.792 28.4ZM117.967 28.97V25.77H119.067V28.75C119.067 29.2166 119.151 29.57 119.317 29.81C119.491 30.0433 119.741 30.16 120.067 30.16C120.274 30.16 120.474 30.1166 120.667 30.03C120.867 29.9433 121.047 29.8166 121.207 29.65C121.374 29.4766 121.507 29.27 121.607 29.03V25.77H122.707V29.76C122.707 29.8866 122.731 29.9766 122.777 30.03C122.824 30.0833 122.901 30.1133 123.007 30.12V31C122.894 31.02 122.801 31.0333 122.727 31.04C122.654 31.0466 122.584 31.05 122.517 31.05C122.317 31.05 122.151 30.9966 122.017 30.89C121.884 30.7766 121.807 30.6333 121.787 30.46L121.767 29.94C121.534 30.32 121.231 30.61 120.857 30.81C120.484 31.0033 120.074 31.1 119.627 31.1C119.081 31.1 118.667 30.92 118.387 30.56C118.107 30.2 117.967 29.67 117.967 28.97ZM127.051 26.72C126.625 26.7266 126.245 26.8233 125.911 27.01C125.585 27.1966 125.351 27.46 125.211 27.8V31H124.111V25.77H125.131V26.94C125.311 26.58 125.548 26.2933 125.841 26.08C126.135 25.86 126.445 25.74 126.771 25.72C126.838 25.72 126.891 25.72 126.931 25.72C126.978 25.72 127.018 25.7233 127.051 25.73V26.72ZM129.711 31.1C129.271 31.1 128.855 31.03 128.461 30.89C128.068 30.7433 127.731 30.5266 127.451 30.24L127.861 29.5C128.161 29.7666 128.461 29.96 128.761 30.08C129.068 30.2 129.371 30.26 129.671 30.26C129.978 30.26 130.228 30.2033 130.421 30.09C130.615 29.97 130.711 29.7966 130.711 29.57C130.711 29.4033 130.661 29.28 130.561 29.2C130.461 29.12 130.315 29.05 130.121 28.99C129.935 28.93 129.708 28.8633 129.441 28.79C129.068 28.6766 128.755 28.56 128.501 28.44C128.248 28.3133 128.058 28.16 127.931 27.98C127.805 27.8 127.741 27.57 127.741 27.29C127.741 26.95 127.828 26.66 128.001 26.42C128.175 26.18 128.415 25.9966 128.721 25.87C129.035 25.7433 129.395 25.68 129.801 25.68C130.181 25.68 130.531 25.74 130.851 25.86C131.178 25.9733 131.465 26.1533 131.711 26.4L131.241 27.13C131.008 26.9166 130.768 26.76 130.521 26.66C130.281 26.56 130.021 26.51 129.741 26.51C129.581 26.51 129.428 26.53 129.281 26.57C129.135 26.6033 129.011 26.67 128.911 26.77C128.818 26.8633 128.771 26.9966 128.771 27.17C128.771 27.31 128.811 27.4233 128.891 27.51C128.971 27.5966 129.091 27.67 129.251 27.73C129.411 27.79 129.608 27.8566 129.841 27.93C130.248 28.05 130.595 28.17 130.881 28.29C131.168 28.4033 131.388 28.5533 131.541 28.74C131.701 28.92 131.781 29.17 131.781 29.49C131.781 29.9966 131.591 30.3933 131.211 30.68C130.838 30.96 130.338 31.1 129.711 31.1Z" fill="#CEB041"/>
</svg>
