<svg width="169" height="42" viewBox="0 0 169 42" fill="none" xmlns="http://www.w3.org/2000/svg">
<path d="M22.9997 37.8316H23H22.9997ZM34.3959 28.3183C33.3976 28.119 32.6834 28.0013 32.6834 28.0013L34.3959 28.7419L36.7614 29.765L37.2153 29.8427C36.484 29.8942 35.6461 30.0495 34.7142 30.3767C34.6118 30.4128 34.5053 30.4533 34.3959 30.497C34.2763 30.5448 34.1515 30.5979 34.0242 30.6544C33.5193 30.8775 32.9589 31.1641 32.3641 31.4957C30.8349 32.348 29.088 33.489 27.5193 34.5686C25.9221 35.6675 24.5105 36.7021 23.7065 37.3007L23.5488 35.0707L23.2369 30.6544L23.2036 30.1816C23.3201 30.1439 23.4841 30.0914 23.6859 30.0273C24.0882 29.8994 24.6434 29.7265 25.2854 29.5348C25.9601 29.3332 26.7299 29.1117 27.5193 28.8999C29.3514 28.4087 31.2836 27.9751 32.3641 27.9843C32.4799 27.9851 32.5887 27.9898 32.6834 28.0013C32.6834 28.0013 32.5851 27.9419 32.3641 27.8737C31.8805 27.7238 30.8095 27.5319 28.8991 27.8284C28.4429 27.8993 27.978 27.9958 27.5193 28.1075C26.7302 28.2994 25.9603 28.5361 25.2854 28.7662C24.2794 29.1091 23.4854 29.436 23.1607 29.5741L23.1604 29.5694H22.9997H22.8393L22.839 29.5741C22.4853 29.4237 21.5755 29.0492 20.4407 28.6742C19.754 28.4474 18.9851 28.2204 18.2068 28.0429C17.8377 27.9587 17.4662 27.8854 17.1007 27.8284C14.655 27.4487 13.5856 27.87 13.362 27.9775C13.3312 27.9924 13.3163 28.0013 13.3163 28.0013C13.3304 27.9997 13.3474 27.9992 13.362 27.9976C13.4688 27.9869 13.5866 27.9814 13.7178 27.983C14.7567 27.9953 16.5054 28.3792 18.2068 28.8272C18.9856 29.0322 19.7545 29.2506 20.4407 29.4535C21.5327 29.776 22.4152 30.0584 22.7962 30.1816L22.7628 30.6544L22.4509 35.0707L22.2943 37.2869C21.4449 36.6372 19.9162 35.4868 18.2068 34.289C16.6147 33.1737 14.8671 32.018 13.362 31.1848C13.007 30.9881 12.6658 30.8103 12.3431 30.6544C12.04 30.508 11.7538 30.3819 11.4883 30.2799C11.4198 30.2538 11.351 30.2268 11.2858 30.2038C10.5642 29.9507 9.89983 29.8079 9.29657 29.7399L11.4883 28.7919L13.3163 28.0013C13.3163 28.0013 12.5467 28.1281 11.4883 28.3415C9.30376 28.7817 5.88752 29.5898 5.45959 30.4117L13.362 34.2435L18.0371 36.5107L22.9997 38.9169L27.9626 36.5107L32.3641 34.3761L40.5401 30.4117C40.1045 29.5751 36.5735 28.7526 34.3959 28.3183" fill="#CEB041"/>
<path d="M22.9423 9.74637C22.9423 9.74637 33.7008 11.265 36.1023 14.1982C36.1023 14.1982 36.5315 9.4213 31.5249 6.45617C25.4333 2.84875 22.9423 3.28795e-06 22.9423 3.28795e-06C22.9423 3.28795e-06 20.4509 2.84875 14.3593 6.45617C9.35281 9.4213 9.78202 14.1982 9.78202 14.1982C12.1008 11.3662 22.9423 9.74637 22.9423 9.74637" fill="#CEB041"/>
<path d="M33.2707 26.1735C33.512 26.2154 33.9076 26.2862 34.3959 26.3807V15.8191C34.3959 13.501 22.9422 11.6217 22.9422 11.6217C22.9422 11.6217 11.4883 13.501 11.4883 15.8191V26.4031C12.0302 26.2975 12.4689 26.2188 12.7289 26.1735C12.8984 26.1074 13.1099 26.0394 13.362 25.9782V18.4704C13.362 18.4668 13.3625 18.4636 13.3625 18.46C13.3599 18.4636 13.3558 18.4668 13.3535 18.4704C13.3535 18.4704 13.2742 17.4419 14.1991 16.8035C15.3242 16.0268 15.7842 15.4132 15.7842 15.4132C15.7842 15.4132 16.2445 16.0268 17.3699 16.8035C18.2948 17.4419 18.2155 18.4704 18.2155 18.4704C18.2129 18.4668 18.2088 18.4636 18.2063 18.46C18.2063 18.4634 18.2068 18.4668 18.2068 18.4704V26.0974C18.9728 26.2541 19.7347 26.4596 20.4406 26.6762V17.0305C20.4406 17.0271 20.4411 17.0237 20.4411 17.02C20.4386 17.0237 20.4345 17.0271 20.4319 17.0305C20.4319 17.0305 20.3528 16.0019 21.2775 15.3636C22.4029 14.5868 22.8631 13.9733 22.8631 13.9733C22.8631 13.9733 23.3232 14.5868 24.4486 15.3636C25.3732 16.0019 25.2941 17.0305 25.2941 17.0305C25.2916 17.0271 25.2875 17.0237 25.2849 17.02C25.2849 17.0234 25.2854 17.0271 25.2854 17.0305V26.7617C25.9836 26.5404 26.7463 26.3263 27.5193 26.1565V18.4704C27.5193 18.4668 27.5198 18.4636 27.5198 18.46C27.5172 18.4636 27.5131 18.4668 27.5108 18.4704C27.5108 18.4704 27.4315 17.4419 28.3564 16.8035C29.4815 16.0268 29.9415 15.4132 29.9415 15.4132C29.9415 15.4132 30.4018 16.0268 31.5272 16.8035C32.4521 17.4419 32.3728 18.4704 32.3728 18.4704C32.3702 18.4668 32.3661 18.4636 32.3635 18.46C32.3635 18.4634 32.3641 18.4668 32.3641 18.4704V25.9188C32.7424 25.9926 33.0438 26.0849 33.2707 26.1735" fill="#CEB041"/>
<path d="M39.8152 17.184C39.8152 17.184 42.0896 17.5051 42.5971 18.1252C42.5971 18.1252 42.688 16.7135 41.6296 16.0866C40.3419 15.324 39.8152 14.722 39.8152 14.722C39.8152 14.722 39.2884 15.324 38.0008 16.0866C36.9424 16.7135 37.033 18.1252 37.033 18.1252C37.5233 17.5266 39.8152 17.184 39.8152 17.184" fill="#CEB041"/>
<path d="M37.3939 19.6208V27.0399C39.4565 27.5559 40.9213 28.0779 41.7769 28.8789H42.2364V19.6208C42.2364 19.1307 39.8152 18.7335 39.8152 18.7335C39.8152 18.7335 37.3939 19.1307 37.3939 19.6208" fill="#CEB041"/>
<path d="M6.18449 17.184C6.18449 17.184 8.47635 17.5266 8.96666 18.1252C8.96666 18.1252 9.05727 16.7135 7.99888 16.0866C6.71125 15.324 6.18449 14.722 6.18449 14.722C6.18449 14.722 5.65798 15.324 4.37035 16.0866C3.31196 16.7135 3.40257 18.1252 3.40257 18.1252C3.91033 17.5051 6.18449 17.184 6.18449 17.184Z" fill="#CEB041"/>
<path d="M3.76331 19.6208V28.8789H4.22307C5.07841 28.0779 6.54342 27.5559 8.60605 27.0399V19.6208C8.60605 19.1307 6.18455 18.7335 6.18455 18.7335C6.18455 18.7335 3.76331 19.1307 3.76331 19.6208" fill="#CEB041"/>
<path d="M32.5828 36.7834L22.9997 40.8823L13.4192 36.784L0 31.0441C0.297701 33.1577 1.74711 34.9162 3.73914 35.5799L22.9997 42L42.2606 35.5799C44.2526 34.9162 45.7022 33.1577 46 31.0441L32.5828 36.7834Z" fill="#CEB041"/>
<path d="M62 21.226C61.88 21.094 61.706 20.956 61.478 20.812C61.25 20.656 60.98 20.512 60.668 20.38C60.356 20.248 60.02 20.14 59.66 20.056C59.3 19.972 58.928 19.93 58.544 19.93C57.704 19.93 57.08 20.086 56.672 20.398C56.264 20.71 56.06 21.142 56.06 21.694C56.06 22.102 56.174 22.426 56.402 22.666C56.63 22.894 56.978 23.086 57.446 23.242C57.914 23.398 58.502 23.566 59.21 23.746C60.074 23.95 60.824 24.196 61.46 24.484C62.096 24.76 62.582 25.132 62.918 25.6C63.254 26.068 63.422 26.686 63.422 27.454C63.422 28.102 63.302 28.66 63.062 29.128C62.822 29.596 62.486 29.98 62.054 30.28C61.622 30.568 61.124 30.784 60.56 30.928C59.996 31.06 59.39 31.126 58.742 31.126C58.106 31.126 57.47 31.06 56.834 30.928C56.21 30.796 55.61 30.604 55.034 30.352C54.47 30.088 53.948 29.77 53.468 29.398L54.386 27.67C54.542 27.826 54.764 28 55.052 28.192C55.352 28.372 55.694 28.546 56.078 28.714C56.474 28.882 56.9 29.026 57.356 29.146C57.824 29.254 58.298 29.308 58.778 29.308C59.582 29.308 60.194 29.17 60.614 28.894C61.046 28.606 61.262 28.198 61.262 27.67C61.262 27.238 61.124 26.896 60.848 26.644C60.572 26.38 60.17 26.158 59.642 25.978C59.114 25.798 58.484 25.618 57.752 25.438C56.912 25.21 56.21 24.964 55.646 24.7C55.082 24.424 54.656 24.076 54.368 23.656C54.092 23.224 53.954 22.678 53.954 22.018C53.954 21.178 54.158 20.47 54.566 19.894C54.974 19.306 55.526 18.868 56.222 18.58C56.93 18.28 57.722 18.13 58.598 18.13C59.174 18.13 59.72 18.196 60.236 18.328C60.752 18.448 61.232 18.616 61.676 18.832C62.132 19.048 62.546 19.294 62.918 19.57L62 21.226ZM69.2302 18.22H71.1382L76.1062 31H73.9822L72.6322 27.526H67.7002L66.3682 31H64.2262L69.2302 18.22ZM72.2362 26.032L70.1842 20.434L68.0602 26.032H72.2362ZM78.0467 31V18.22H86.5607V20.002H80.0627V23.818H85.4987V25.492H80.0627V31H78.0467ZM88.8305 31V18.22H94.3925C94.9685 18.22 95.4965 18.34 95.9765 18.58C96.4565 18.82 96.8705 19.138 97.2185 19.534C97.5785 19.93 97.8545 20.374 98.0465 20.866C98.2505 21.358 98.3525 21.862 98.3525 22.378C98.3525 22.942 98.2505 23.482 98.0465 23.998C97.8425 24.514 97.5485 24.958 97.1645 25.33C96.7925 25.702 96.3545 25.972 95.8505 26.14L98.8565 31H96.5885L93.8165 26.554H90.8465V31H88.8305ZM90.8465 24.772H94.3745C94.7465 24.772 95.0765 24.664 95.3645 24.448C95.6525 24.232 95.8805 23.944 96.0485 23.584C96.2165 23.212 96.3005 22.81 96.3005 22.378C96.3005 21.934 96.2045 21.538 96.0125 21.19C95.8205 20.83 95.5685 20.542 95.2565 20.326C94.9565 20.11 94.6265 20.002 94.2665 20.002H90.8465V24.772ZM114.664 29.218V31H105.898V18.22H114.502V20.002H107.914V23.638H113.62V25.312H107.914V29.218H114.664ZM121.911 31V18.22H123.927V31H121.911ZM137.921 31V21.892L134.159 28.804H132.971L129.191 21.892V31H127.175V18.22H129.335L133.565 26.032L137.795 18.22H139.955V31H137.921ZM146.888 18.22H148.796L153.764 31H151.64L150.29 27.526H145.358L144.026 31H141.884L146.888 18.22ZM149.894 26.032L147.842 20.434L145.718 26.032H149.894ZM157.72 21.964V31H155.704V18.22H157.36L164.596 27.454V18.238H166.63V31H164.866L157.72 21.964Z" fill="#CEB041"/>
</svg>
