<svg width="65" height="68" viewBox="0 0 65 68" fill="none" xmlns="http://www.w3.org/2000/svg">
<path d="M59.0324 51.2174L48.6478 48.2776L47.1126 46.105C46.5752 45.3443 45.6762 44.8815 44.7075 44.8668C44.6743 44.8663 44.6414 44.8674 44.6082 44.8681V40.9658L45.3849 40.3552C46.7802 39.2581 47.7065 37.7218 47.9934 36.0298L48.1709 34.9823H49.2672C51.7314 34.9823 53.7361 33.0906 53.7361 30.7654V27.8943C53.7361 25.8297 52.1552 24.108 50.0758 23.7478L51.463 15.5655C52.0929 11.8499 50.9704 8.07689 48.3831 5.21356C45.7958 2.35022 42.0246 0.708252 38.0368 0.708252H27.0276C23.0398 0.708252 19.2687 2.35039 16.6813 5.21356C14.0938 8.07673 12.9712 11.8499 13.6014 15.5655L14.9886 23.7478C12.9093 24.1082 11.3283 25.8297 11.3283 27.8943V30.7654C11.3283 33.0906 13.333 34.9823 15.7971 34.9823H16.8934L17.071 36.0298C17.3579 37.722 18.2844 39.2581 19.6795 40.3552L20.4562 40.966V44.8678C20.4231 44.8674 20.39 44.8661 20.3568 44.8666C19.388 44.8813 18.4892 45.3442 17.9518 46.1046L16.4166 48.2776L6.03193 51.2174C2.8301 52.124 0.678925 54.8523 0.678925 58.0066V63.7832C0.679099 66.1084 2.68385 68.0001 5.14816 68.0001H59.9165C62.3807 68.0001 64.3854 66.1084 64.3854 63.7832V58.0066C64.3854 54.8523 62.2343 52.1238 59.0324 51.2174ZM44.6614 47.5581C44.7112 47.5586 44.7292 47.5842 44.7389 47.5979L46.1303 49.5674L42.6332 57.2675C42.6278 57.2793 42.615 57.3077 42.5702 57.3188C42.5252 57.33 42.4997 57.3117 42.4887 57.3039L39.0668 54.8822L44.5825 47.5957C44.5928 47.5822 44.6129 47.5563 44.6614 47.5581ZM50.8836 27.8939V30.765C50.8836 31.6061 50.1585 32.2903 49.2672 32.2903H48.6273L49.6248 26.4075C50.3445 26.5616 50.8836 27.1689 50.8836 27.8939ZM48.6462 15.1403L47.3237 22.9408L46.1254 15.6913C47.041 15.2085 47.9227 14.6817 48.7627 14.1086C48.7421 14.4523 48.7046 14.7965 48.6462 15.1403ZM15.7975 32.2903C14.9062 32.2903 14.1811 31.6061 14.1811 30.765V27.8939C14.1811 27.1689 14.7202 26.5618 15.4397 26.4076L16.4372 32.2904H15.7975V32.2903ZM16.9314 18.1681L16.418 15.1401C15.9203 12.204 16.8074 9.22232 18.852 6.95968C20.8967 4.69721 23.8767 3.39942 27.0278 3.39942H38.0369C41.188 3.39942 44.168 4.69705 46.2127 6.95968C47.2742 8.13434 48.0205 9.50344 48.4261 10.9587C44.577 14.0657 38.9611 16.2116 31.7178 17.3399C25.8889 18.2476 20.2695 18.2722 16.9314 18.1681ZM17.8657 23.6767V23.6768L17.3883 20.8617C18.0283 20.878 18.7199 20.8886 19.4564 20.8906L17.9632 23.6767H17.8657ZM19.8883 35.6043L18.322 26.3685H18.8401C19.378 26.3685 19.8703 26.0829 20.1129 25.6301L22.6792 20.8419C28.8076 20.642 36.7206 19.7516 43.4466 16.9498L44.8153 25.23C44.9238 25.8853 45.5217 26.3683 46.2246 26.3683H46.7427L45.6466 32.8334C45.3139 33.1863 41.8493 36.5967 32.5326 36.5967C31.7449 36.5967 31.1064 37.1992 31.1064 37.9425C31.1064 38.6858 31.7449 39.2883 32.5326 39.2883C38.5121 39.2883 42.4246 37.9945 44.8092 36.7452C44.5214 37.336 44.0965 37.8641 43.5591 38.2868L37.4532 43.0883C36.8904 43.5308 36.177 43.7745 35.4444 43.7745H29.621C28.8885 43.7745 28.175 43.5308 27.6122 43.0883L21.5063 38.2872C20.6411 37.6068 20.0664 36.654 19.8883 35.6043ZM20.3257 47.5979C20.3353 47.5842 20.3535 47.5588 20.4033 47.5581C20.4514 47.5563 20.4719 47.5822 20.4822 47.5956L25.9979 54.882L22.576 57.3038C22.5648 57.3115 22.5391 57.33 22.4945 57.3186C22.4499 57.3074 22.4371 57.2792 22.4315 57.2673L18.9344 49.5672L20.3257 47.5979ZM11.3286 65.3086H5.14816C4.25686 65.3084 3.53176 64.6242 3.53176 63.7832V58.0066C3.53176 57.2353 3.74186 56.5063 4.11499 55.87L10.1996 60.6547C10.9172 61.2189 11.3286 62.0479 11.3286 62.9294V65.3086ZM14.1811 65.3084V62.9291C14.1811 61.2465 13.3955 59.6636 12.0257 58.5867L6.22261 54.0231C6.42448 53.935 6.63353 53.8572 6.8522 53.7953L16.5093 51.0616L19.8093 58.3275C20.1679 59.1169 20.8779 59.6972 21.7573 59.9188C22.0113 59.9829 22.2688 60.0144 22.5244 60.0144C23.1533 60.0144 23.7693 59.8233 24.2871 59.4568L27.301 57.3237L30.474 65.3081H14.1811V65.3084ZM29.3037 54.6971C29.2996 54.6871 29.2946 54.678 29.2904 54.6681C29.2795 54.6428 29.2683 54.6177 29.2557 54.5926C29.2463 54.5738 29.2361 54.5555 29.2258 54.5373C29.2148 54.5179 29.2036 54.4984 29.1914 54.4792C29.1775 54.4571 29.1627 54.436 29.1476 54.4149C29.1412 54.4058 29.1357 54.3962 29.1287 54.3873L23.3018 46.6898C23.3064 46.6459 23.309 46.6013 23.309 46.5563V43.209L25.7856 45.1566C26.86 46.0015 28.222 46.4668 29.6205 46.4668H35.4439C36.8423 46.4668 38.2043 46.0015 39.2788 45.1566L41.7553 43.2091V46.5564C41.7553 46.6015 41.7578 46.6459 41.7625 46.69L35.9356 54.3875C35.9291 54.396 35.9239 54.4053 35.9176 54.414C35.902 54.4355 35.887 54.4574 35.8726 54.4801C35.8607 54.4989 35.8496 54.5179 35.8389 54.5372C35.8284 54.5557 35.8182 54.5742 35.8086 54.5931C35.796 54.6179 35.7848 54.643 35.7742 54.6681C35.77 54.678 35.7649 54.6871 35.7609 54.6971L32.5323 62.8211L29.3037 54.6971ZM50.8838 62.9293V65.3086H34.5907L37.7637 57.3242L40.7776 59.4573C41.2954 59.8238 41.9114 60.0149 42.5403 60.0149C42.7957 60.0149 43.0534 59.9834 43.3074 59.9193C44.1869 59.6975 44.8968 59.1174 45.2554 58.3279L48.5554 51.0619L58.2127 53.7957C58.431 53.8577 58.6402 53.9356 58.8421 54.0236L53.039 58.5872C51.6693 59.6638 50.8838 61.2467 50.8838 62.9293ZM61.5329 63.7832C61.5329 64.6242 60.8078 65.3084 59.9165 65.3084H53.7361V62.9291C53.7361 62.0478 54.1476 61.2188 54.8651 60.6544L60.9497 55.8696C61.3228 56.5058 61.5329 57.2346 61.5329 58.0063V63.7832Z" fill="black"/>
</svg>
