<?xml version="1.0" standalone="no"?>
<!DOCTYPE svg PUBLIC "-//W3C//DTD SVG 20010904//EN"
 "http://www.w3.org/TR/2001/REC-SVG-20010904/DTD/svg10.dtd">
<svg version="1.0" xmlns="http://www.w3.org/2000/svg"
 width="736.000000pt" height="736.000000pt" viewBox="0 0 736.000000 736.000000"
 preserveAspectRatio="xMidYMid meet">
<metadata>
Created by potrace 1.14, written by Peter Selinger 2001-2017
</metadata>
<g transform="translate(0.000000,736.000000) scale(0.100000,-0.100000)"
fill="#000000" stroke="none">
<path d="M3578 6946 c-81 -79 -144 -135 -232 -208 -12 -10 -34 -30 -51 -44
-30 -25 -336 -258 -371 -282 -11 -7 -53 -36 -94 -65 -64 -44 -142 -96 -370
-242 -19 -13 -82 -51 -140 -85 -146 -87 -240 -159 -350 -270 -112 -113 -117
-119 -185 -224 -133 -205 -207 -428 -220 -664 -2 -37 -1 -70 1 -74 3 -5 17 3
32 16 63 58 98 86 109 86 6 0 13 4 15 9 8 20 208 123 358 183 95 38 319 116
342 118 4 0 26 7 49 15 23 9 51 17 63 20 12 2 79 20 150 39 71 19 140 37 155
40 14 3 46 10 71 16 25 7 53 13 63 15 10 2 27 7 37 10 10 3 31 8 46 10 16 3
60 11 97 20 38 8 73 13 78 9 5 -3 9 0 9 5 0 6 3 10 8 9 6 -2 93 13 167 29 29
6 54 10 105 17 25 4 52 8 60 11 65 18 235 2 450 -45 25 -5 56 -12 70 -14 14
-2 61 -12 105 -21 44 -9 88 -19 98 -21 10 -2 26 -5 35 -8 9 -3 28 -7 42 -10
26 -4 123 -27 225 -52 33 -8 67 -17 75 -19 8 -2 15 -4 15 -5 0 -1 7 -3 17 -5
36 -7 210 -59 333 -100 203 -67 308 -113 523 -225 23 -12 42 -26 42 -31 0 -5
5 -9 11 -9 13 0 98 -67 122 -98 10 -12 22 -20 27 -17 16 10 2 180 -25 295 -29
122 -33 135 -60 200 -90 218 -222 403 -385 541 -29 24 -58 49 -64 54 -6 6 -33
26 -61 45 -27 19 -51 38 -53 43 -2 4 -8 7 -14 7 -5 0 -28 12 -51 28 -52 33
-67 42 -137 84 -30 17 -56 35 -58 40 -2 4 -8 8 -14 8 -5 0 -29 14 -53 30 -24
17 -48 30 -53 30 -6 0 -12 3 -14 8 -1 4 -50 38 -108 76 -58 39 -130 88 -162
110 -31 23 -66 48 -78 56 -19 13 -58 42 -105 77 -6 5 -37 28 -70 52 -33 25
-62 47 -65 50 -3 4 -39 33 -80 65 -41 33 -82 67 -91 75 -9 9 -45 41 -80 71
-35 30 -98 89 -140 131 l-77 76 -94 -91z"/>
<path d="M3628 5175 c-1 -2 -19 -6 -38 -9 -69 -11 -95 -16 -120 -22 -14 -3
-36 -8 -50 -10 -14 -2 -36 -7 -50 -10 -14 -3 -38 -8 -55 -11 -203 -33 -858
-204 -970 -253 -11 -5 -63 -25 -115 -45 -196 -76 -335 -167 -376 -247 -16 -30
-17 -102 -17 -885 0 -469 2 -856 6 -859 8 -8 169 22 238 44 l54 17 2 634 c1
575 3 638 19 680 25 66 65 114 158 183 44 34 110 90 146 124 l65 63 65 -63
c36 -34 101 -89 145 -122 86 -64 94 -71 129 -124 49 -75 49 -73 49 -753 l0
-639 22 -8 c12 -4 37 -11 56 -14 37 -6 60 -12 184 -46 43 -12 83 -23 87 -26 4
-3 9 365 11 818 2 453 6 829 7 836 2 6 7 12 12 12 4 0 8 6 8 13 0 28 55 90
133 149 93 71 135 107 187 161 l36 37 71 -67 c39 -38 96 -86 128 -108 85 -59
135 -113 164 -175 l26 -55 0 -812 c0 -447 3 -815 7 -818 3 -3 32 3 64 14 33
11 77 25 99 30 22 5 74 18 115 28 l74 18 1 660 c0 632 1 662 20 700 31 63 76
113 144 160 54 37 85 63 163 137 l60 57 63 -62 c34 -34 91 -82 125 -107 91
-65 148 -125 173 -178 21 -46 21 -57 24 -662 1 -338 2 -626 2 -640 1 -23 8
-28 64 -44 87 -25 198 -48 241 -50 19 -1 20 15 21 849 0 554 -3 859 -10 876
-17 45 -123 149 -152 150 -5 0 -15 6 -23 14 -14 11 -78 48 -90 50 -3 1 -23 9
-45 19 -160 71 -476 174 -675 221 -8 2 -62 15 -120 29 -58 14 -116 27 -130 30
-14 3 -68 14 -120 26 -52 11 -105 22 -118 25 -12 2 -30 6 -40 9 -9 3 -34 8
-56 10 -21 3 -46 8 -55 10 -9 3 -33 7 -55 11 -21 3 -42 7 -46 10 -10 6 -137
15 -142 10z"/>
<path d="M974 4667 c-20 -21 -74 -67 -80 -67 -3 0 -13 -8 -22 -17 -9 -9 -51
-38 -92 -65 -142 -91 -157 -106 -192 -177 -12 -25 -23 -48 -23 -51 -1 -3 -4
-19 -8 -35 -12 -48 -16 -105 -7 -105 4 0 18 8 31 18 26 20 138 67 179 76 14 3
59 12 100 22 89 20 164 25 199 13 14 -4 40 -10 56 -13 82 -13 191 -49 260 -85
28 -14 53 -27 56 -29 10 -5 -1 79 -17 130 -20 67 -60 129 -101 158 -19 14 -40
30 -46 36 -7 5 -19 13 -27 16 -25 9 -173 118 -210 154 -40 38 -41 38 -56 21z"/>
<path d="M6315 4634 c-48 -44 -217 -164 -230 -164 -8 0 -31 -20 -58 -49 -12
-13 -28 -30 -35 -37 -19 -20 -51 -101 -58 -147 -3 -23 -7 -52 -9 -64 -2 -13
-2 -23 -1 -23 2 0 23 11 47 24 44 25 142 64 176 70 10 3 47 11 83 19 75 17 89
19 150 19 96 1 314 -59 391 -108 21 -13 41 -24 43 -24 5 0 -1 63 -8 95 -18 77
-52 143 -90 179 -12 10 -64 46 -116 81 -53 34 -126 87 -163 118 -36 32 -68 57
-69 57 -2 -1 -25 -21 -53 -46z"/>
<path d="M875 4019 c-66 -15 -146 -37 -178 -49 -104 -39 -94 44 -94 -805 l0
-745 38 0 c21 0 44 6 51 13 81 79 290 173 541 241 70 20 131 37 136 40 10 7 8
1186 -3 1209 -4 9 -14 17 -22 17 -8 0 -14 5 -14 10 0 5 -3 9 -7 8 -5 -1 -24 4
-43 11 -19 8 -38 15 -42 16 -5 1 -9 3 -10 5 -4 2 -24 7 -62 15 -16 3 -33 8
-38 11 -5 3 -29 7 -54 10 -25 2 -53 8 -63 13 -10 5 -63 -3 -136 -20z"/>
<path d="M6315 4034 c-96 -24 -143 -36 -160 -40 -36 -7 -129 -45 -150 -60 -20
-15 -20 -27 -21 -618 l-1 -603 51 -12 c28 -7 62 -17 76 -22 14 -5 34 -10 45
-12 11 -2 27 -7 35 -10 8 -3 33 -11 55 -17 22 -6 49 -15 60 -20 11 -4 58 -23
105 -41 89 -34 205 -98 247 -136 16 -16 37 -23 62 -23 l38 0 -1 752 -1 752
-55 28 c-100 50 -324 97 -385 82z"/>
<path d="M2438 2615 c-1 -2 -37 -4 -78 -6 -41 -1 -79 -5 -85 -8 -5 -3 -16 -6
-25 -7 -34 -4 -70 -13 -87 -23 -17 -9 -17 -10 2 -9 48 1 227 -16 275 -27 14
-3 39 -7 55 -10 25 -5 66 -13 98 -21 4 -1 8 -2 10 -4 1 -1 11 -3 22 -4 20 -3
91 -17 110 -22 46 -13 135 -35 164 -40 14 -3 28 -7 33 -10 4 -3 51 -16 104
-30 53 -14 115 -32 139 -39 23 -8 50 -16 61 -18 25 -5 164 -46 189 -56 11 -5
65 -22 120 -39 l100 -30 -1 -39 c-1 -34 -8 -135 -19 -278 -2 -27 -7 -95 -11
-150 -3 -55 -8 -116 -9 -135 -1 -19 -6 -80 -10 -135 -3 -55 -8 -120 -10 -145
-2 -25 -7 -90 -10 -145 -4 -55 -8 -101 -10 -103 -2 -3 -267 191 -330 241 -5 4
-50 37 -100 73 -49 35 -97 70 -106 77 -8 6 -23 17 -32 22 -26 16 -281 194
-294 205 -7 5 -16 10 -22 10 -5 0 -11 3 -13 8 -3 8 -204 138 -333 217 -44 26
-90 54 -102 62 -13 7 -26 13 -29 12 -4 0 -10 3 -13 8 -6 8 -25 19 -134 77 -59
31 -98 49 -232 106 -20 8 -58 21 -62 21 -2 0 -17 5 -35 10 -64 20 -104 30
-143 35 -34 4 -64 9 -85 14 -6 1 69 38 131 64 24 10 68 30 98 43 30 14 61 26
68 27 7 1 19 8 25 14 7 7 18 12 25 12 7 0 21 4 31 9 9 5 33 16 52 24 19 8 60
26 90 39 30 14 62 28 70 32 16 7 -59 0 -100 -9 -14 -3 -36 -8 -50 -10 -14 -2
-59 -11 -100 -20 -41 -9 -86 -18 -100 -21 -14 -2 -56 -11 -95 -20 -38 -9 -78
-17 -87 -19 -132 -27 -441 -122 -522 -160 -29 -14 -58 -25 -64 -25 -7 0 -12
-4 -12 -10 0 -5 -5 -10 -10 -10 -12 0 -70 -50 -70 -61 0 -4 60 -37 133 -72
200 -98 496 -242 647 -314 74 -36 209 -101 300 -146 407 -197 552 -267 557
-267 3 0 18 -9 34 -21 16 -11 29 -18 29 -15 0 2 63 -27 140 -65 77 -38 200
-98 273 -133 321 -155 449 -217 556 -270 63 -31 122 -56 131 -56 9 0 68 26
131 57 62 31 116 57 119 58 3 0 72 33 153 73 82 40 151 72 154 72 3 0 17 9 31
19 15 10 30 19 35 20 9 0 94 41 392 186 437 213 566 275 576 275 5 0 9 5 9 10
0 6 4 9 8 8 7 -3 163 70 202 93 8 5 24 13 35 18 11 5 97 46 190 91 94 45 240
116 325 157 85 42 199 97 253 124 53 26 97 45 97 42 0 -3 8 0 18 9 9 8 29 19
45 26 15 6 27 16 27 21 0 13 -71 71 -87 71 -7 0 -13 5 -13 10 0 6 -8 10 -18
10 -10 0 -22 4 -27 9 -17 17 -283 105 -395 131 -19 5 -53 13 -75 19 -33 9
-158 37 -250 56 -11 3 -33 8 -50 12 -16 4 -32 7 -35 8 -12 2 -96 16 -102 16
-4 0 -22 5 -40 10 -18 5 -55 12 -83 14 l-50 5 70 -30 c39 -17 84 -37 100 -44
164 -75 454 -197 476 -201 35 -7 35 -15 1 -16 -18 -1 -35 -2 -39 -3 -5 -1 -30
-5 -58 -10 -63 -9 -256 -64 -271 -77 -6 -5 -23 -10 -38 -11 -14 -1 -26 -5 -26
-9 0 -4 -15 -12 -32 -19 -50 -19 -173 -81 -268 -135 -121 -68 -304 -177 -310
-185 -3 -4 -16 -13 -30 -20 -14 -7 -65 -39 -114 -71 -48 -33 -92 -59 -96 -59
-5 0 -10 -3 -12 -8 -1 -4 -46 -36 -98 -71 -236 -160 -354 -242 -358 -253 -2
-5 -10 -8 -18 -8 -8 0 -14 -4 -14 -10 0 -5 -5 -10 -11 -10 -6 0 -17 -6 -24
-12 -21 -19 -32 -28 -130 -97 -49 -36 -103 -75 -119 -88 -16 -13 -33 -20 -37
-16 -5 5 -11 47 -14 93 -3 47 -7 114 -10 150 -3 36 -7 101 -10 145 -4 44 -8
103 -10 130 -2 28 -6 88 -9 135 -4 47 -8 112 -11 145 -2 33 -7 103 -11 155 -3
52 -7 112 -9 132 l-2 38 111 36 c61 20 118 37 126 39 8 2 67 19 130 38 96 30
323 94 395 112 79 20 416 96 445 99 19 3 46 7 59 10 37 8 131 18 174 18 43 0
49 15 10 23 -16 4 -39 9 -53 12 -52 12 -271 17 -345 9 -88 -11 -133 -17 -155
-21 -67 -13 -87 -16 -112 -20 -15 -2 -46 -9 -70 -16 -24 -6 -52 -13 -64 -15
-11 -2 -49 -13 -84 -24 -35 -11 -76 -22 -90 -25 -15 -3 -44 -12 -66 -21 -21
-9 -48 -18 -59 -20 -11 -2 -67 -22 -125 -45 -58 -22 -109 -41 -115 -43 -5 -1
-28 -10 -50 -20 -51 -23 -120 -32 -148 -18 -48 22 -97 41 -197 77 -58 21 -114
41 -125 46 -19 8 -244 77 -275 84 -8 2 -46 11 -85 20 -82 20 -92 22 -165 34
-105 19 -125 21 -220 27 -52 3 -100 7 -107 9 -6 2 -13 2 -15 0z"/>
<path d="M5 2043 c2 -28 21 -102 35 -138 28 -72 47 -115 67 -147 13 -21 23
-42 23 -48 0 -5 4 -10 8 -10 4 0 16 -15 27 -32 50 -88 228 -233 350 -287 39
-17 1126 -385 1170 -396 6 -1 17 -5 25 -8 18 -7 1161 -388 1175 -392 6 -1 17
-5 25 -8 8 -3 58 -20 110 -37 52 -17 101 -33 108 -35 7 -3 16 -5 20 -6 4 -1
30 -10 57 -21 28 -11 51 -19 52 -19 2 0 8 -1 15 -4 7 -2 102 -34 210 -70 l197
-66 348 117 c191 63 355 117 363 119 8 3 292 97 630 211 338 114 621 207 628
207 6 0 12 5 12 10 0 6 3 8 6 4 5 -5 58 10 104 30 8 3 20 7 25 8 80 19 1032
347 1091 376 96 48 208 140 281 229 51 63 144 230 156 280 3 14 13 52 21 84 8
33 13 63 10 67 -4 7 -124 -40 -199 -77 -16 -9 -37 -17 -45 -19 -12 -3 -441
-185 -505 -215 -11 -5 -42 -18 -70 -30 -27 -12 -59 -25 -70 -30 -11 -5 -84
-36 -162 -70 -167 -70 -231 -98 -255 -111 -10 -5 -25 -9 -33 -9 -8 0 -15 -5
-15 -11 0 -5 -4 -8 -8 -5 -5 3 -22 -2 -38 -10 -16 -8 -83 -38 -149 -66 -66
-27 -140 -59 -164 -70 -24 -11 -107 -46 -185 -79 -78 -33 -160 -69 -184 -80
-24 -11 -77 -33 -118 -49 -40 -16 -82 -34 -91 -39 -18 -10 -403 -175 -413
-177 -6 -1 -64 -26 -139 -60 -29 -13 -59 -24 -66 -24 -7 0 -18 -7 -25 -15 -7
-8 -19 -15 -27 -15 -8 0 -38 -11 -66 -24 -29 -13 -171 -74 -317 -135 -146 -62
-277 -119 -293 -127 -25 -14 -32 -14 -80 5 -28 10 -74 30 -102 42 -27 13 -52
24 -55 24 -3 1 -21 8 -40 17 -19 8 -64 27 -100 42 -36 15 -78 33 -95 41 -16 7
-127 54 -245 105 -118 51 -231 99 -250 107 -60 26 -89 39 -335 143 -132 56
-258 110 -280 120 -22 10 -69 30 -105 45 -36 15 -81 35 -100 43 -19 9 -37 16
-40 16 -3 1 -34 14 -70 31 -36 16 -67 30 -70 30 -3 1 -22 9 -44 18 -21 9 -40
17 -43 17 -2 0 -30 13 -61 28 -31 16 -61 29 -65 29 -4 0 -49 19 -100 41 -51
23 -200 87 -332 143 -132 56 -258 109 -280 119 -22 10 -101 44 -175 75 -74 32
-153 65 -175 75 -22 10 -69 30 -105 45 -36 15 -83 35 -105 45 -22 10 -69 30
-105 45 -36 15 -84 36 -107 46 -54 24 -51 24 -48 -8z"/>
</g>
</svg>
