<?xml version="1.0" standalone="no"?>
<!DOCTYPE svg PUBLIC "-//W3C//DTD SVG 20010904//EN"
 "http://www.w3.org/TR/2001/REC-SVG-20010904/DTD/svg10.dtd">
<svg version="1.0" xmlns="http://www.w3.org/2000/svg"
 width="260.000000pt" height="260.000000pt" viewBox="0 0 260.000000 260.000000"
 preserveAspectRatio="xMidYMid meet">
<metadata>
Created by potrace 1.14, written by Peter Selinger 2001-2017
</metadata>
<g transform="translate(0.000000,260.000000) scale(0.100000,-0.100000)"
fill="#000000" stroke="none">
<path d="M1266 2588 c3 -5 11 -6 17 -2 7 3 3 -2 -7 -10 -11 -9 -16 -16 -12
-16 5 0 3 -6 -4 -14 -6 -8 -18 -12 -26 -9 -10 4 -12 0 -8 -11 4 -11 1 -16 -10
-16 -9 0 -16 -4 -16 -10 0 -5 -7 -10 -16 -10 -11 0 -14 -5 -10 -16 5 -14 4
-15 -8 -5 -16 14 -25 4 -21 -22 2 -9 0 -15 -5 -12 -4 3 -10 -2 -13 -10 -4 -8
-15 -12 -26 -10 -13 2 -18 -1 -15 -9 3 -7 -2 -19 -10 -26 -9 -7 -13 -17 -9
-23 4 -6 1 -7 -6 -3 -9 6 -8 12 4 26 11 12 13 20 6 25 -11 6 -12 5 -15 -17 -1
-7 -7 -12 -14 -11 -6 2 -9 -4 -6 -12 4 -8 2 -15 -4 -15 -6 0 -13 6 -15 13 -3
6 -6 1 -6 -12 -1 -17 -5 -22 -17 -17 -12 5 -15 2 -10 -10 6 -15 4 -15 -10 -3
-16 13 -16 12 -5 -9 12 -22 11 -23 -10 -12 -19 11 -21 10 -15 -5 5 -15 4 -16
-8 -6 -10 8 -16 9 -21 1 -3 -6 -10 -8 -15 -5 -5 3 -12 0 -16 -6 -4 -7 -3 -9 3
-6 6 4 16 0 23 -8 11 -13 10 -14 -5 -9 -14 6 -16 4 -10 -6 5 -9 4 -11 -4 -6
-6 4 -14 0 -17 -8 -3 -9 -11 -16 -17 -16 -7 0 -7 4 1 12 7 7 12 16 12 22 0 5
-8 0 -17 -10 -10 -11 -25 -19 -33 -19 -22 2 -31 -5 -24 -16 4 -6 11 -6 19 1
10 8 15 8 21 -1 4 -8 3 -9 -4 -5 -7 4 -12 3 -12 -2 0 -6 -16 -13 -35 -16 -20
-4 -34 -10 -32 -14 5 -10 -30 -42 -38 -34 -3 4 -3 -1 0 -9 7 -18 -14 -39 -42
-43 -10 -2 -19 -12 -19 -24 -2 -34 -3 -35 -21 -21 -14 11 -15 11 -9 1 5 -9 0
-25 -13 -43 -12 -16 -17 -29 -11 -29 5 0 10 -7 10 -15 0 -8 -5 -15 -11 -15 -5
0 -7 6 -3 13 5 8 2 7 -9 -2 -10 -8 -15 -16 -13 -19 3 -2 0 -14 -6 -26 -10 -19
-10 -20 6 -7 14 12 16 12 10 -3 -3 -9 -11 -16 -16 -16 -6 0 -5 -6 2 -15 10
-12 9 -16 -5 -21 -13 -6 -14 -9 -3 -16 10 -8 10 -11 0 -15 -6 -2 -10 -9 -6
-14 3 -5 0 -9 -6 -9 -6 0 2 -11 18 -25 17 -14 33 -25 38 -25 4 0 -1 7 -12 15
-16 13 -16 14 -2 9 11 -4 18 -1 18 6 0 6 4 9 9 5 5 -3 12 -1 16 5 4 6 12 7 18
4 7 -4 9 -4 5 1 -12 13 12 35 29 28 10 -4 14 -2 10 3 -3 6 7 18 23 27 17 11
31 13 35 8 3 -6 12 -8 20 -5 8 4 12 10 9 15 -3 5 5 5 19 0 15 -6 28 -6 34 0 6
6 19 11 31 12 24 1 19 12 -6 12 -9 0 -23 -7 -30 -15 -11 -13 -12 -12 -3 5 5
11 18 20 28 20 10 0 17 6 15 15 -1 10 2 9 13 -4 13 -17 17 -18 28 -6 9 10 9
12 0 6 -7 -4 -13 -5 -13 -2 0 3 10 10 22 17 18 10 20 9 15 -5 -4 -9 -2 -16 3
-16 6 0 10 4 10 9 0 6 9 8 20 6 13 -2 23 2 27 12 6 14 7 14 14 -3 7 -17 8 -17
8 -1 1 9 6 17 12 17 5 0 8 4 4 9 -3 5 -1 12 4 15 10 7 9 -20 -2 -30 -16 -17
-5 -22 11 -6 11 9 17 21 14 26 -3 5 0 6 7 2 23 -15 60 -14 54 1 -4 10 -9 11
-18 3 -9 -7 -16 -5 -26 7 -11 15 -11 16 1 6 11 -10 18 -9 34 5 11 9 16 12 13
6 -10 -17 19 -39 29 -23 5 8 3 9 -6 4 -9 -5 -11 -4 -6 4 5 7 16 9 28 5 16 -5
19 -3 13 7 -5 8 2 5 14 -5 18 -16 21 -17 16 -3 -6 13 -2 15 20 11 15 -3 24 -1
21 5 -7 10 28 8 58 -5 15 -6 18 -4 12 7 -4 8 0 5 8 -5 15 -18 21 -15 17 8 -1
5 5 4 13 -3 9 -7 13 -18 10 -23 -4 -6 6 -2 22 8 15 11 25 14 21 8 -4 -7 1 -14
13 -17 11 -3 18 -2 16 1 -2 4 7 7 20 7 13 0 24 -6 24 -12 0 -7 5 -13 11 -13 5
0 8 4 5 9 -4 5 5 4 18 -2 17 -8 21 -14 13 -20 -7 -5 -2 -5 12 -2 16 5 21 4 17
-4 -5 -7 -1 -8 10 -4 13 5 15 3 10 -8 -4 -8 0 -5 8 5 16 20 16 20 16 0 1 -19
1 -19 17 1 11 14 14 15 10 4 -4 -13 2 -17 26 -18 61 -1 67 -2 67 -12 0 -5 -5
-9 -11 -9 -5 0 -7 -5 -3 -11 4 -8 12 -3 20 12 7 13 13 18 14 12 0 -7 6 -13 13
-13 18 0 68 -46 59 -55 -4 -5 -1 -5 6 -1 11 6 11 11 0 24 -12 15 -11 16 5 3
16 -13 20 -13 28 0 5 8 9 9 9 4 0 -6 -6 -17 -12 -24 -11 -11 -9 -11 10 -2 17
9 22 9 22 0 0 -8 5 -8 18 2 14 11 15 11 5 -1 -17 -19 -16 -31 1 -24 8 3 17 0
22 -7 4 -7 3 -10 -4 -5 -6 3 -13 2 -17 -3 -3 -6 3 -8 15 -6 11 2 20 -1 20 -6
0 -6 5 -7 10 -4 10 6 15 -9 10 -30 -1 -5 2 -7 6 -2 4 4 18 0 31 -8 13 -9 23
-11 23 -5 0 5 -4 10 -8 10 -5 0 -17 7 -28 16 -10 8 -13 13 -6 9 21 -11 69 -17
53 -6 -7 5 -10 14 -6 20 4 7 1 18 -5 26 -10 12 -9 15 4 15 10 0 14 5 11 10 -4
6 -10 8 -14 6 -4 -3 -5 9 -3 26 4 24 2 29 -9 23 -12 -7 -12 -6 -1 7 10 12 10
18 1 23 -8 6 -7 10 2 17 11 7 9 8 -4 4 -25 -8 -44 4 -26 15 11 7 10 9 -4 9
-15 0 -16 3 -7 20 8 14 8 20 0 20 -6 0 -9 4 -6 9 3 5 -1 14 -9 21 -9 8 -15 8
-15 2 0 -6 6 -13 13 -15 9 -4 9 -6 0 -6 -6 -1 -15 5 -20 12 -8 12 -9 17 -12
38 0 5 -5 8 -10 4 -5 -3 -12 4 -16 15 -4 11 -10 18 -15 15 -5 -3 -12 0 -16 6
-4 8 -3 9 4 5 7 -4 12 -2 12 3 0 6 -4 12 -10 12 -5 1 -16 2 -22 3 -8 1 -12 11
-10 26 3 19 1 22 -10 13 -10 -8 -18 -9 -28 -1 -12 8 -12 9 3 4 9 -3 17 -1 17
4 0 6 -12 10 -26 10 -21 0 -24 4 -19 20 4 12 2 20 -5 20 -6 0 -8 -4 -5 -10 3
-5 -1 -10 -10 -10 -12 0 -15 6 -11 23 3 12 3 16 0 10 -3 -7 -15 -13 -27 -13
-18 0 -19 2 -7 10 12 8 11 10 -6 10 -21 0 -44 17 -44 34 0 5 7 1 16 -10 15
-18 15 -18 5 2 -7 15 -18 20 -36 18 -23 -2 -24 0 -13 13 12 15 11 15 -9 4 -19
-10 -23 -9 -23 4 0 9 4 14 8 11 5 -3 9 2 9 10 0 10 -4 11 -11 4 -15 -15 -26
-12 -26 6 0 8 -5 12 -10 9 -6 -4 -7 -12 -4 -18 4 -7 -6 1 -21 17 -20 20 -24
30 -16 36 10 5 9 9 -2 13 -8 3 -20 0 -26 -6 -9 -9 -13 -6 -17 11 -4 12 -10 19
-15 16 -5 -3 -9 4 -9 16 0 15 -8 22 -30 27 -17 3 -33 10 -37 16 -3 5 -1 7 5 3
6 -3 14 -2 17 4 4 6 1 9 -7 8 -7 -2 -12 2 -11 9 2 7 -4 10 -11 7 -9 -3 -12
-13 -9 -22 4 -9 3 -14 -1 -11 -7 6 -17 42 -18 66 -1 9 -5 10 -13 3 -9 -8 -14
-6 -19 5 -6 18 -36 20 -36 3 0 -6 -3 -9 -6 -5 -6 6 6 33 18 39 4 2 13 -6 21
-16 12 -17 14 -17 20 -3 3 9 3 16 -1 16 -4 -1 -9 0 -12 1 -15 7 -78 5 -74 -2z
m191 -148 c3 -10 2 -11 -4 -4 -4 6 -15 14 -23 17 -11 5 -9 6 4 4 11 -1 21 -9
23 -17z m-657 -270 c-8 -5 -19 -10 -25 -10 -5 0 -3 5 5 10 8 5 20 10 25 10 6
0 3 -5 -5 -10z m-122 -115 c-3 -3 -9 2 -12 12 -6 14 -5 15 5 6 7 -7 10 -15 7
-18z m-51 -87 c2 -18 0 -20 -7 -8 -12 18 -13 30 -2 30 4 0 9 -10 9 -22z m1387
-47 c4 -5 -3 -7 -14 -4 -23 6 -26 13 -6 13 8 0 17 -4 20 -9z m-1246 -66 c-3
-3 -9 2 -12 12 -6 14 -5 15 5 6 7 -7 10 -15 7 -18z m-188 -75 c0 -5 -2 -10 -4
-10 -3 0 -8 5 -11 10 -3 6 -1 10 4 10 6 0 11 -4 11 -10z"/>
<path d="M1240 2549 c0 -5 5 -7 10 -4 6 3 10 8 10 11 0 2 -4 4 -10 4 -5 0 -10
-5 -10 -11z"/>
<path d="M1501 2414 c0 -11 3 -14 6 -6 3 7 2 16 -1 19 -3 4 -6 -2 -5 -13z"/>
<path d="M690 2109 c0 -5 5 -7 10 -4 6 3 10 8 10 11 0 2 -4 4 -10 4 -5 0 -10
-5 -10 -11z"/>
<path d="M1500 1940 c-9 -6 -10 -10 -3 -10 6 0 15 5 18 10 8 12 4 12 -15 0z"/>
<path d="M1244 1878 c-3 -5 -10 -6 -15 -2 -5 3 -9 2 -8 -3 3 -20 -2 -27 -11
-13 -6 9 -13 11 -17 5 -12 -16 -47 -19 -37 -3 6 10 5 10 -9 0 -9 -8 -22 -10
-28 -6 -9 5 -10 2 -5 -12 4 -10 4 -15 0 -11 -4 4 -14 1 -22 -6 -11 -8 -14 -8
-9 0 4 6 3 14 -3 18 -5 3 -10 0 -10 -7 0 -21 -56 -48 -69 -35 -9 9 -14 8 -20
-2 -7 -11 -9 -11 -14 0 -4 11 -7 12 -18 2 -16 -16 -33 -17 -23 -1 4 7 3 8 -4
4 -7 -4 -12 -14 -12 -22 0 -8 -4 -13 -9 -9 -5 3 -17 -2 -25 -11 -9 -8 -16 -11
-16 -6 0 5 10 17 23 26 22 16 22 16 -5 4 -24 -10 -32 -24 -30 -49 1 -3 -6 -6
-14 -6 -10 0 -11 4 -4 11 5 5 10 14 10 19 0 5 -7 1 -16 -8 -9 -9 -23 -14 -31
-11 -8 3 -12 2 -9 -3 9 -14 -20 -21 -33 -8 -8 8 -11 7 -11 -6 0 -10 -15 -23
-35 -31 -19 -8 -35 -18 -35 -21 0 -3 6 -3 13 1 9 6 9 5 0 -8 -7 -8 -12 -17
-10 -19 1 -2 -4 3 -12 11 -12 13 -13 13 -6 -5 16 -45 14 -53 -8 -47 -19 5 -19
4 -6 -10 7 -9 18 -13 23 -10 5 3 6 0 2 -7 -6 -9 -11 -9 -23 1 -15 12 -15 11
-3 -9 8 -12 19 -19 25 -15 7 4 6 1 -1 -9 -15 -20 -16 -61 -1 -53 8 5 8 3 0 -7
-16 -16 -17 -33 -1 -23 7 4 8 3 4 -5 -9 -14 -29 -3 -23 13 3 7 -1 13 -8 13
-11 0 -12 -5 -2 -21 6 -12 10 -24 9 -28 -1 -4 6 -5 16 -2 10 4 13 3 6 -3 -14
-11 -16 -95 -1 -86 6 4 7 1 2 -7 -6 -10 -13 -7 -27 11 l-19 24 12 -25 c7 -14
12 -28 11 -32 -1 -4 6 -5 16 -2 10 4 13 3 6 -3 -14 -11 -16 -95 -1 -86 6 4 7
1 2 -7 -6 -10 -13 -7 -27 11 l-19 24 12 -25 c7 -14 12 -28 11 -32 -1 -4 6 -5
16 -2 10 4 13 3 6 -3 -14 -11 -16 -95 -1 -86 6 4 7 1 2 -7 -6 -10 -13 -7 -27
11 l-19 24 12 -25 c7 -14 12 -28 11 -32 -1 -4 4 -6 11 -4 6 1 9 1 4 -1 -4 -3
-5 -9 -2 -13 3 -5 -4 -14 -15 -20 -11 -6 -20 -16 -19 -23 0 -9 2 -9 6 1 7 18
21 15 28 -8 3 -11 11 -20 16 -20 6 0 7 5 4 10 -3 6 -2 10 4 10 5 0 11 -6 14
-12 3 -10 10 -10 28 1 22 13 23 13 11 -2 -10 -12 -10 -17 -1 -23 7 -4 9 -3 5
4 -3 6 -1 14 5 17 5 4 8 13 5 21 -3 8 -1 14 3 14 5 0 12 -6 14 -12 4 -8 6 -9
6 -2 1 6 -5 17 -13 24 -17 13 -10 43 8 33 6 -3 8 -3 4 2 -4 4 -2 15 5 23 10
13 9 14 -10 3 -13 -6 -23 -8 -23 -3 0 5 10 14 23 20 12 6 16 11 9 11 -7 1 -10
6 -6 13 4 7 3 8 -5 4 -6 -4 -8 -12 -5 -18 4 -7 2 -8 -4 -4 -9 5 -9 13 -2 26 8
14 6 21 -6 28 -15 8 -15 10 0 15 11 5 15 3 10 -5 -4 -7 -3 -8 4 -4 7 4 12 2
12 -5 0 -7 3 -10 6 -6 3 3 2 12 -2 19 -5 7 -9 16 -9 20 0 3 -4 10 -9 15 -5 4
-7 3 -3 -3 3 -6 0 -11 -8 -11 -11 0 -12 4 -4 13 6 7 7 19 3 26 -4 7 3 4 16 -7
l23 -20 -14 23 c-8 12 -17 22 -21 22 -4 0 -5 7 -1 16 5 14 9 12 20 -10 7 -14
16 -26 19 -26 3 0 -6 20 -20 44 -23 40 -24 46 -11 59 10 11 11 17 3 19 -13 5
-20 38 -8 38 15 0 21 -18 8 -23 -9 -4 -10 -6 -1 -6 20 -2 24 16 8 32 -18 19
-20 31 -2 21 6 -4 9 -4 5 1 -4 4 -2 15 5 23 11 13 9 14 -13 2 -23 -12 -24 -12
-11 3 11 14 11 20 1 33 -11 12 -11 15 1 12 8 -2 13 3 11 10 -1 8 2 11 8 7 8
-5 7 -11 -1 -21 -7 -8 -7 -14 -1 -14 12 0 24 29 16 41 -3 5 0 9 5 9 6 0 10 5
9 12 -4 15 24 18 34 3 5 -6 8 -5 8 3 0 7 -7 15 -16 19 -13 5 -13 7 -2 14 7 5
18 9 23 9 6 0 3 -5 -5 -10 -8 -5 -10 -10 -4 -10 19 0 24 13 12 29 -7 9 -9 13
-4 9 4 -4 19 -2 33 3 28 11 58 -5 46 -25 -4 -6 1 -5 10 3 15 12 17 11 17 -3 0
-9 5 -16 10 -16 6 0 10 -5 10 -11 0 -5 -6 -7 -12 -3 -7 4 -5 -2 6 -14 15 -17
22 -19 38 -11 18 10 18 9 8 -11 -9 -18 -9 -21 0 -15 9 5 10 1 5 -15 -6 -17 -4
-21 6 -14 10 6 10 3 -1 -11 -12 -15 -12 -17 -1 -10 11 6 13 4 8 -10 -4 -9 -2
-25 5 -33 10 -12 10 -14 1 -8 -7 4 -14 2 -14 -3 -1 -6 -2 -17 -3 -23 -4 -21
14 -49 26 -42 7 4 8 2 4 -5 -4 -6 -17 -9 -29 -6 -12 2 -16 2 -9 -1 6 -3 9 -11
5 -17 -4 -7 0 -8 11 -4 10 4 15 3 11 -4 -4 -5 -1 -18 6 -27 12 -15 12 -15 -7
1 -17 14 -21 14 -21 2 0 -8 6 -16 13 -19 10 -4 11 -12 3 -34 -7 -19 -6 -38 1
-56 9 -23 8 -27 -4 -23 -18 7 -14 -27 6 -50 11 -14 10 -15 -12 -10 -14 4 -19
4 -12 1 6 -3 9 -10 6 -16 -4 -6 2 -8 17 -3 17 4 20 3 10 -3 -8 -6 -10 -15 -5
-23 6 -11 5 -12 -7 -2 -13 10 -16 10 -16 -2 0 -8 4 -15 9 -15 4 0 8 -11 8 -25
0 -14 4 -25 9 -25 5 0 8 8 6 18 -1 9 0 11 2 4 3 -7 12 -11 21 -10 11 2 17 -4
17 -17 1 -11 6 -19 13 -18 7 2 12 -2 12 -8 0 -5 5 -7 11 -4 6 5 4 12 -8 20
-10 7 -15 17 -10 21 4 4 7 2 7 -4 0 -7 6 -12 14 -12 8 0 16 -3 19 -7 2 -5 2
-3 1 4 -2 6 2 13 9 16 9 3 9 10 -1 32 -11 24 -11 27 0 17 10 -7 18 -8 28 0 13
8 12 9 -2 5 -9 -3 -19 1 -22 9 -7 19 17 57 29 46 5 -4 4 0 -1 8 -13 22 -14 40
-1 40 5 0 8 3 5 6 -4 3 -17 0 -30 -7 -21 -11 -22 -11 -10 4 8 9 10 22 6 28 -4
8 -3 9 4 5 7 -4 12 -2 12 3 0 6 -4 11 -9 11 -6 0 -9 8 -9 18 0 9 -1 22 -3 27
-2 6 1 11 6 13 6 1 10 -1 10 -5 0 -5 4 -13 8 -20 4 -6 2 -13 -5 -15 -8 -3 -6
-6 4 -10 11 -5 15 -2 13 10 -2 9 -4 17 -5 17 -1 0 -3 17 -5 38 -2 23 0 35 7
31 5 -3 4 3 -3 14 -7 12 -16 19 -19 17 -4 -2 -7 1 -7 8 0 7 -2 17 -4 22 -2 6
1 11 6 12 6 1 9 -6 8 -15 -1 -10 0 -11 3 -4 3 6 11 9 17 5 9 -5 9 -3 1 8 -14
17 -14 49 -1 49 6 0 5 5 -1 13 -6 6 -10 14 -10 17 0 26 -16 59 -26 53 -6 -4
-5 1 3 10 7 9 10 17 6 17 -5 0 0 9 10 20 10 11 14 20 9 20 -5 0 -2 5 6 11 13
9 12 10 -2 5 -10 -3 -18 -1 -18 4 0 6 7 10 15 10 8 0 15 5 15 11 0 5 -4 8 -8
5 -4 -2 -14 0 -22 5 -13 9 -13 10 0 6 8 -2 21 5 28 17 9 14 12 15 8 4 -3 -10
-1 -20 3 -23 5 -3 8 8 7 24 -2 23 2 28 19 26 30 -2 48 14 34 31 -8 10 -8 14
-1 14 6 0 14 -5 17 -10 5 -8 11 -7 21 1 7 6 11 16 7 22 -3 5 -1 7 5 4 5 -4 8
-16 5 -26 -3 -10 0 -22 6 -25 6 -4 9 -1 5 7 -3 8 1 18 8 23 7 4 9 3 5 -1 -4
-5 3 -15 15 -23 13 -7 15 -11 6 -8 -12 3 -15 1 -11 -9 3 -8 9 -13 13 -10 4 3
19 -4 31 -16 13 -11 18 -18 12 -14 -17 8 -16 -3 1 -21 11 -10 15 -11 19 -1 2
6 4 0 3 -15 -1 -20 -4 -24 -14 -16 -9 8 -11 7 -6 -6 3 -9 10 -16 15 -16 5 0 9
-5 9 -11 0 -5 -3 -8 -8 -6 -4 3 -7 -10 -8 -29 0 -18 3 -31 7 -28 4 2 11 -1 15
-7 4 -7 3 -9 -4 -5 -6 3 -13 2 -17 -4 -3 -5 0 -10 7 -10 9 0 9 -3 -2 -10 -10
-6 -11 -10 -2 -10 6 0 12 -5 12 -11 0 -5 -6 -7 -12 -3 -9 5 -9 2 1 -9 7 -9 9
-17 4 -17 -16 0 -12 -39 5 -43 14 -4 13 -5 -3 -6 -17 -1 -18 -3 -5 -11 9 -6
11 -13 5 -17 -18 -14 -17 -43 2 -44 16 0 16 -1 -2 -9 -13 -6 -15 -9 -5 -9 13
-1 13 -2 0 -11 -10 -6 -11 -10 -2 -10 6 0 12 -5 12 -11 0 -5 -3 -8 -8 -6 -4 3
-7 -10 -8 -29 -1 -24 4 -34 15 -35 12 0 11 -3 -4 -9 -13 -6 -15 -9 -5 -9 13
-1 13 -2 0 -11 -10 -6 -11 -10 -2 -10 6 0 12 -5 12 -11 0 -5 -6 -7 -12 -3 -9
5 -9 2 1 -9 7 -10 9 -17 3 -17 -6 0 -9 -8 -7 -17 1 -10 8 -17 15 -15 6 1 9 -2
5 -8 -3 -6 -10 -8 -15 -5 -14 9 -23 -16 -11 -28 9 -9 10 -7 5 7 -5 14 -4 17 5
11 8 -4 11 -20 9 -36 -4 -24 -2 -27 10 -16 13 10 14 8 9 -13 -4 -14 -4 -19 -1
-12 5 10 9 10 22 0 13 -11 14 -11 7 1 -6 11 -4 13 8 8 11 -4 14 -2 10 9 -4 11
-9 12 -19 3 -10 -8 -14 -8 -14 0 0 6 5 11 11 11 5 0 7 6 3 13 -6 9 -5 9 8 0
12 -11 18 -9 33 7 10 11 22 17 26 14 5 -3 9 0 9 6 0 6 5 8 10 5 6 -3 10 -1 10
4 0 6 -4 11 -10 11 -5 0 -10 5 -10 11 0 5 4 8 9 5 5 -3 14 1 21 9 10 12 8 13
-9 10 -26 -5 -26 2 -3 29 17 20 17 20 -10 3 -37 -23 -35 -15 3 21 21 19 26 29
15 29 -8 0 -13 -4 -10 -8 2 -4 0 -10 -4 -13 -5 -3 -9 5 -8 17 1 12 8 21 15 19
7 -1 10 2 6 8 -4 6 -16 8 -28 5 -12 -2 -16 -2 -9 1 10 5 10 9 1 20 -8 10 -8
14 0 15 26 3 30 4 38 13 5 5 3 6 -4 2 -8 -4 -13 -2 -13 6 0 8 6 20 13 27 10
11 8 11 -11 2 -12 -7 -20 -17 -16 -23 4 -7 3 -8 -4 -4 -17 10 -16 11 21 45 28
27 29 30 10 27 -23 -5 -40 19 -21 30 6 4 8 3 5 -3 -3 -5 0 -10 8 -10 8 0 11 5
7 11 -11 19 -11 70 1 85 10 12 9 13 -10 3 -37 -20 -39 -13 -3 18 19 17 31 30
25 29 -22 -3 -29 2 -16 10 8 5 14 22 15 38 1 20 6 28 19 27 13 -2 15 1 7 11
-8 9 -4 12 15 10 14 -2 23 1 19 6 -3 5 -9 7 -13 5 -4 -3 -8 1 -8 9 0 10 5 11
18 4 15 -7 17 -6 13 6 -5 11 1 15 26 15 22 0 29 4 25 13 -4 6 5 -1 20 -18 18
-21 24 -24 19 -10 -5 15 -2 14 14 -7 14 -16 20 -33 16 -45 -6 -15 -4 -16 7 -5
19 18 28 15 24 -8 -2 -11 1 -20 7 -20 6 0 6 -6 -2 -15 -11 -13 -10 -14 5 -9
13 5 16 3 13 -7 -3 -8 2 -23 11 -34 15 -18 15 -19 -2 -6 -15 12 -20 12 -30 1
-8 -8 -8 -11 -1 -7 7 4 19 -3 27 -16 13 -19 13 -26 1 -42 -10 -13 -11 -22 -3
-31 7 -8 6 -14 -2 -20 -8 -5 -10 -3 -4 7 5 8 4 11 0 6 -5 -4 -10 -17 -12 -29
-3 -21 -3 -21 19 -2 l22 19 -17 -24 c-11 -17 -13 -28 -6 -37 7 -8 6 -15 -2
-20 -8 -5 -9 -3 -4 7 8 12 6 12 -8 0 -18 -14 -23 -26 -8 -16 6 3 15 -5 22 -17
11 -20 10 -21 -3 -11 -12 10 -15 10 -15 -2 0 -8 4 -15 9 -15 5 0 6 -4 3 -10
-11 -17 -14 -70 -4 -70 5 0 9 -5 9 -11 0 -5 -4 -8 -8 -5 -4 2 -8 -4 -8 -15 0
-14 6 -18 21 -14 11 3 14 2 8 -1 -14 -6 -18 -40 -5 -47 4 -2 1 -2 -6 -1 -9 3
-10 -1 -4 -13 11 -19 42 -27 38 -10 -2 7 -1 9 1 4 3 -4 9 -5 14 -2 5 4 6 -2 2
-12 -3 -10 -3 -15 2 -11 4 4 13 3 20 -2 8 -7 12 -5 12 5 0 8 -5 11 -11 8 -6
-4 -3 3 7 15 11 12 16 26 11 33 -4 8 -3 10 4 5 7 -4 12 -1 12 9 0 9 3 14 8 12
4 -3 7 10 7 28 0 24 -4 31 -14 27 -9 -3 -12 -1 -8 5 4 6 1 14 -5 17 -7 3 -1 3
15 0 16 -4 27 -2 27 5 0 6 -3 10 -7 10 -30 -5 -34 3 -13 21 13 11 19 20 14 20
-6 0 -16 -6 -23 -12 -10 -11 -11 -8 -7 14 7 38 16 50 33 44 8 -4 11 -1 8 5 -4
6 -13 8 -21 5 -18 -7 -18 -1 1 28 13 19 13 23 1 23 -8 0 -12 -6 -9 -14 3 -7 1
-13 -5 -13 -5 0 -9 10 -8 23 1 12 7 21 14 20 6 -2 9 4 6 12 -4 8 -1 15 7 15 7
0 9 3 6 6 -4 4 -14 1 -22 -6 -14 -12 -15 -10 -11 13 2 15 7 31 11 36 3 5 -3
15 -12 21 -15 9 -14 10 7 5 22 -5 23 -4 9 7 -13 11 -14 16 -4 25 7 7 16 9 21
5 4 -4 4 -1 0 6 -6 10 -11 10 -22 1 -13 -10 -14 -8 -10 12 2 13 8 33 12 43 5
12 4 17 -3 13 -5 -3 -10 0 -10 8 0 8 5 12 10 8 5 -3 6 4 2 17 -5 15 -3 20 3
16 6 -3 14 -1 18 5 4 8 3 9 -4 5 -7 -4 -12 -1 -12 7 0 8 -7 18 -16 21 -9 4
-14 9 -11 12 3 3 16 1 29 -6 20 -10 21 -10 6 3 -10 8 -14 18 -10 22 4 5 1 4
-7 0 -10 -6 -13 -4 -9 7 4 8 1 15 -6 15 -6 0 -24 8 -39 18 -20 13 -25 21 -17
30 9 10 4 13 -20 11 -19 -1 -35 4 -40 13 -8 14 -9 14 -10 1 0 -13 -2 -13 -9 0
-6 8 -8 17 -6 21 3 3 -8 6 -23 7 -53 0 -59 2 -71 25 -6 12 -10 15 -7 7 3 -11
-3 -16 -19 -16 -13 0 -21 4 -19 8 3 5 10 5 16 2 7 -4 8 -2 4 5 -4 6 -11 9 -16
6 -4 -3 -11 1 -13 7 -3 7 -6 4 -7 -7 0 -18 -2 -18 -10 -3 -6 10 -21 15 -40 14
-24 -2 -29 1 -25 13 5 12 2 11 -13 -2 -23 -21 -39 -22 -18 -1 9 8 16 21 16 27
0 7 -4 7 -9 -2 -5 -8 -17 -16 -25 -17 -9 -1 -14 2 -10 7 3 5 10 6 16 3 6 -4 8
-3 5 3 -4 5 -27 7 -56 3 -41 -5 -48 -4 -39 7 8 10 6 13 -11 10 -13 -2 -27 -10
-32 -18 -7 -11 -9 -11 -9 -1 0 7 -5 10 -12 6 -6 -4 -8 -3 -5 3 4 6 -4 13 -18
15 -18 4 -25 1 -25 -10 0 -12 -3 -12 -15 -2 -12 10 -18 10 -29 1 -9 -8 -16 -8
-20 -2 -8 13 4 19 32 16 12 -1 22 2 22 7 0 10 -50 6 -56 -4z m360 -80 c-3 -4
-11 -5 -19 -1 -21 7 -19 12 4 10 11 0 18 -5 15 -9z m168 -53 c0 -5 -5 -10 -11
-11 -8 -2 -7 -1 0 3 8 4 7 8 -2 15 -11 8 -11 9 -1 6 8 -2 14 -8 14 -13z m-512
-59 c0 -3 -4 -8 -10 -11 -5 -3 -10 -1 -10 4 0 6 5 11 10 11 6 0 10 -2 10 -4z
m-95 -126 c3 -5 -1 -10 -9 -10 -9 0 -16 5 -16 10 0 6 4 10 9 10 6 0 13 -4 16
-10z m-175 -10 c0 -5 -2 -10 -4 -10 -3 0 -8 5 -11 10 -3 6 -1 10 4 10 6 0 11
-4 11 -10z m585 -39 c3 -5 2 -12 -3 -15 -5 -3 -9 1 -9 9 0 17 3 19 12 6z m-13
-55 c7 4 8 2 4 -5 -9 -13 -26 -5 -25 12 0 9 2 8 6 -1 2 -6 10 -9 15 -6z m-397
-6 c3 -6 -1 -7 -9 -4 -18 7 -21 14 -7 14 6 0 13 -4 16 -10z m5 -30 c0 -5 -7
-7 -15 -4 -8 4 -15 8 -15 10 0 2 7 4 15 4 8 0 15 -4 15 -10z m-5 -28 c-3 -3
-11 0 -18 7 -9 10 -8 11 6 5 10 -3 15 -9 12 -12z m389 -27 c-4 -8 -11 -12 -17
-8 -8 5 -7 8 1 11 7 2 9 9 6 14 -4 7 -2 8 4 4 6 -4 9 -13 6 -21z m-387 -61
c-3 -3 -12 -4 -19 -1 -8 3 -5 6 6 6 11 1 17 -2 13 -5z m3 -29 c0 -2 -9 -3 -19
-2 -11 0 -18 5 -15 9 4 6 34 0 34 -7z m666 -122 c-4 -9 -1 -20 6 -25 9 -5 10
-8 1 -8 -6 0 -14 4 -17 9 -6 10 3 41 11 41 3 0 2 -8 -1 -17z m-670 -40 c-2 -9
-11 -17 -20 -19 -17 -2 -17 -2 0 17 21 23 23 23 20 2z m779 -34 c-4 -5 -12 -9
-18 -8 -9 0 -8 2 1 6 6 2 9 10 6 15 -4 7 -2 8 5 4 6 -4 9 -12 6 -17z m-801
-78 c3 -5 -1 -11 -9 -14 -9 -4 -12 -1 -8 9 6 16 10 17 17 5z"/>
<path d="M1743 1867 c-2 -16 0 -18 7 -8 7 12 11 13 24 1 9 -7 19 -10 22 -7 3
3 -7 12 -23 20 -27 15 -29 14 -30 -6z"/>
<path d="M1050 1841 c0 -14 -37 -20 -50 -7 -8 7 -8 4 1 -11 12 -20 14 -20 36
-6 21 14 31 33 18 33 -3 0 -5 -4 -5 -9z"/>
<path d="M1575 1840 c-3 -5 -1 -10 4 -10 6 0 11 5 11 10 0 6 -2 10 -4 10 -3 0
-8 -4 -11 -10z"/>
<path d="M719 1838 c-5 -19 -8 -50 -4 -46 7 7 15 48 9 48 -2 0 -4 -1 -5 -2z"/>
<path d="M670 1800 c0 -5 5 -10 11 -10 5 0 7 5 4 10 -3 6 -8 10 -11 10 -2 0
-4 -4 -4 -10z"/>
<path d="M1730 1779 c0 -5 5 -7 10 -4 6 3 10 8 10 11 0 2 -4 4 -10 4 -5 0 -10
-5 -10 -11z"/>
<path d="M715 1720 c-3 -5 -1 -10 4 -10 6 0 11 5 11 10 0 6 -2 10 -4 10 -3 0
-8 -4 -11 -10z"/>
<path d="M1888 1716 c-15 -11 -15 -13 5 -26 20 -12 21 -12 9 2 -10 13 -10 17
0 21 7 2 11 7 8 10 -3 3 -13 0 -22 -7z"/>
<path d="M343 1680 c2 -8 11 -13 18 -12 8 2 11 0 7 -4 -5 -4 -20 -9 -35 -10
-18 -2 -23 0 -15 5 11 7 11 9 -2 14 -9 4 -15 3 -14 -1 1 -4 -1 -17 -5 -29 -6
-15 -14 -20 -28 -18 -17 3 -19 1 -9 -10 8 -10 8 -15 -1 -21 -8 -4 -9 -3 -5 4
4 7 1 12 -8 12 -18 0 -30 -17 -17 -25 12 -7 3 -35 -11 -35 -6 0 -4 8 3 18 13
15 12 16 -4 3 -9 -8 -15 -16 -12 -19 9 -9 -17 -32 -29 -25 -6 4 -5 0 2 -9 15
-18 53 -20 64 -3 5 6 8 3 8 -7 0 -10 4 -18 10 -18 6 0 6 9 0 26 -15 40 -11 42
9 5 14 -26 19 -30 24 -18 4 10 14 14 26 12 11 -2 23 0 26 4 2 5 -9 7 -25 6
-17 -1 -33 2 -37 8 -3 6 -1 7 5 3 7 -4 12 -1 12 6 0 8 3 9 8 3 4 -6 14 -10 22
-10 8 1 21 -4 29 -9 12 -9 13 -8 9 5 -4 10 -1 16 8 16 8 0 14 -4 14 -9 0 -4 3
-7 8 -7 20 3 32 -3 32 -17 0 -8 5 -12 10 -9 6 3 10 1 10 -6 0 -7 10 -3 23 9
13 12 27 19 30 15 4 -3 7 -2 7 4 0 5 -10 15 -22 22 -13 6 -15 9 -5 7 9 -3 17
-1 17 4 0 6 -7 10 -15 10 -8 0 -15 5 -15 11 0 5 4 7 10 4 6 -4 7 1 3 11 -4 11
-8 13 -11 6 -2 -7 -8 -12 -13 -12 -6 0 -7 5 -3 11 5 8 -1 10 -20 7 -21 -4 -24
-3 -15 8 9 11 8 14 -4 14 -23 0 -39 34 -24 50 10 12 9 12 -3 3 -22 -16 -32
-16 -42 -1 -8 10 -9 10 -5 -2z m-133 -160 c0 -5 -5 -10 -11 -10 -5 0 -7 5 -4
10 3 6 8 10 11 10 2 0 4 -4 4 -10z"/>
<path d="M2192 1656 c-17 -19 -28 -37 -25 -40 4 -3 1 -6 -5 -6 -7 0 -12 5 -12
11 0 5 -5 7 -11 4 -6 -5 -4 -12 8 -21 13 -11 14 -14 3 -12 -9 2 -14 -4 -14
-14 1 -10 -1 -17 -5 -16 -20 2 -22 -4 -5 -18 18 -15 18 -15 -3 -5 -12 6 -23
16 -25 23 -3 7 -5 -2 -5 -19 0 -18 4 -33 9 -33 5 0 6 6 1 13 -4 7 2 6 17 -4
30 -18 64 -14 56 7 -3 9 -1 12 4 9 6 -3 10 -1 10 5 0 6 5 8 11 4 8 -5 8 -9 -1
-14 -14 -9 -5 -30 13 -30 9 0 9 2 0 8 -8 5 -8 12 3 26 8 11 14 15 14 9 0 -13
18 -12 39 2 10 5 16 4 19 -3 2 -7 9 -9 14 -6 7 4 8 2 4 -5 -4 -6 -12 -9 -17
-6 -5 4 -9 4 -9 1 0 -3 15 -13 33 -21 30 -15 31 -15 12 1 -20 16 -20 16 1 10
23 -7 40 16 27 36 -3 7 -1 8 6 4 7 -5 9 -16 5 -29 -6 -19 -5 -20 10 -8 9 7 15
21 14 30 -3 18 -38 47 -51 43 -5 -1 -6 2 -3 7 4 5 0 16 -8 24 -8 8 -12 18 -8
23 4 5 -1 2 -11 -6 -10 -7 -17 -9 -16 -4 5 28 -3 35 -33 33 -22 -2 -32 1 -30
9 3 18 -2 15 -36 -22z m14 -11 c-9 -9 -16 -21 -16 -27 0 -6 -3 -8 -6 -5 -4 4
1 18 10 33 10 14 20 23 23 20 3 -3 -2 -12 -11 -21z"/>
<path d="M630 1636 c0 -2 7 -7 16 -10 8 -3 12 -2 9 4 -6 10 -25 14 -25 6z"/>
<path d="M2341 1624 c-1 -18 36 -47 44 -34 3 6 3 10 -2 9 -20 -4 -27 2 -13 12
13 9 13 10 -2 6 -9 -3 -19 -1 -22 6 -3 8 -5 8 -5 1z"/>
<path d="M895 1610 c3 -5 8 -10 11 -10 2 0 4 5 4 10 0 6 -5 10 -11 10 -5 0 -7
-4 -4 -10z"/>
<path d="M2104 1595 c1 -8 6 -18 11 -22 4 -4 5 -3 2 4 -4 6 -2 13 5 15 8 3 6
6 -4 10 -10 4 -15 2 -14 -7z"/>
<path d="M1740 1570 c-12 -7 -10 -9 7 -7 12 0 19 5 17 9 -6 10 -6 10 -24 -2z"/>
<path d="M2390 1525 c-12 -13 -27 -22 -31 -19 -5 3 -9 0 -9 -5 0 -6 10 -9 23
-7 12 2 21 9 19 16 -2 7 3 10 10 7 9 -3 14 3 14 14 0 23 2 24 -26 -6z"/>
<path d="M2265 1529 c-4 -6 -5 -12 -2 -15 2 -3 7 2 10 11 7 17 1 20 -8 4z"/>
<path d="M376 1514 c-3 -8 0 -16 6 -20 7 -5 8 -2 3 6 -5 9 -1 11 16 6 13 -3
18 -3 11 0 -6 3 -10 9 -8 13 3 4 -1 8 -9 8 -8 0 -16 -6 -19 -13z"/>
<path d="M1167 1516 c-4 -10 -1 -13 8 -9 8 3 12 9 9 14 -7 12 -11 11 -17 -5z"/>
<path d="M2226 1518 c3 -5 10 -6 15 -3 13 9 11 12 -6 12 -8 0 -12 -4 -9 -9z"/>
<path d="M481 1506 c-9 -10 -8 -15 4 -20 9 -3 14 -2 10 3 -3 5 0 11 7 13 8 3
9 6 1 11 -6 4 -16 1 -22 -7z"/>
<path d="M625 1510 c-3 -6 1 -7 9 -4 18 7 21 14 7 14 -6 0 -13 -4 -16 -10z"/>
<path d="M2106 1502 c-3 -5 1 -9 9 -9 8 0 15 4 15 9 0 4 -4 8 -9 8 -6 0 -12
-4 -15 -8z"/>
<path d="M1945 1490 c-3 -6 1 -7 9 -4 18 7 21 14 7 14 -6 0 -13 -4 -16 -10z"/>
<path d="M350 1435 c9 -11 4 -12 -24 -5 -21 4 -34 4 -30 -1 5 -9 -9 -13 -32
-10 -7 1 -15 -6 -18 -15 -3 -9 -12 -14 -20 -11 -15 6 -16 -9 -2 -32 7 -11 5
-13 -7 -8 -11 4 -14 2 -10 -9 3 -8 -1 -14 -8 -14 -11 0 -11 -2 0 -9 18 -12 21
-87 2 -83 -7 1 -10 -2 -6 -7 3 -6 11 -8 18 -5 8 3 13 -4 14 -18 0 -13 -1 -17
-4 -10 -3 6 -12 12 -21 12 -11 0 -13 -3 -6 -8 6 -4 13 -15 17 -25 4 -11 12
-15 18 -11 8 5 9 3 5 -5 -5 -7 -14 -10 -22 -7 -8 3 -11 0 -7 -10 3 -8 -1 -14
-8 -14 -9 -1 -8 -4 4 -11 13 -8 15 -15 7 -28 -5 -10 -7 -21 -3 -24 3 -4 1 -13
-5 -20 -9 -10 -8 -14 3 -14 8 0 12 4 9 9 -3 4 0 8 6 8 7 0 9 -7 6 -16 -3 -9
-6 -18 -6 -20 0 -3 -5 -2 -12 2 -7 4 -8 3 -4 -5 4 -6 2 -19 -6 -28 -9 -12 -9
-15 0 -9 9 5 12 -3 12 -29 0 -20 4 -34 8 -31 4 2 8 -4 8 -14 0 -14 -3 -16 -13
-8 -8 6 -16 8 -20 4 -3 -3 -1 -6 5 -6 7 0 12 -7 12 -15 0 -8 3 -14 8 -14 19 3
23 -2 12 -16 -10 -12 -9 -15 4 -15 10 0 15 -4 12 -9 -7 -11 13 -9 32 2 7 5 9
13 6 19 -5 7 -1 9 9 5 12 -4 15 -1 12 16 -4 21 -4 21 10 3 13 -17 15 -17 15
-4 0 9 5 20 12 24 7 4 8 3 4 -4 -4 -7 -2 -12 3 -12 6 0 11 6 11 13 0 8 3 7 10
-3 5 -8 12 -11 16 -7 4 3 2 12 -4 20 -8 10 -6 13 10 14 12 1 28 9 36 17 11 10
21 12 39 5 15 -5 22 -5 18 0 -3 6 3 14 12 20 10 6 13 11 7 11 -11 0 -13 35 -2
45 5 6 -13 83 -24 101 -4 6 -1 11 7 11 8 0 12 -4 9 -8 -2 -4 0 -10 5 -14 6 -3
8 6 5 21 -3 18 -1 23 7 18 8 -5 9 -3 4 5 -5 9 -10 10 -18 2 -6 -6 -16 -11 -21
-11 -7 0 -8 3 -1 8 16 11 41 47 29 39 -7 -4 -17 0 -23 7 -10 12 -8 13 11 9
l23 -6 -20 19 c-12 10 -15 15 -8 10 19 -12 16 4 -4 27 -17 19 -17 20 5 8 12
-6 22 -17 22 -23 0 -6 3 -8 6 -5 4 4 2 12 -3 19 -6 7 -9 27 -8 45 1 18 -2 30
-7 27 -5 -3 -6 -9 -4 -13 3 -4 -1 -8 -9 -8 -11 0 -12 4 -4 13 7 9 6 20 -7 39
-15 23 -15 25 0 19 9 -3 14 -10 11 -14 -3 -5 -1 -12 5 -15 6 -4 9 -1 8 7 -2 7
3 12 10 10 8 -1 11 2 7 8 -3 6 -11 8 -16 5 -5 -4 -9 1 -9 10 0 10 -7 15 -17
13 -10 -2 -17 2 -16 9 4 16 -26 31 -59 29 -14 -1 -25 1 -22 5 2 4 -5 9 -17 12
-16 4 -18 3 -9 -8z m-115 -115 c3 -6 -1 -7 -9 -4 -18 7 -21 14 -7 14 6 0 13
-4 16 -10z m260 -50 c3 -6 -1 -7 -9 -4 -18 7 -21 14 -7 14 6 0 13 -4 16 -10z
m-260 -150 c3 -6 -1 -7 -9 -4 -18 7 -21 14 -7 14 6 0 13 -4 16 -10z m260 -110
c-3 -5 -12 -10 -18 -10 -7 0 -6 4 3 10 19 12 23 12 15 0z m-10 -49 c3 -5 2
-12 -3 -15 -5 -3 -9 1 -9 9 0 17 3 19 12 6z m-214 -124 c-1 -12 -15 -9 -19 4
-3 6 1 10 8 8 6 -3 11 -8 11 -12z"/>
<path d="M2157 1422 c-20 -15 -37 -31 -36 -36 0 -5 -5 -12 -12 -17 -16 -9 -19
-89 -4 -105 7 -9 14 -9 25 -1 8 7 6 2 -4 -11 -13 -14 -15 -22 -6 -22 7 0 2 -9
-11 -21 -17 -14 -19 -19 -7 -15 12 4 15 1 11 -11 -5 -12 -3 -14 7 -8 9 5 11 4
6 -4 -5 -8 -12 -9 -19 -2 -9 7 -12 1 -12 -19 -1 -16 3 -26 7 -24 5 3 6 9 4 13
-3 4 1 8 9 8 8 0 15 -4 15 -9 0 -4 -5 -8 -11 -8 -6 0 -8 -7 -5 -16 3 -8 2 -12
-4 -9 -10 6 -12 0 -12 -30 0 -47 1 -50 18 -29 15 18 15 18 5 -2 -7 -14 -7 -24
0 -31 8 -8 7 -13 0 -17 -6 -4 -11 -12 -11 -17 0 -6 3 -8 8 -6 4 3 8 -7 9 -21
l1 -27 -14 28 c-17 32 -20 33 -20 8 0 -11 3 -18 7 -15 4 2 9 -3 13 -11 4 -11
11 -13 31 -5 18 7 24 6 22 -3 -1 -7 5 -11 14 -11 11 1 15 -6 14 -21 -3 -19 2
-21 42 -20 24 0 47 -3 49 -7 3 -5 11 -5 17 -1 7 4 5 -2 -3 -13 -8 -10 -10 -16
-6 -12 5 4 17 -2 27 -14 11 -11 19 -16 19 -10 0 7 4 12 10 12 5 0 7 -8 4 -17
-5 -17 -5 -17 6 -1 6 9 16 16 23 14 6 -1 9 -1 6 1 -4 2 -4 22 -2 45 4 28 2 38
-6 34 -7 -4 -9 -1 -5 8 3 8 13 12 22 9 14 -4 14 -3 3 5 -11 8 -12 14 -3 25 9
11 9 14 -3 14 -8 0 -11 -5 -8 -10 3 -6 1 -7 -5 -3 -6 4 -9 13 -6 21 4 8 9 13
13 11 4 -3 5 11 3 30 -2 18 -8 31 -13 28 -5 -3 -4 6 2 20 7 14 16 23 22 19 6
-3 7 -1 3 5 -4 6 -12 9 -20 6 -7 -3 -13 1 -13 9 0 8 5 14 11 13 6 0 11 3 11 9
0 5 -7 8 -15 7 -12 -3 -13 -1 -2 9 15 16 16 33 1 23 -14 -8 10 38 25 49 6 5 2
6 -10 3 -14 -4 -21 -2 -21 8 0 8 6 12 15 8 9 -3 13 -1 9 5 -4 6 -1 14 5 17 7
3 2 3 -12 0 -20 -5 -23 -4 -12 7 14 15 16 33 2 24 -6 -3 -7 1 -4 9 3 9 9 14
13 11 4 -2 8 3 8 11 0 9 -6 13 -16 9 -11 -3 -10 0 3 10 20 15 20 15 0 15 -15
0 -16 2 -5 9 11 7 10 10 -5 14 -18 4 -18 5 1 6 17 1 18 3 5 11 -13 9 -13 11 0
21 12 8 10 9 -9 4 -18 -6 -22 -4 -15 6 6 12 5 12 -8 1 -13 -10 -18 -10 -24 -1
-5 8 -3 10 7 4 8 -5 11 -4 6 1 -5 5 -12 9 -15 9 -4 0 -14 4 -22 9 -12 7 -13 6
-2 -5 20 -22 14 -34 -8 -14 -11 10 -20 13 -20 7 0 -5 -9 -8 -22 -4 -16 4 -19
2 -13 -8 5 -8 4 -11 -3 -6 -6 4 -9 14 -6 24 5 15 4 15 -8 1 -7 -8 -22 -19 -32
-23 -19 -7 -19 -6 -1 14 23 26 19 24 -28 -8z m-13 -30 c3 -5 -1 -9 -9 -9 -8 0
-12 4 -9 9 3 4 7 8 9 8 2 0 6 -4 9 -8z m-17 -36 c-12 -9 -14 -16 -7 -21 11 -7
4 -25 -11 -25 -14 0 -5 40 12 51 22 14 26 10 6 -5z m3 -62 c0 -8 -19 -13 -24
-6 -3 5 1 9 9 9 8 0 15 -2 15 -3z m-10 -213 c0 -6 -4 -12 -8 -15 -5 -3 -9 1
-9 9 0 8 4 15 9 15 4 0 8 -4 8 -9z m125 -183 c5 4 5 2 2 -5 -6 -9 -18 -10 -45
-4 -2 1 0 6 3 11 5 8 11 8 19 1 7 -6 17 -7 21 -3z m129 -59 c-3 -5 -10 -7 -15
-3 -5 3 -7 10 -3 15 3 5 10 7 15 3 5 -3 7 -10 3 -15z"/>
<path d="M467 1406 c-4 -10 -1 -13 8 -9 8 3 12 9 9 14 -7 12 -11 11 -17 -5z"/>
<path d="M1814 1395 c-2 -21 1 -24 12 -14 11 9 11 15 3 25 -15 18 -14 18 -15
-11z"/>
<path d="M625 1390 c-3 -6 1 -7 9 -4 18 7 21 14 7 14 -6 0 -13 -4 -16 -10z"/>
<path d="M760 1340 c-12 -7 -10 -9 7 -7 12 0 19 5 17 9 -6 10 -6 10 -24 -2z"/>
<path d="M625 1270 c-3 -6 1 -7 9 -4 18 7 21 14 7 14 -6 0 -13 -4 -16 -10z"/>
<path d="M2093 1240 c-1 -11 2 -20 7 -20 4 0 7 7 6 15 -3 23 -12 26 -13 5z"/>
<path d="M1550 1198 c0 -10 27 -10 34 0 2 4 -4 8 -15 8 -10 0 -19 -4 -19 -8z"/>
<path d="M2395 1180 c3 -5 8 -10 11 -10 2 0 4 5 4 10 0 6 -5 10 -11 10 -5 0
-7 -4 -4 -10z"/>
<path d="M625 1150 c-3 -6 1 -7 9 -4 18 7 21 14 7 14 -6 0 -13 -4 -16 -10z"/>
<path d="M1165 1060 c-3 -5 -2 -10 4 -10 5 0 13 5 16 10 3 6 2 10 -4 10 -5 0
-13 -4 -16 -10z"/>
<path d="M750 1056 c0 -2 7 -7 16 -10 8 -3 12 -2 9 4 -6 10 -25 14 -25 6z"/>
<path d="M1805 1040 c-3 -5 -1 -10 4 -10 6 0 11 5 11 10 0 6 -2 10 -4 10 -3 0
-8 -4 -11 -10z"/>
<path d="M1933 1011 c-8 -12 -8 -22 -1 -32 8 -11 9 -11 4 3 -3 10 1 21 11 26
8 5 11 12 6 15 -5 3 -14 -2 -20 -12z"/>
<path d="M2088 1013 c6 -2 10 -9 6 -14 -3 -5 -1 -9 5 -9 17 0 21 18 5 24 -9 3
-19 6 -22 5 -4 0 -1 -3 6 -6z"/>
<path d="M635 990 c3 -5 8 -10 11 -10 2 0 4 5 4 10 0 6 -5 10 -11 10 -5 0 -7
-4 -4 -10z"/>
<path d="M1516 981 c-12 -13 -14 -21 -6 -26 6 -3 9 -1 8 6 -2 7 2 13 9 14 16
0 26 12 15 19 -5 3 -17 -3 -26 -13z"/>
<path d="M672 981 c-11 -6 -10 -10 4 -15 9 -4 22 -2 28 4 8 8 6 9 -8 4 -13 -5
-17 -4 -12 4 8 14 6 15 -12 3z"/>
<path d="M1061 976 c-9 -11 -9 -16 1 -22 7 -4 10 -4 6 1 -4 4 -3 14 3 22 6 7
9 13 6 13 -2 0 -10 -6 -16 -14z"/>
<path d="M434 918 c-11 -18 -12 -48 -2 -42 5 4 7 13 4 21 -4 10 -2 13 8 10 10
-4 13 -1 9 9 -6 17 -10 18 -19 2z"/>
<path d="M1714 916 c1 -8 5 -18 8 -22 4 -3 5 1 4 10 -1 8 -5 18 -8 22 -4 3 -5
-1 -4 -10z"/>
<path d="M2153 905 c0 -8 4 -15 9 -15 4 0 8 4 8 9 0 6 -4 12 -8 15 -5 3 -9 -1
-9 -9z"/>
<path d="M856 895 c-9 -26 -7 -32 5 -12 6 10 9 21 6 23 -2 3 -7 -2 -11 -11z"/>
<path d="M1775 900 c-3 -5 -1 -10 4 -10 6 0 11 5 11 10 0 6 -2 10 -4 10 -3 0
-8 -4 -11 -10z"/>
<path d="M395 890 c3 -5 8 -10 11 -10 2 0 4 5 4 10 0 6 -5 10 -11 10 -5 0 -7
-4 -4 -10z"/>
<path d="M880 880 c-12 -7 -10 -9 8 -7 12 0 22 5 22 9 0 11 -12 10 -30 -2z"/>
<path d="M974 870 c8 -49 25 -82 38 -73 21 13 42 13 50 0 5 -7 8 -3 8 11 0 13
4 21 9 17 5 -3 12 3 14 12 4 17 5 17 6 1 1 -12 6 -15 19 -11 9 3 14 3 10 -1
-3 -4 -13 -9 -22 -10 -9 -1 -15 -6 -14 -12 2 -5 7 -8 12 -6 5 2 6 -4 2 -13 -5
-13 -2 -14 15 -4 11 6 18 17 15 24 -3 8 -1 17 4 20 6 4 10 12 10 18 0 7 -4 6
-10 -3 -7 -11 -10 -11 -10 -2 0 7 -4 10 -10 7 -5 -3 -10 -1 -10 5 0 7 -8 9
-20 5 -15 -5 -20 -2 -20 12 0 14 -2 15 -9 4 -5 -8 -7 -21 -4 -30 4 -14 3 -14
-5 -1 -6 8 -8 19 -4 25 3 5 -3 3 -13 -5 -10 -8 -16 -10 -12 -3 4 6 2 15 -4 19
-8 4 -9 3 -5 -4 4 -7 2 -12 -5 -12 -8 0 -8 -4 1 -15 7 -8 10 -15 6 -15 -3 0
-15 15 -26 33 -19 29 -20 30 -16 7z m46 -54 c0 -3 -4 -8 -10 -11 -5 -3 -10 -1
-10 4 0 6 5 11 10 11 6 0 10 -2 10 -4z m110 -16 c0 -5 -2 -10 -4 -10 -3 0 -8
5 -11 10 -3 6 -1 10 4 10 6 0 11 -4 11 -10z"/>
<path d="M1690 886 c0 -2 7 -7 16 -10 8 -3 12 -2 9 4 -6 10 -25 14 -25 6z"/>
<path d="M1536 851 c-17 -32 -11 -47 13 -29 13 10 14 10 4 -2 -15 -16 -46 -23
-37 -8 5 7 2 8 -6 3 -8 -5 -7 1 3 16 21 29 21 36 2 36 -8 0 -12 -4 -9 -9 4 -5
0 -9 -7 -7 -28 3 -38 -1 -33 -15 3 -8 0 -17 -5 -21 -6 -3 -9 -11 -6 -16 9 -14
0 -11 -42 12 -21 11 -31 15 -22 7 9 -7 18 -17 20 -23 2 -5 10 -9 16 -9 7 1 10
-3 6 -9 -4 -6 -1 -7 7 -2 9 5 11 4 6 -3 -5 -9 -13 -9 -29 0 -21 13 -28 14 -55
17 -7 0 -10 6 -6 13 4 7 3 8 -5 4 -6 -4 -9 -12 -5 -17 3 -6 -2 -9 -12 -7 -12
2 -18 -2 -16 -10 1 -8 -2 -11 -8 -7 -6 4 -8 16 -5 28 2 12 2 16 -1 9 -3 -6
-11 -9 -17 -5 -21 13 -36 11 -30 -4 4 -11 8 -11 13 -3 5 8 10 8 14 2 12 -20
-22 -20 -43 0 -15 13 -26 17 -34 10 -7 -5 -21 -12 -32 -15 l-20 -7 20 16 c16
14 17 16 3 11 -19 -7 -25 8 -8 16 6 3 5 4 -2 3 -7 -2 -13 -9 -13 -17 0 -8 -4
-20 -9 -27 -4 -7 -5 -16 -2 -19 3 -4 6 -1 6 6 0 7 5 9 10 6 6 -4 7 -12 4 -18
-4 -7 -4 -9 1 -5 4 4 14 3 22 -3 7 -6 13 -8 13 -4 0 4 8 1 17 -6 11 -10 14
-10 9 -1 -11 18 14 15 36 -5 17 -15 19 -15 36 0 24 22 38 22 21 0 -12 -16 -12
-17 2 -6 9 7 20 9 24 5 5 -4 5 -1 1 6 -4 6 -2 12 3 12 6 0 11 -6 12 -12 0 -7
5 -3 11 10 6 12 15 22 20 22 5 0 7 -4 4 -9 -10 -16 21 -20 42 -5 16 11 22 11
26 1 3 -6 3 -1 0 12 -5 17 -3 21 6 16 8 -5 11 -4 7 2 -8 12 17 25 28 15 9 -9
64 -9 59 0 -3 4 9 8 25 8 17 0 32 5 32 10 1 6 2 16 3 23 0 6 9 12 18 12 9 0
20 3 23 7 4 4 14 4 23 1 14 -4 15 -3 2 5 -9 7 -19 7 -26 2 -6 -6 -13 -7 -17
-4 -3 3 -15 1 -26 -5 -13 -8 -18 -17 -14 -28 6 -15 5 -16 -9 -3 -14 13 -14 16
4 32 20 17 20 17 0 15 -12 0 -19 -4 -16 -8 2 -4 -3 -10 -12 -13 -21 -8 -24 -8
-24 5 0 5 5 7 12 3 7 -4 8 -3 4 4 -10 17 -14 15 -30 -17z m-41 -11 c3 -5 1
-10 -4 -10 -6 0 -11 5 -11 10 0 6 2 10 4 10 3 0 8 -4 11 -10z m-5 -24 c0 -2
-7 -7 -16 -10 -8 -3 -12 -2 -9 4 6 10 25 14 25 6z m-264 -54 c-12 -12 -35 -10
-46 4 -10 10 -8 12 9 9 15 -3 21 1 21 13 1 15 2 15 11 -1 6 -10 8 -21 5 -25z
m112 -7 c-3 -3 -9 2 -12 12 -6 14 -5 15 5 6 7 -7 10 -15 7 -18z m-57 5 c23 13
34 -4 13 -21 -13 -10 -18 -9 -35 9 -10 12 -14 18 -8 12 8 -6 19 -6 30 0z m89
0 c0 -5 -2 -10 -4 -10 -3 0 -8 5 -11 10 -3 6 -1 10 4 10 6 0 11 -4 11 -10z"/>
<path d="M1280 750 c-9 -6 -10 -10 -3 -10 6 0 15 5 18 10 8 12 4 12 -15 0z"/>
<path d="M930 858 c0 -4 5 -8 11 -8 8 0 7 -6 -2 -17 -10 -11 -10 -14 -1 -9 7
4 12 2 12 -6 0 -10 2 -10 9 1 7 11 10 10 14 -5 4 -15 5 -16 6 -2 0 9 -6 23
-14 31 -8 8 -12 17 -10 19 3 3 -2 5 -10 5 -8 0 -15 -4 -15 -9z"/>
<path d="M1985 850 c-4 -11 -11 -18 -16 -14 -5 3 -7 10 -4 15 4 5 1 9 -4 9 -6
0 -11 -7 -11 -15 0 -8 5 -15 11 -15 5 0 8 -4 5 -9 -7 -10 6 -9 43 3 21 7 22
10 7 18 -9 5 -14 13 -11 19 4 5 2 9 -4 9 -5 0 -13 -9 -16 -20z m19 -9 c3 -5
-1 -11 -9 -14 -9 -4 -12 -1 -8 9 6 16 10 17 17 5z"/>
<path d="M196 847 c3 -10 9 -15 12 -12 3 3 0 11 -7 18 -10 9 -11 8 -5 -6z"/>
<path d="M609 848 c8 -11 9 -18 3 -18 -6 0 -14 4 -17 10 -8 12 -38 8 -57 -8
-8 -6 -18 -8 -23 -4 -4 4 -3 -2 3 -14 9 -16 8 -21 -3 -21 -8 0 -12 4 -9 9 3 4
2 8 -3 9 -4 0 -18 2 -30 3 -13 2 -21 0 -18 -2 3 -3 0 -11 -6 -18 -9 -11 -16
-11 -33 -2 -19 10 -20 10 -7 -6 12 -14 12 -16 -4 -10 -14 6 -16 4 -11 -7 4 -8
0 -5 -8 5 -18 23 -21 14 -5 -16 9 -16 8 -19 -3 -12 -23 15 -37 13 -31 -4 4 -9
2 -13 -4 -9 -7 5 -9 -1 -5 -15 3 -14 1 -19 -6 -14 -6 3 -13 2 -16 -3 -3 -5 8
-8 24 -7 22 2 29 -2 26 -11 -3 -7 -1 -13 4 -13 6 0 10 5 10 10 0 6 6 5 14 -2
8 -7 11 -17 8 -23 -3 -5 -2 -7 3 -3 4 4 15 2 23 -5 13 -10 14 -9 7 3 -6 12 -6
13 6 2 12 -11 12 -14 -1 -22 -10 -7 -5 -8 18 -4 21 4 32 3 32 -5 0 -7 -5 -9
-12 -5 -7 5 -8 3 -4 -5 6 -9 12 -8 26 4 14 13 19 13 28 2 7 -8 9 -17 5 -20 -3
-4 -1 -7 5 -7 7 0 12 5 12 12 0 6 6 3 14 -7 8 -11 12 -24 9 -28 -3 -5 4 -6 16
-2 12 3 21 2 21 -4 0 -5 -8 -12 -17 -14 -10 -3 -6 -4 9 -4 15 1 25 4 23 7 -2
4 2 7 10 7 11 0 12 -5 3 -20 -6 -13 -7 -17 0 -13 6 3 12 1 15 -6 2 -7 3 -5 2
4 -2 11 2 15 12 11 8 -3 12 -11 9 -18 -3 -8 2 -16 10 -19 8 -3 13 -2 10 2 -2
4 4 8 14 8 15 0 17 -3 7 -15 -10 -12 -9 -13 11 -2 20 10 22 9 22 -10 0 -22 0
-22 22 -3 13 12 18 13 13 4 -11 -17 -16 -45 -8 -36 4 3 13 0 21 -7 13 -10 14
-9 8 2 -6 9 -5 12 5 9 8 -3 13 -14 11 -24 -2 -13 0 -15 5 -7 11 16 54 13 72
-5 7 -7 20 -11 28 -8 8 4 11 1 8 -5 -4 -6 -13 -8 -19 -6 -7 3 -13 -1 -13 -9 0
-7 4 -11 8 -8 5 3 19 -1 31 -7 22 -12 22 -11 8 7 -14 17 -13 18 1 7 9 -7 19
-10 23 -6 4 4 4 -1 0 -12 -7 -17 -5 -18 8 -8 19 16 32 4 15 -15 -10 -13 -9
-14 8 -5 22 11 45 7 45 -8 0 -6 -4 -7 -10 -4 -5 3 -10 1 -10 -6 0 -7 10 -9 24
-7 20 4 24 1 20 -15 -2 -15 -1 -18 8 -9 13 13 61 -15 51 -31 -3 -5 -1 -7 5 -3
6 3 13 2 17 -3 3 -6 12 -8 20 -5 8 4 12 11 8 18 -4 6 1 5 10 -3 18 -15 23 -26
7 -16 -5 3 -10 1 -10 -4 0 -15 13 -14 29 2 11 10 12 9 6 -2 -6 -11 -4 -13 9
-8 11 5 15 3 10 -5 -5 -7 -2 -9 8 -6 8 4 21 -2 29 -13 12 -18 56 -28 45 -11
-2 4 4 9 15 10 43 4 49 6 49 14 0 5 5 6 12 2 6 -4 8 -3 4 4 -3 6 1 17 10 26
12 13 20 14 37 4 19 -10 21 -9 9 4 -10 13 -10 18 -1 24 8 4 9 3 5 -4 -4 -7 -1
-12 9 -12 9 0 14 4 11 9 -3 5 4 11 15 14 12 3 18 10 14 16 -4 8 2 8 19 2 19
-8 28 -6 38 6 7 9 8 14 2 10 -6 -3 -11 0 -11 7 0 8 7 12 15 8 11 -4 13 -1 7 7
-6 10 -3 11 13 2 16 -8 23 -7 33 7 13 15 12 16 -3 4 -12 -10 -18 -10 -24 -1
-4 7 -3 9 4 5 6 -3 14 -2 17 4 5 8 12 7 23 -2 13 -11 14 -11 10 2 -5 15 51 59
85 66 10 2 26 9 35 16 10 9 13 9 9 1 -4 -6 -3 -14 3 -18 6 -3 10 4 11 17 0 13
3 17 6 11 8 -22 21 -14 16 10 -3 16 -2 18 5 9 8 -11 13 -10 30 8 19 21 21 21
32 3 11 -17 11 -17 6 0 -3 11 0 20 9 23 8 4 12 10 9 15 -3 5 2 6 11 3 9 -4 14
-13 11 -21 -4 -8 -1 -11 5 -8 6 4 8 13 5 20 -3 8 2 19 10 25 8 7 14 9 14 5 0
-4 8 -1 18 6 15 12 16 12 5 -1 -10 -13 -9 -16 7 -16 10 0 16 4 14 8 -3 4 0 16
6 25 10 16 11 16 6 -2 -6 -19 -5 -19 8 -3 7 10 18 18 25 18 6 0 11 5 11 11 0
5 5 7 10 4 6 -3 10 -1 10 5 0 6 5 8 10 5 6 -4 7 -11 4 -17 -4 -7 -2 -8 4 -4 8
5 9 13 3 25 -7 13 -6 18 4 18 8 0 12 -4 10 -7 -3 -4 8 -7 23 -7 15 0 21 2 15
4 -7 3 -13 9 -13 14 0 4 8 5 18 2 15 -6 15 -5 3 10 -12 15 -12 17 4 11 14 -6
16 -4 10 6 -5 8 -4 11 3 6 6 -3 13 -2 17 4 4 7 12 7 25 0 17 -9 19 -8 13 7 -6
16 -5 16 10 4 16 -12 17 -12 10 5 -6 16 -4 17 8 7 13 -10 16 -10 16 2 0 7 -4
13 -7 12 -12 -3 -70 43 -70 55 0 6 11 -1 25 -16 25 -27 40 -32 49 -17 3 5 -2
8 -12 7 -9 0 -16 5 -14 12 1 8 -2 11 -7 8 -5 -3 -14 1 -21 9 -7 8 -16 12 -21
9 -5 -3 -11 1 -14 8 -6 16 -45 22 -45 7 0 -5 -5 -9 -11 -9 -5 0 -8 4 -5 9 10
16 -22 20 -35 5 -6 -8 -17 -14 -23 -13 -25 3 -37 -2 -30 -13 5 -7 3 -8 -6 -3
-18 11 16 36 38 28 14 -4 14 -3 3 5 -8 6 -21 8 -29 4 -10 -4 -13 -1 -8 7 6 10
3 9 -13 0 -11 -8 -17 -16 -13 -19 4 -3 8 -9 9 -15 1 -5 5 -19 8 -30 5 -15 4
-17 -3 -6 -11 16 -46 25 -36 10 3 -5 10 -6 16 -3 7 4 8 2 4 -4 -4 -6 -14 -8
-24 -5 -15 6 -16 5 -2 -12 14 -17 14 -18 -7 -7 -28 16 -38 15 -25 -1 8 -9 8
-17 0 -27 -8 -13 -9 -12 -5 2 3 9 0 19 -7 21 -10 4 -12 -1 -9 -16 3 -13 1 -18
-4 -12 -12 15 -42 15 -37 0 7 -18 -17 -30 -27 -14 -7 11 -9 11 -9 -2 0 -9 -7
-20 -16 -23 -8 -3 -12 -10 -9 -16 3 -6 -1 -7 -9 -4 -9 3 -16 1 -16 -4 0 -12
-39 -27 -59 -23 -13 2 -13 1 0 -15 13 -16 12 -16 -10 -4 -21 11 -23 10 -18 -4
4 -9 2 -16 -4 -16 -6 0 -7 -5 -3 -12 4 -7 3 -8 -4 -4 -6 4 -8 14 -5 23 4 11 3
14 -5 9 -7 -4 -12 -13 -12 -21 0 -7 -7 -16 -16 -19 -10 -4 -13 -2 -8 6 5 7 3
8 -5 4 -7 -5 -10 -15 -6 -23 5 -14 3 -14 -12 -2 -9 8 -14 9 -10 3 4 -7 -2 -22
-12 -35 -16 -20 -21 -22 -35 -9 -10 7 -16 9 -15 4 4 -21 -2 -34 -16 -34 -8 0
-14 -6 -12 -12 1 -8 -6 -12 -17 -10 -13 2 -16 -1 -10 -10 6 -10 5 -11 -7 -1
-10 8 -19 9 -29 1 -12 -8 -12 -9 3 -4 9 3 17 1 17 -4 0 -5 -10 -10 -22 -12
-15 -2 -23 -10 -23 -22 0 -11 -7 -21 -15 -23 -12 -4 -12 -3 -2 5 11 7 11 10
-2 15 -9 4 -15 1 -13 -6 1 -7 -3 -11 -9 -10 -6 1 -10 -9 -9 -22 2 -16 -1 -22
-10 -19 -7 3 -16 0 -20 -5 -11 -20 -26 -1 -15 19 7 13 7 21 -2 26 -6 4 -8 3
-4 -4 3 -6 2 -13 -4 -17 -5 -3 -10 1 -10 9 0 8 6 19 14 23 12 7 11 10 -2 23
-14 13 -15 12 -8 -5 4 -11 4 -16 0 -12 -4 4 -13 -2 -21 -13 -8 -11 -19 -20
-25 -20 -7 0 -3 7 8 15 10 8 15 15 10 15 -5 0 4 12 19 26 l29 26 -30 -4 c-16
-3 -23 -3 -16 -1 6 3 12 11 12 18 0 8 6 13 13 11 6 -1 9 -1 4 1 -4 3 -4 10 -1
15 4 7 2 8 -4 4 -7 -4 -12 -3 -12 3 0 5 6 12 13 14 9 4 9 6 0 6 -7 1 -10 8 -7
16 4 8 1 15 -5 15 -15 0 -10 22 9 36 11 10 7 11 -19 8 -28 -3 -31 -2 -21 10 6
8 18 12 26 9 9 -3 14 1 13 13 0 11 -3 14 -5 7 -3 -6 -19 -10 -37 -8 -18 2 -24
1 -14 -1 9 -3 15 -9 12 -14 -3 -5 -12 -7 -19 -4 -20 8 -29 -12 -13 -28 15 -15
16 -36 2 -46 -5 -4 -11 -14 -13 -22 -2 -11 1 -10 12 3 13 17 15 17 29 -3 11
-16 16 -18 21 -8 3 7 4 4 3 -7 -1 -11 -8 -25 -16 -31 -20 -16 -24 -47 -5 -40
8 3 12 1 9 -4 -3 -5 -19 -8 -35 -6 -16 2 -27 -1 -24 -5 3 -5 -2 -16 -10 -25
-9 -8 -16 -20 -16 -26 0 -6 9 1 21 16 11 14 26 26 32 25 8 0 8 -2 -1 -6 -6 -2
-10 -9 -6 -14 3 -5 0 -9 -6 -9 -7 0 -20 -10 -31 -22 -12 -15 -18 -17 -17 -8 2
9 -4 14 -14 14 -10 -1 -15 2 -12 7 3 5 0 9 -6 9 -6 0 -8 5 -4 12 5 8 2 9 -11
4 -15 -5 -16 -4 -5 9 11 13 11 16 -1 13 -8 -2 -13 3 -11 11 3 12 0 12 -13 1
-13 -11 -15 -10 -10 2 3 8 -4 23 -16 34 -13 10 -19 13 -15 7 10 -18 -18 -17
-33 1 -6 7 -8 22 -5 32 6 18 6 18 -8 1 -13 -17 -15 -17 -27 -3 -8 9 -19 16
-26 16 -12 0 -30 27 -27 42 1 4 -6 4 -15 1 -11 -4 -14 -3 -9 5 6 11 -5 17 -26
13 -5 0 -8 3 -8 9 0 5 6 10 13 10 9 0 8 3 -2 9 -7 5 -26 8 -42 7 -15 -1 -26 1
-23 5 6 10 -22 30 -31 21 -5 -4 -5 -1 -1 6 6 11 -4 15 -31 11 -11 -1 -24 31
-17 43 4 6 3 8 -4 4 -5 -3 -13 0 -15 6 -3 8 -6 6 -6 -4 -1 -10 -5 -18 -11 -18
-5 0 -7 7 -4 15 4 10 0 15 -11 15 -9 0 -13 5 -10 10 4 6 3 9 -2 8 -4 -1 -18 3
-29 10 -12 6 -25 8 -30 4 -5 -4 -3 0 4 10 10 12 10 18 1 24 -7 4 -9 3 -6 -3 4
-6 -2 -13 -13 -16 -15 -4 -20 -1 -18 10 2 9 -5 17 -15 18 -9 2 -15 -1 -11 -6
3 -5 10 -6 16 -3 7 4 8 2 4 -4 -7 -12 -36 -5 -36 9 0 15 23 58 29 55 3 -1 15
6 25 17 14 15 15 19 4 15 -9 -4 -22 -1 -29 5 -11 10 -11 9 0 -5z m-17 -28 c-5
-21 -22 -40 -36 -40 -8 0 -8 3 0 8 6 4 13 15 17 24 4 12 2 15 -8 11 -8 -3 -12
-9 -9 -14 3 -5 -2 -6 -11 -3 -11 5 -13 10 -5 19 14 17 56 13 52 -5z m-109 -25
c-3 -9 -8 -14 -10 -11 -3 3 -2 9 2 15 9 16 15 13 8 -4z m1712 -15 c3 -5 1 -10
-4 -10 -6 0 -11 5 -11 10 0 6 2 10 4 10 3 0 8 -4 11 -10z m-1508 -76 c-3 -3
-12 -4 -19 -1 -8 3 -5 6 6 6 11 1 17 -2 13 -5z m218 -134 c-3 -5 -12 -10 -18
-10 -7 0 -6 4 3 10 19 12 23 12 15 0z m381 -5 c5 -12 10 -13 19 -5 10 9 13 7
10 -7 -1 -10 0 -22 4 -28 10 -18 9 -33 -3 -31 -22 3 -34 16 -31 34 1 9 -4 25
-13 35 -10 11 -11 17 -3 17 6 0 14 -7 17 -15z m44 -225 c0 -5 -5 -10 -11 -10
-5 0 -7 5 -4 10 3 6 8 10 11 10 2 0 4 -4 4 -10z m-45 -9 c3 -5 2 -12 -3 -15
-5 -3 -9 1 -9 9 0 17 3 19 12 6z m-155 -31 c0 -5 -5 -10 -11 -10 -5 0 -7 5 -4
10 3 6 8 10 11 10 2 0 4 -4 4 -10z m31 -30 c5 0 9 -5 9 -11 0 -8 -5 -8 -15 1
-8 7 -14 20 -14 29 1 13 2 13 6 -1 2 -10 9 -18 14 -18z m229 -29 c0 -5 -7 -12
-16 -15 -14 -5 -15 -4 -4 9 14 17 20 19 20 6z m-43 -16 c0 -8 -4 -12 -9 -9 -5
3 -6 10 -3 15 9 13 12 11 12 -6z"/>
<path d="M1299 548 c-10 -32 2 -61 15 -39 4 5 2 12 -4 16 -6 4 -8 11 -5 16 4
5 4 9 1 9 -3 0 -6 -1 -7 -2z"/>
<path d="M911 844 c0 -11 3 -14 6 -6 3 7 2 16 -1 19 -3 4 -6 -2 -5 -13z"/>
<path d="M1633 829 c-2 -17 0 -18 13 -4 9 8 20 13 25 10 5 -4 9 -2 9 3 0 5
-10 10 -23 10 -15 0 -23 -7 -24 -19z"/>
<path d="M1690 835 c0 -8 2 -15 4 -15 2 0 6 7 10 15 3 8 1 15 -4 15 -6 0 -10
-7 -10 -15z"/>
<path d="M1916 838 c3 -4 9 -8 15 -8 5 0 9 4 9 8 0 5 -7 9 -15 9 -8 0 -12 -4
-9 -9z"/>
<path d="M1435 830 c-3 -5 -1 -10 4 -10 6 0 11 5 11 10 0 6 -2 10 -4 10 -3 0
-8 -4 -11 -10z"/>
<path d="M635 820 c-3 -6 1 -7 9 -4 18 7 21 14 7 14 -6 0 -13 -4 -16 -10z"/>
<path d="M9 688 c-8 -32 -8 -98 1 -98 6 0 8 5 5 10 -3 6 -1 10 5 10 6 0 10 -6
9 -12 -3 -25 1 -39 10 -34 5 3 11 -1 14 -9 4 -10 1 -12 -11 -9 -15 5 -15 4 1
-9 9 -8 16 -21 14 -28 -2 -8 -2 -11 0 -7 3 4 10 2 18 -5 7 -7 10 -16 7 -22 -3
-5 2 -4 12 4 9 8 16 10 15 5 -4 -22 2 -35 13 -28 7 5 9 2 5 -9 -8 -20 18 -43
29 -26 5 8 3 9 -6 4 -9 -6 -11 -4 -5 5 8 13 14 8 48 -44 12 -18 13 -18 13 2 0
11 -3 20 -6 19 -3 -1 -6 1 -8 6 -6 18 -1 19 17 3 12 -11 17 -25 13 -34 -5 -15
-4 -16 13 -2 11 9 16 10 11 3 -5 -9 1 -13 19 -13 17 0 24 4 19 12 -4 7 -3 8 4
4 6 -4 9 -12 6 -20 -3 -7 2 -13 10 -13 8 0 13 3 11 7 -2 4 2 7 10 7 8 0 14 -3
13 -6 -2 -20 4 -29 21 -34 15 -3 18 -1 14 11 -4 10 -2 13 5 8 7 -4 12 -13 12
-21 0 -15 27 -28 35 -16 3 5 14 7 25 4 11 -3 17 -10 13 -17 -4 -6 2 -4 12 4
13 10 16 11 11 2 -5 -9 -3 -13 5 -11 26 3 39 -1 39 -12 0 -8 -4 -8 -14 0 -11
9 -16 9 -22 0 -4 -7 -3 -9 4 -5 6 3 13 2 17 -3 3 -6 13 -7 22 -4 12 5 14 3 8
-8 -7 -11 -5 -11 10 1 17 14 17 13 11 -10 -4 -14 -4 -20 1 -14 4 6 18 10 30 9
12 -1 20 2 17 7 -3 4 0 8 5 8 6 0 11 -8 11 -17 0 -15 2 -16 10 -3 8 13 10 12
10 -2 0 -10 4 -18 10 -18 5 0 8 6 6 13 -1 6 -1 9 1 5 3 -5 12 -8 20 -8 12 0
13 -3 4 -14 -9 -11 -9 -16 0 -22 7 -4 9 -3 6 3 -9 14 16 24 32 14 7 -5 9 -16
5 -27 -6 -17 -5 -17 12 2 17 19 21 20 34 6 13 -14 12 -15 -3 -9 -10 4 -16 3
-12 -2 3 -6 14 -9 25 -8 10 1 16 5 14 9 -3 4 -1 8 4 8 11 0 26 -30 23 -43 -1
-5 3 -6 9 -2 8 5 7 12 -2 23 -8 10 -8 13 -1 9 6 -4 14 -1 17 5 3 9 5 8 3 -2
-1 -8 3 -17 8 -19 6 -2 27 -14 47 -27 20 -13 40 -19 43 -14 3 5 14 2 25 -7 10
-9 16 -21 13 -27 -4 -6 0 -5 8 1 12 10 18 10 29 0 12 -10 12 -9 2 4 -9 12 -9
16 3 16 7 0 14 -3 13 -6 -2 -23 5 -31 28 -31 17 0 23 -4 18 -13 -6 -9 -4 -9 7
0 19 18 32 16 25 -4 -6 -17 -5 -17 7 -1 13 17 15 16 26 -5 6 -12 9 -14 7 -5
-7 24 9 31 25 11 10 -12 10 -14 2 -9 -8 4 -13 2 -13 -5 0 -6 8 -9 20 -6 11 3
23 1 26 -4 3 -5 2 -9 -3 -8 -4 1 -15 1 -23 0 -12 -1 -13 -3 -1 -10 7 -5 44 -9
82 -9 60 0 71 3 80 20 10 18 9 20 -7 14 -15 -5 -16 -4 -7 5 18 18 35 2 23 -22
-13 -23 -4 -25 17 -4 8 8 19 12 25 9 7 -5 8 -2 3 6 -6 10 -4 12 9 7 9 -4 15
-3 12 2 -3 5 9 12 27 15 17 3 43 9 57 12 14 3 30 6 37 6 6 1 9 8 6 16 -4 10
-8 10 -13 2 -5 -8 -9 -7 -13 5 -4 9 -3 13 2 10 6 -3 14 3 20 12 6 11 11 13 12
6 1 -7 2 -17 3 -22 0 -5 5 -13 10 -18 5 -4 6 -3 3 3 -4 6 1 20 9 30 15 19 15
19 10 0 -5 -14 -3 -16 6 -9 7 6 20 9 29 8 12 -2 15 3 12 19 -4 19 -3 19 7 3 8
-12 16 -15 28 -8 9 4 25 7 34 6 10 -2 21 2 25 7 3 7 1 8 -5 4 -15 -9 -15 14
-1 34 9 13 10 12 5 -3 -3 -9 -1 -17 4 -17 6 0 10 4 10 8 0 5 12 14 28 21 l27
11 -24 -20 c-13 -11 -19 -20 -14 -20 5 0 14 5 20 11 9 9 29 16 56 18 5 1 5 5
2 11 -3 5 3 10 13 10 15 0 19 5 16 22 -4 21 -4 21 4 3 5 -11 7 -27 4 -35 -2
-8 3 -5 12 8 10 12 22 19 28 16 6 -4 8 -2 4 4 -3 6 7 17 24 25 20 11 32 12 36
5 5 -7 2 -8 -6 -3 -9 6 -11 4 -5 -4 5 -9 10 -10 18 -2 15 15 30 14 21 -1 -6
-10 -5 -10 8 -1 8 7 19 9 23 5 5 -4 5 -1 1 6 -4 7 -13 9 -19 5 -7 -4 -6 0 2
10 14 18 26 23 17 8 -13 -20 23 -18 41 2 12 15 13 18 2 9 -13 -10 -19 -9 -30
5 -11 15 -11 16 1 6 11 -10 17 -10 31 3 13 12 19 12 25 3 5 -8 3 -10 -7 -4 -8
5 -11 4 -6 0 10 -11 48 -14 41 -3 -5 8 17 12 44 9 6 -1 12 3 12 9 0 6 -4 8
-10 5 -5 -3 -10 -1 -10 4 0 16 11 13 33 -6 11 -10 17 -12 13 -5 -4 6 -3 12 3
12 5 0 22 11 37 25 14 13 31 22 38 18 19 -12 47 -11 36 2 -7 8 -1 11 20 9 17
-1 27 2 24 7 -3 5 -2 9 3 10 28 2 47 9 57 20 8 9 8 10 -2 4 -16 -8 -79 -19
-72 -12 3 3 18 8 34 11 16 3 39 15 51 26 12 12 26 20 31 19 21 -4 26 2 14 16
-11 13 -10 14 2 10 13 -5 58 36 58 53 -1 4 -11 -6 -24 -22 -17 -20 -26 -25
-31 -16 -5 8 -4 11 2 7 11 -7 28 20 24 36 -1 5 3 6 8 3 5 -4 12 -2 16 4 3 5 1
10 -5 10 -6 0 -8 5 -4 11 4 8 11 3 20 -12 11 -21 13 -22 19 -6 4 9 1 25 -6 34
-8 9 -9 14 -2 10 7 -5 11 4 11 28 0 24 -5 35 -15 35 -8 0 -11 4 -8 10 3 6 -1
7 -10 3 -13 -5 -14 -7 -3 -14 10 -7 9 -9 -4 -9 -10 0 -18 -5 -18 -10 0 -7 7
-7 21 0 11 7 23 9 27 6 3 -3 0 -6 -6 -6 -6 0 -9 -8 -6 -17 5 -15 4 -16 -5 -3
-9 13 -12 13 -20 1 -11 -17 -45 -25 -34 -9 4 8 -4 9 -26 5 -21 -5 -30 -3 -25
4 7 13 -38 -12 -48 -26 -4 -5 -8 -6 -8 -1 0 5 -7 3 -15 -4 -8 -7 -15 -18 -15
-24 0 -6 5 -4 11 4 9 13 10 13 6 0 -2 -8 -9 -15 -16 -15 -6 0 -15 -6 -20 -13
-7 -11 -10 -10 -15 3 -5 14 -9 15 -20 6 -10 -8 -16 -9 -21 -1 -3 6 -11 8 -16
4 -5 -3 -7 -10 -3 -15 3 -5 9 -7 14 -4 5 3 12 0 16 -6 4 -7 3 -9 -4 -5 -6 3
-18 -2 -28 -11 -14 -14 -17 -15 -12 -3 4 11 -1 16 -15 18 -17 1 -19 -1 -7 -8
8 -5 11 -10 6 -10 -5 0 -2 -8 5 -18 13 -15 12 -16 -3 -3 -10 7 -18 10 -18 6 0
-4 -6 -2 -14 4 -11 9 -16 9 -22 0 -4 -8 -3 -9 4 -5 7 4 12 2 12 -3 0 -6 -7
-11 -16 -11 -9 0 -12 -5 -8 -12 4 -7 3 -8 -4 -4 -6 4 -9 13 -5 21 11 29 -7 14
-22 -17 -12 -26 -14 -28 -10 -8 3 14 2 20 -1 14 -3 -7 -13 -11 -22 -9 -9 1
-11 0 -4 -2 13 -5 17 -23 5 -24 -45 -4 -67 -10 -73 -20 -6 -8 -10 -7 -16 3 -8
13 -12 12 -29 -5 -20 -20 -20 -20 5 -7 23 12 24 12 11 -3 -7 -10 -20 -17 -27
-17 -8 0 -14 -7 -14 -16 0 -8 -4 -13 -8 -10 -4 2 -14 1 -22 -4 -10 -6 -21 -3
-34 8 -11 9 -16 11 -12 5 4 -7 2 -13 -3 -13 -6 0 -11 -5 -11 -11 0 -8 5 -8 15
1 9 7 15 8 15 2 0 -10 -29 -26 -43 -23 -4 0 -10 -6 -14 -15 -4 -12 -8 -13 -14
-3 -13 21 -38 19 -34 -3 4 -17 2 -18 -12 -6 -14 11 -16 11 -8 -1 6 -11 4 -13
-9 -8 -14 6 -17 3 -12 -9 5 -14 4 -15 -9 -4 -8 7 -12 17 -8 23 3 6 1 7 -5 3
-9 -5 -9 -13 -2 -27 7 -13 7 -19 0 -19 -5 0 -10 5 -10 10 0 6 -4 10 -10 10 -5
0 -7 -7 -4 -15 4 -10 0 -13 -15 -10 -12 2 -19 0 -17 -4 3 -4 -9 -9 -27 -10
-69 -5 -67 -4 -54 -20 10 -12 9 -14 -7 -8 -16 6 -17 5 -7 -7 10 -12 8 -13 -10
-9 -18 5 -21 3 -16 -10 8 -22 3 -21 -19 1 -17 16 -17 16 -12 -6 6 -22 5 -23
-11 -8 -17 16 -18 14 -16 -20 1 -32 0 -34 -11 -19 -7 9 -10 24 -7 33 5 10 3
13 -6 7 -7 -4 -11 -18 -8 -31 2 -13 0 -21 -4 -18 -5 3 -9 13 -10 22 0 12 -3
11 -9 -6 -5 -12 -12 -22 -15 -22 -4 0 -3 6 1 13 4 6 4 9 -1 5 -4 -4 -14 -3
-22 4 -8 6 -13 7 -12 2 1 -5 1 -18 0 -28 -1 -20 -1 -20 -15 0 -14 18 -15 18
-21 2 -4 -10 -12 -15 -19 -11 -8 5 -8 3 1 -8 9 -11 6 -19 -15 -39 -14 -14 -22
-19 -18 -13 4 8 2 13 -4 13 -6 0 -8 6 -4 12 4 8 3 10 -2 5 -5 -5 -10 -13 -10
-18 -1 -5 -2 -11 -3 -13 0 -3 -13 1 -27 9 -15 7 -32 11 -39 9 -7 -3 -15 -1
-19 4 -6 11 45 9 65 -3 8 -4 5 1 -6 12 -11 11 -28 18 -37 15 -10 -2 -18 1 -18
7 0 7 5 9 12 5 6 -4 8 -3 5 3 -7 11 -36 11 -55 -1 -9 -5 -27 6 -53 33 -24 24
-45 38 -52 34 -16 -10 -37 -13 -36 -5 4 28 -2 34 -16 16 -13 -18 -14 -18 -8 6
5 25 5 25 -12 5 -14 -17 -16 -17 -11 -3 3 11 0 17 -7 15 -7 -1 -11 6 -9 17 3
18 3 18 -14 2 -13 -14 -19 -15 -25 -5 -4 7 -5 18 -1 24 3 5 -3 3 -13 -5 -10
-8 -16 -10 -12 -3 5 7 -2 14 -15 19 -13 4 -23 5 -23 3 0 -2 -13 6 -29 19 -16
12 -36 22 -45 22 -10 0 -22 5 -29 12 -7 7 -12 8 -12 4 0 -5 8 -15 18 -23 15
-12 14 -13 -8 -1 -14 7 -27 13 -30 14 -3 1 -15 5 -28 9 -20 7 -21 9 -6 20 14
9 14 14 4 20 -9 5 -11 4 -6 -3 4 -7 1 -12 -9 -12 -12 0 -15 6 -10 23 3 12 3
17 -2 11 -9 -12 -104 -14 -97 -2 3 4 11 5 18 2 8 -3 16 -1 20 4 3 5 -5 8 -17
7 -27 -2 -47 4 -47 15 0 5 10 6 23 4 20 -4 20 -4 2 5 -13 5 -25 5 -34 -3 -11
-8 -13 -8 -7 2 5 8 -1 12 -18 12 -14 0 -26 5 -26 10 0 6 -5 10 -11 10 -5 0 -7
-6 -4 -12 4 -7 -2 -3 -14 10 -11 13 -22 18 -26 12 -3 -5 -11 -10 -16 -10 -6 0
-3 7 5 16 19 18 21 28 4 18 -8 -5 -9 -2 -5 10 4 10 3 15 -3 11 -6 -3 -10 -14
-11 -23 0 -11 -2 -12 -6 -4 -2 6 -9 10 -14 7 -5 -4 -6 2 -2 12 5 15 3 16 -8 6
-15 -15 -33 -17 -25 -4 3 5 -3 11 -15 14 -14 4 -18 2 -12 -7 4 -6 1 -5 -7 4
-9 9 -22 15 -30 13 -13 -4 -13 -3 0 6 8 5 17 8 21 5 4 -2 10 0 13 5 4 5 -6 8
-21 6 -35 -4 -55 4 -46 19 4 6 -1 4 -12 -4 -17 -14 -17 -13 -10 9 l7 24 -23
-22 c-20 -19 -25 -19 -38 -7 -11 12 -12 18 -3 29 9 11 8 14 -3 14 -8 0 -12 -4
-9 -8 2 -4 0 -10 -6 -14 -5 -3 -10 1 -10 9 0 9 -6 16 -12 16 -9 0 -8 3 2 10
11 7 7 8 -15 6 -16 -2 -35 2 -42 8 -32 28 -40 33 -60 31 -12 -1 -20 2 -17 6 2
4 0 10 -6 14 -5 3 -10 5 -11 3z m41 -31 c0 -2 -10 -12 -22 -23 l-23 -19 19 23
c18 21 26 27 26 19z m50 -31 c0 -1 -7 -3 -15 -3 -8 0 -15 4 -15 9 0 5 -5 6
-12 2 -7 -4 -8 -3 -4 4 5 9 13 9 27 2 10 -6 19 -12 19 -14z m2318 -51 c-3 -3
-9 2 -12 12 -6 14 -5 15 5 6 7 -7 10 -15 7 -18z m-148 -215 c0 -4 -11 -12 -25
-18 -15 -7 -25 -8 -25 -2 0 6 7 10 16 10 8 0 13 4 10 8 -3 5 1 9 9 9 8 0 15
-3 15 -7z m-1435 -71 c11 -16 1 -19 -13 -3 -7 8 -8 14 -3 14 5 0 13 -5 16 -11z
m30 -19 c3 -5 1 -10 -4 -10 -6 0 -11 5 -11 10 0 6 2 10 4 10 3 0 8 -4 11 -10z
m123 -75 c-3 -3 -9 2 -12 12 -6 14 -5 15 5 6 7 -7 10 -15 7 -18z m151 -69 c0
-6 -3 -5 -6 2 -2 6 -9 10 -14 6 -5 -3 -8 0 -7 8 2 7 -2 12 -8 11 -6 -1 -11 5
-11 13 0 10 7 9 24 -8 13 -12 23 -26 22 -32z m578 22 c-3 -8 -6 -5 -6 6 -1 11
2 17 5 13 3 -3 4 -12 1 -19z m-36 -11 c-10 -9 -11 -8 -5 6 3 10 9 15 12 12 3
-3 0 -11 -7 -18z m-671 -28 c0 -6 -4 -7 -10 -4 -5 3 -10 11 -10 16 0 6 5 7 10
4 6 -3 10 -11 10 -16z m520 -27 c0 -5 -7 -9 -15 -9 -8 0 -12 4 -9 9 7 10 24
10 24 0z m-143 -17 c0 -8 -4 -12 -9 -9 -5 3 -6 10 -3 15 9 13 12 11 12 -6z
m103 11 c0 -2 -7 -7 -16 -10 -8 -3 -12 -2 -9 4 6 10 25 14 25 6z m-60 -15 c0
-4 -10 -12 -22 -20 -20 -13 -22 -12 -11 1 7 8 11 17 8 20 -3 2 2 5 10 5 8 0
15 -3 15 -6z"/>
<path d="M1265 680 c-2 -3 7 -6 21 -6 13 0 24 3 24 7 0 9 -40 8 -45 -1z"/>
<path d="M1835 670 c-4 -6 -11 -8 -16 -5 -5 4 -9 1 -9 -4 0 -16 16 -13 30 4 7
8 10 15 7 15 -3 0 -9 -5 -12 -10z"/>
<path d="M2200 665 c-9 -10 -9 -15 -1 -15 6 0 11 5 11 11 0 5 5 7 12 3 7 -4 8
-3 4 4 -9 15 -11 15 -26 -3z"/>
<path d="M2517 656 c-3 -8 1 -20 9 -26 10 -9 14 -9 14 -1 0 6 -4 11 -10 11 -5
0 -7 7 -4 15 4 8 4 15 1 15 -3 0 -7 -6 -10 -14z"/>
<path d="M1296 652 c-2 -4 -1 -14 4 -22 7 -11 9 -9 7 8 -1 24 -3 26 -11 14z"/>
<path d="M1774 624 c-18 -14 -18 -15 4 -4 12 6 22 13 22 15 0 8 -5 6 -26 -11z"/>
<path d="M870 621 c0 -7 -5 -9 -12 -5 -7 5 -8 3 -3 -5 5 -9 10 -10 18 -2 6 6
8 14 4 18 -4 3 -7 1 -7 -6z"/>
<path d="M510 604 c0 -8 5 -12 10 -9 6 4 8 11 5 16 -9 14 -15 11 -15 -7z"/>
<path d="M205 581 c-6 -11 9 -23 19 -14 9 9 7 23 -3 23 -6 0 -12 -4 -16 -9z"/>
<path d="M550 574 c0 -8 5 -12 10 -9 6 4 8 11 5 16 -9 14 -15 11 -15 -7z"/>
<path d="M5 571 c-3 -5 -2 -12 3 -15 5 -3 9 1 9 9 0 17 -3 19 -12 6z"/>
<path d="M1595 509 c-10 -15 3 -25 16 -12 7 7 7 13 1 17 -6 3 -14 1 -17 -5z"/>
<path d="M1030 499 c0 -5 -4 -7 -10 -4 -17 10 -11 -2 8 -16 9 -7 14 -9 10 -5
-4 5 -3 15 3 23 9 9 8 13 0 13 -6 0 -11 -5 -11 -11z"/>
<path d="M1269 478 c-1 -7 -1 -16 0 -20 0 -5 -4 -8 -11 -8 -6 0 -8 -3 -5 -7 4
-3 2 -12 -5 -20 -9 -11 -7 -12 7 -7 14 6 16 4 10 -6 -6 -9 -4 -11 4 -6 7 5 10
11 7 14 -3 3 1 13 9 22 9 10 13 25 9 34 -7 19 -23 21 -25 4z"/>
<path d="M485 460 c-3 -6 1 -7 9 -4 18 7 21 14 7 14 -6 0 -13 -4 -16 -10z"/>
<path d="M2477 453 c-4 -3 -7 -11 -7 -17 0 -6 5 -5 12 2 6 6 9 14 7 17 -3 3
-9 2 -12 -2z"/>
<path d="M1760 430 c-9 -6 -10 -10 -3 -10 6 0 15 5 18 10 8 12 4 12 -15 0z"/>
<path d="M1705 406 c-13 -13 -26 -21 -29 -18 -3 3 -6 0 -6 -6 0 -18 9 -14 42
18 16 17 27 30 23 30 -3 0 -17 -11 -30 -24z"/>
<path d="M866 398 c3 -4 9 -8 15 -8 5 0 9 4 9 8 0 5 -7 9 -15 9 -8 0 -12 -4
-9 -9z"/>
<path d="M1954 384 c-18 -14 -18 -15 4 -4 12 6 22 13 22 15 0 8 -5 6 -26 -11z"/>
<path d="M1190 358 c0 -4 4 -8 9 -8 6 0 12 4 15 8 3 5 -1 9 -9 9 -8 0 -15 -4
-15 -9z"/>
<path d="M735 330 c3 -5 8 -10 11 -10 2 0 4 5 4 10 0 6 -5 10 -11 10 -5 0 -7
-4 -4 -10z"/>
<path d="M1015 329 c-4 -6 -5 -12 -2 -15 2 -3 7 2 10 11 7 17 1 20 -8 4z"/>
<path d="M1426 251 c-4 -5 -2 -12 3 -15 5 -4 12 -2 15 3 4 5 2 12 -3 15 -5 4
-12 2 -15 -3z"/>
<path d="M1960 240 c-9 -6 -10 -10 -3 -10 6 0 15 5 18 10 8 12 4 12 -15 0z"/>
<path d="M711 194 c0 -11 3 -14 6 -6 3 7 2 16 -1 19 -3 4 -6 -2 -5 -13z"/>
<path d="M1253 196 c0 -8 6 -12 14 -9 7 3 10 9 7 14 -8 14 -21 11 -21 -5z"/>
<path d="M860 139 c-13 -9 -13 -10 1 -6 9 3 23 0 30 -6 11 -10 11 -9 0 6 -7 9
-14 17 -15 17 0 0 -8 -5 -16 -11z"/>
<path d="M1170 130 c0 -5 5 -10 11 -10 5 0 7 5 4 10 -3 6 -8 10 -11 10 -2 0
-4 -4 -4 -10z"/>
<path d="M1343 102 c1 -12 6 -18 15 -15 7 3 10 9 5 12 -4 3 -11 10 -15 15 -4
4 -6 -1 -5 -12z"/>
<path d="M1295 100 c3 -5 8 -10 11 -10 2 0 4 5 4 10 0 6 -5 10 -11 10 -5 0 -7
-4 -4 -10z"/>
</g>
</svg>
