<svg xmlns="http://www.w3.org/2000/svg" version="1.1" xmlns:xlink="http://www.w3.org/1999/xlink" xmlns:svgjs="http://svgjs.com/svgjs" width="192" height="42"><svg width="192" height="42" viewBox="0 0 192 42" fill="none" xmlns="http://www.w3.org/2000/svg">
<path d="M22.9997 37.8316H23H22.9997ZM34.3959 28.3183C33.3976 28.119 32.6834 28.0013 32.6834 28.0013L34.3959 28.7419L36.7614 29.765L37.2153 29.8427C36.484 29.8942 35.6461 30.0495 34.7142 30.3767C34.6118 30.4128 34.5053 30.4533 34.3959 30.497C34.2763 30.5449 34.1515 30.5979 34.0242 30.6544C33.5193 30.8775 32.9589 31.1641 32.3641 31.4957C30.8349 32.348 29.088 33.4891 27.5193 34.5686C25.9221 35.6675 24.5105 36.7021 23.7065 37.3007L23.5488 35.0707L23.2369 30.6544L23.2036 30.1816C23.3201 30.1439 23.4841 30.0914 23.6859 30.0273C24.0882 29.8994 24.6434 29.7266 25.2854 29.5349C25.9601 29.3332 26.7299 29.1117 27.5193 28.8999C29.3514 28.4087 31.2836 27.9751 32.3641 27.9843C32.4799 27.9851 32.5887 27.9898 32.6834 28.0013C32.6834 28.0013 32.5851 27.9419 32.3641 27.8737C31.8805 27.7238 30.8095 27.5319 28.8991 27.8284C28.4429 27.8993 27.978 27.9958 27.5193 28.1075C26.7302 28.2994 25.9603 28.5361 25.2854 28.7662C24.2794 29.1091 23.4854 29.436 23.1607 29.5741L23.1604 29.5694H22.9997H22.8393L22.839 29.5741C22.4853 29.4237 21.5755 29.0492 20.4407 28.6742C19.754 28.4474 18.9851 28.2205 18.2068 28.0429C17.8377 27.9587 17.4662 27.8854 17.1007 27.8284C14.655 27.4487 13.5856 27.87 13.362 27.9775C13.3312 27.9924 13.3163 28.0013 13.3163 28.0013C13.3304 27.9997 13.3474 27.9992 13.362 27.9976C13.4688 27.9869 13.5866 27.9814 13.7178 27.983C14.7567 27.9953 16.5054 28.3792 18.2068 28.8272C18.9856 29.0322 19.7545 29.2506 20.4407 29.4535C21.5327 29.776 22.4152 30.0584 22.7962 30.1816L22.7628 30.6544L22.4509 35.0707L22.2943 37.2869C21.4449 36.6372 19.9162 35.4868 18.2068 34.289C16.6147 33.1737 14.8671 32.018 13.362 31.1848C13.007 30.9881 12.6658 30.8103 12.3431 30.6544C12.04 30.508 11.7538 30.3819 11.4883 30.2799C11.4198 30.2538 11.351 30.2268 11.2858 30.2038C10.5642 29.9507 9.89983 29.8079 9.29657 29.7399L11.4883 28.7919L13.3163 28.0013C13.3163 28.0013 12.5467 28.1281 11.4883 28.3415C9.30376 28.7817 5.88752 29.5898 5.45959 30.4117L13.362 34.2435L18.0371 36.5107L22.9997 38.9169L27.9626 36.5107L32.3641 34.3761L40.5401 30.4117C40.1045 29.5751 36.5735 28.7526 34.3959 28.3183Z" fill="#CEB041"></path>
<path d="M22.9423 9.74638C22.9423 9.74638 33.7008 11.265 36.1023 14.1982C36.1023 14.1982 36.5315 9.4213 31.5249 6.45618C25.4333 2.84876 22.9423 6.67572e-06 22.9423 6.67572e-06C22.9423 6.67572e-06 20.4509 2.84876 14.3593 6.45618C9.35281 9.4213 9.78202 14.1982 9.78202 14.1982C12.1008 11.3662 22.9423 9.74638 22.9423 9.74638Z" fill="#CEB041"></path>
<path d="M33.2708 26.1735C33.5121 26.2154 33.9077 26.2862 34.3959 26.3806V15.8191C34.3959 13.501 22.9422 11.6217 22.9422 11.6217C22.9422 11.6217 11.4883 13.501 11.4883 15.8191V26.4031C12.0302 26.2975 12.4689 26.2188 12.729 26.1735C12.8984 26.1074 13.1099 26.0394 13.362 25.9782V18.4704C13.362 18.4668 13.3625 18.4636 13.3625 18.46C13.3599 18.4636 13.3558 18.4668 13.3535 18.4704C13.3535 18.4704 13.2742 17.4419 14.1991 16.8035C15.3243 16.0268 15.7843 15.4132 15.7843 15.4132C15.7843 15.4132 16.2445 16.0268 17.3699 16.8035C18.2948 17.4419 18.2155 18.4704 18.2155 18.4704C18.213 18.4668 18.2089 18.4636 18.2063 18.46C18.2063 18.4634 18.2068 18.4668 18.2068 18.4704V26.0974C18.9728 26.2541 19.7347 26.4596 20.4406 26.6762V17.0305C20.4406 17.0271 20.4412 17.0237 20.4412 17.02C20.4386 17.0237 20.4345 17.0271 20.4319 17.0305C20.4319 17.0305 20.3529 16.0019 21.2775 15.3635C22.4029 14.5868 22.8632 13.9733 22.8632 13.9733C22.8632 13.9733 23.3232 14.5868 24.4486 15.3635C25.3732 16.0019 25.2942 17.0305 25.2942 17.0305C25.2916 17.0271 25.2875 17.0237 25.2849 17.02C25.2849 17.0234 25.2854 17.0271 25.2854 17.0305V26.7617C25.9837 26.5404 26.7463 26.3263 27.5193 26.1565V18.4704C27.5193 18.4668 27.5198 18.4636 27.5198 18.46C27.5172 18.4636 27.5131 18.4668 27.5108 18.4704C27.5108 18.4704 27.4315 17.4419 28.3564 16.8035C29.4815 16.0268 29.9416 15.4132 29.9416 15.4132C29.9416 15.4132 30.4018 16.0268 31.5272 16.8035C32.4521 17.4419 32.3728 18.4704 32.3728 18.4704C32.3702 18.4668 32.3661 18.4636 32.3636 18.46C32.3636 18.4634 32.3641 18.4668 32.3641 18.4704V25.9188C32.7425 25.9925 33.0438 26.0849 33.2708 26.1735Z" fill="#CEB041"></path>
<path d="M39.8152 17.184C39.8152 17.184 42.0896 17.5051 42.5971 18.1252C42.5971 18.1252 42.688 16.7135 41.6296 16.0866C40.342 15.3241 39.8152 14.722 39.8152 14.722C39.8152 14.722 39.2884 15.3241 38.0008 16.0866C36.9424 16.7135 37.033 18.1252 37.033 18.1252C37.5233 17.5266 39.8152 17.184 39.8152 17.184Z" fill="#CEB041"></path>
<path d="M37.394 19.6208V27.0399C39.4566 27.5559 40.9213 28.0779 41.7769 28.8789H42.2364V19.6208C42.2364 19.1307 39.8152 18.7335 39.8152 18.7335C39.8152 18.7335 37.394 19.1307 37.394 19.6208Z" fill="#CEB041"></path>
<path d="M6.18452 17.184C6.18452 17.184 8.47638 17.5266 8.96669 18.1252C8.96669 18.1252 9.0573 16.7135 7.99891 16.0866C6.71128 15.3241 6.18452 14.722 6.18452 14.722C6.18452 14.722 5.65802 15.3241 4.37038 16.0866C3.31199 16.7135 3.4026 18.1252 3.4026 18.1252C3.91036 17.5051 6.18452 17.184 6.18452 17.184Z" fill="#CEB041"></path>
<path d="M3.76328 19.6208V28.8789H4.22303C5.07838 28.0779 6.54339 27.5559 8.60602 27.0399V19.6208C8.60602 19.1307 6.18452 18.7335 6.18452 18.7335C6.18452 18.7335 3.76328 19.1307 3.76328 19.6208Z" fill="#CEB041"></path>
<path d="M32.5828 36.7834L22.9997 40.8823L13.4192 36.784L0 31.0441C0.297701 33.1577 1.74711 34.9162 3.73914 35.5799L22.9997 42L42.2606 35.5799C44.2526 34.9162 45.7022 33.1577 46 31.0441L32.5828 36.7834Z" fill="#CEB041"></path>
<path d="M62 21.226C61.88 21.094 61.706 20.956 61.478 20.812C61.25 20.656 60.98 20.512 60.668 20.38C60.356 20.248 60.02 20.14 59.66 20.056C59.3 19.972 58.928 19.93 58.544 19.93C57.704 19.93 57.08 20.086 56.672 20.398C56.264 20.71 56.06 21.142 56.06 21.694C56.06 22.102 56.174 22.426 56.402 22.666C56.63 22.894 56.978 23.086 57.446 23.242C57.914 23.398 58.502 23.566 59.21 23.746C60.074 23.95 60.824 24.196 61.46 24.484C62.096 24.76 62.582 25.132 62.918 25.6C63.254 26.068 63.422 26.686 63.422 27.454C63.422 28.102 63.302 28.66 63.062 29.128C62.822 29.596 62.486 29.98 62.054 30.28C61.622 30.568 61.124 30.784 60.56 30.928C59.996 31.06 59.39 31.126 58.742 31.126C58.106 31.126 57.47 31.06 56.834 30.928C56.21 30.796 55.61 30.604 55.034 30.352C54.47 30.088 53.948 29.77 53.468 29.398L54.386 27.67C54.542 27.826 54.764 28 55.052 28.192C55.352 28.372 55.694 28.546 56.078 28.714C56.474 28.882 56.9 29.026 57.356 29.146C57.824 29.254 58.298 29.308 58.778 29.308C59.582 29.308 60.194 29.17 60.614 28.894C61.046 28.606 61.262 28.198 61.262 27.67C61.262 27.238 61.124 26.896 60.848 26.644C60.572 26.38 60.17 26.158 59.642 25.978C59.114 25.798 58.484 25.618 57.752 25.438C56.912 25.21 56.21 24.964 55.646 24.7C55.082 24.424 54.656 24.076 54.368 23.656C54.092 23.224 53.954 22.678 53.954 22.018C53.954 21.178 54.158 20.47 54.566 19.894C54.974 19.306 55.526 18.868 56.222 18.58C56.93 18.28 57.722 18.13 58.598 18.13C59.174 18.13 59.72 18.196 60.236 18.328C60.752 18.448 61.232 18.616 61.676 18.832C62.132 19.048 62.546 19.294 62.918 19.57L62 21.226ZM64.4903 28.246C64.4903 27.646 64.6583 27.124 64.9943 26.68C65.3423 26.224 65.8163 25.876 66.4163 25.636C67.0163 25.384 67.7123 25.258 68.5043 25.258C68.9243 25.258 69.3503 25.288 69.7823 25.348C70.2263 25.408 70.6163 25.504 70.9523 25.636V25.042C70.9523 24.382 70.7543 23.866 70.3583 23.494C69.9623 23.122 69.3923 22.936 68.6483 22.936C68.1203 22.936 67.6223 23.032 67.1543 23.224C66.6863 23.404 66.1883 23.662 65.6603 23.998L64.9943 22.666C65.6183 22.246 66.2423 21.934 66.8663 21.73C67.5023 21.526 68.1683 21.424 68.8643 21.424C70.1243 21.424 71.1143 21.76 71.8343 22.432C72.5663 23.092 72.9323 24.034 72.9323 25.258V28.768C72.9323 28.996 72.9683 29.158 73.0403 29.254C73.1243 29.35 73.2623 29.404 73.4543 29.416V31C73.2743 31.036 73.1123 31.06 72.9683 31.072C72.8243 31.084 72.7043 31.09 72.6083 31.09C72.1883 31.09 71.8703 30.988 71.6543 30.784C71.4383 30.58 71.3123 30.34 71.2763 30.064L71.2223 29.524C70.8143 30.052 70.2923 30.46 69.6563 30.748C69.0203 31.036 68.3783 31.18 67.7303 31.18C67.1063 31.18 66.5483 31.054 66.0563 30.802C65.5643 30.538 65.1803 30.184 64.9043 29.74C64.6283 29.296 64.4903 28.798 64.4903 28.246ZM70.4843 28.822C70.6283 28.666 70.7423 28.51 70.8263 28.354C70.9103 28.198 70.9523 28.06 70.9523 27.94V26.86C70.6163 26.728 70.2623 26.632 69.8903 26.572C69.5183 26.5 69.1523 26.464 68.7923 26.464C68.0723 26.464 67.4843 26.608 67.0283 26.896C66.5843 27.184 66.3623 27.58 66.3623 28.084C66.3623 28.36 66.4343 28.624 66.5783 28.876C66.7343 29.128 66.9503 29.332 67.2263 29.488C67.5143 29.644 67.8683 29.722 68.2883 29.722C68.7203 29.722 69.1343 29.638 69.5303 29.47C69.9263 29.302 70.2443 29.086 70.4843 28.822ZM75.8218 23.35H74.5618V21.82H75.8218V21.442C75.8218 20.95 75.8998 20.482 76.0558 20.038C76.2118 19.582 76.4458 19.18 76.7578 18.832C77.0698 18.472 77.4478 18.19 77.8918 17.986C78.3478 17.782 78.8758 17.68 79.4758 17.68C79.9198 17.68 80.3338 17.728 80.7178 17.824C81.1138 17.92 81.4738 18.052 81.7978 18.22C82.1338 18.376 82.4278 18.544 82.6798 18.724L81.8698 20.2C81.6058 19.96 81.2698 19.762 80.8618 19.606C80.4538 19.45 80.0338 19.372 79.6018 19.372C79.1938 19.372 78.8518 19.468 78.5758 19.66C78.3118 19.852 78.1138 20.104 77.9818 20.416C77.8618 20.728 77.8018 21.052 77.8018 21.388V21.82H82.7338V31H80.7538V23.35H77.8018V31H75.8218V23.35ZM93.5499 31H91.5699V25.726C91.5699 24.85 91.4259 24.208 91.1379 23.8C90.8619 23.392 90.4479 23.188 89.8959 23.188C89.5119 23.188 89.1279 23.284 88.7439 23.476C88.3719 23.668 88.0359 23.932 87.7359 24.268C87.4359 24.592 87.2199 24.97 87.0879 25.402V31H85.1079V21.586H86.9079V23.476C87.1479 23.056 87.4599 22.696 87.8439 22.396C88.2399 22.084 88.6839 21.844 89.1759 21.676C89.6679 21.508 90.1899 21.424 90.7419 21.424C91.3059 21.424 91.7679 21.526 92.1279 21.73C92.4999 21.934 92.7879 22.216 92.9919 22.576C93.2079 22.924 93.3519 23.332 93.4239 23.8C93.5079 24.256 93.5499 24.742 93.5499 25.258V31ZM95.1642 28.246C95.1642 27.646 95.3322 27.124 95.6682 26.68C96.0162 26.224 96.4902 25.876 97.0902 25.636C97.6902 25.384 98.3862 25.258 99.1782 25.258C99.5982 25.258 100.024 25.288 100.456 25.348C100.9 25.408 101.29 25.504 101.626 25.636V25.042C101.626 24.382 101.428 23.866 101.032 23.494C100.636 23.122 100.066 22.936 99.3222 22.936C98.7942 22.936 98.2962 23.032 97.8282 23.224C97.3602 23.404 96.8622 23.662 96.3342 23.998L95.6682 22.666C96.2922 22.246 96.9162 21.934 97.5402 21.73C98.1762 21.526 98.8422 21.424 99.5382 21.424C100.798 21.424 101.788 21.76 102.508 22.432C103.24 23.092 103.606 24.034 103.606 25.258V28.768C103.606 28.996 103.642 29.158 103.714 29.254C103.798 29.35 103.936 29.404 104.128 29.416V31C103.948 31.036 103.786 31.06 103.642 31.072C103.498 31.084 103.378 31.09 103.282 31.09C102.862 31.09 102.544 30.988 102.328 30.784C102.112 30.58 101.986 30.34 101.95 30.064L101.896 29.524C101.488 30.052 100.966 30.46 100.33 30.748C99.6942 31.036 99.0522 31.18 98.4042 31.18C97.7802 31.18 97.2222 31.054 96.7302 30.802C96.2382 30.538 95.8542 30.184 95.5782 29.74C95.3022 29.296 95.1642 28.798 95.1642 28.246ZM101.158 28.822C101.302 28.666 101.416 28.51 101.5 28.354C101.584 28.198 101.626 28.06 101.626 27.94V26.86C101.29 26.728 100.936 26.632 100.564 26.572C100.192 26.5 99.8262 26.464 99.4662 26.464C98.7462 26.464 98.1582 26.608 97.7022 26.896C97.2582 27.184 97.0362 27.58 97.0362 28.084C97.0362 28.36 97.1082 28.624 97.2522 28.876C97.4082 29.128 97.6242 29.332 97.9002 29.488C98.1882 29.644 98.5422 29.722 98.9622 29.722C99.3942 29.722 99.8082 29.638 100.204 29.47C100.6 29.302 100.918 29.086 101.158 28.822ZM109.772 28.246C109.772 27.646 109.94 27.124 110.276 26.68C110.624 26.224 111.098 25.876 111.698 25.636C112.298 25.384 112.994 25.258 113.786 25.258C114.206 25.258 114.632 25.288 115.064 25.348C115.508 25.408 115.898 25.504 116.234 25.636V25.042C116.234 24.382 116.036 23.866 115.64 23.494C115.244 23.122 114.674 22.936 113.93 22.936C113.402 22.936 112.904 23.032 112.436 23.224C111.968 23.404 111.47 23.662 110.942 23.998L110.276 22.666C110.9 22.246 111.524 21.934 112.148 21.73C112.784 21.526 113.45 21.424 114.146 21.424C115.406 21.424 116.396 21.76 117.116 22.432C117.848 23.092 118.214 24.034 118.214 25.258V28.768C118.214 28.996 118.25 29.158 118.322 29.254C118.406 29.35 118.544 29.404 118.736 29.416V31C118.556 31.036 118.394 31.06 118.25 31.072C118.106 31.084 117.986 31.09 117.89 31.09C117.47 31.09 117.152 30.988 116.936 30.784C116.72 30.58 116.594 30.34 116.558 30.064L116.504 29.524C116.096 30.052 115.574 30.46 114.938 30.748C114.302 31.036 113.66 31.18 113.012 31.18C112.388 31.18 111.83 31.054 111.338 30.802C110.846 30.538 110.462 30.184 110.186 29.74C109.91 29.296 109.772 28.798 109.772 28.246ZM115.766 28.822C115.91 28.666 116.024 28.51 116.108 28.354C116.192 28.198 116.234 28.06 116.234 27.94V26.86C115.898 26.728 115.544 26.632 115.172 26.572C114.8 26.5 114.434 26.464 114.074 26.464C113.354 26.464 112.766 26.608 112.31 26.896C111.866 27.184 111.644 27.58 111.644 28.084C111.644 28.36 111.716 28.624 111.86 28.876C112.016 29.128 112.232 29.332 112.508 29.488C112.796 29.644 113.15 29.722 113.57 29.722C114.002 29.722 114.416 29.638 114.812 29.47C115.208 29.302 115.526 29.086 115.766 28.822ZM120.634 17.86H122.614V28.282C122.614 28.762 122.686 29.068 122.83 29.2C122.974 29.332 123.154 29.398 123.37 29.398C123.61 29.398 123.832 29.374 124.036 29.326C124.252 29.278 124.438 29.218 124.594 29.146L124.882 30.712C124.594 30.832 124.252 30.934 123.856 31.018C123.46 31.102 123.106 31.144 122.794 31.144C122.122 31.144 121.594 30.958 121.21 30.586C120.826 30.202 120.634 29.674 120.634 29.002V17.86ZM140.965 31V21.892L137.203 28.804H136.015L132.235 21.892V31H130.219V18.22H132.379L136.609 26.032L140.839 18.22H142.999V31H140.965ZM144.84 28.246C144.84 27.646 145.008 27.124 145.344 26.68C145.692 26.224 146.166 25.876 146.766 25.636C147.366 25.384 148.062 25.258 148.854 25.258C149.274 25.258 149.7 25.288 150.132 25.348C150.576 25.408 150.966 25.504 151.302 25.636V25.042C151.302 24.382 151.104 23.866 150.708 23.494C150.312 23.122 149.742 22.936 148.998 22.936C148.47 22.936 147.972 23.032 147.504 23.224C147.036 23.404 146.538 23.662 146.01 23.998L145.344 22.666C145.968 22.246 146.592 21.934 147.216 21.73C147.852 21.526 148.518 21.424 149.214 21.424C150.474 21.424 151.464 21.76 152.184 22.432C152.916 23.092 153.282 24.034 153.282 25.258V28.768C153.282 28.996 153.318 29.158 153.39 29.254C153.474 29.35 153.612 29.404 153.804 29.416V31C153.624 31.036 153.462 31.06 153.318 31.072C153.174 31.084 153.054 31.09 152.958 31.09C152.538 31.09 152.22 30.988 152.004 30.784C151.788 30.58 151.662 30.34 151.626 30.064L151.572 29.524C151.164 30.052 150.642 30.46 150.006 30.748C149.37 31.036 148.728 31.18 148.08 31.18C147.456 31.18 146.898 31.054 146.406 30.802C145.914 30.538 145.53 30.184 145.254 29.74C144.978 29.296 144.84 28.798 144.84 28.246ZM150.834 28.822C150.978 28.666 151.092 28.51 151.176 28.354C151.26 28.198 151.302 28.06 151.302 27.94V26.86C150.966 26.728 150.612 26.632 150.24 26.572C149.868 26.5 149.502 26.464 149.142 26.464C148.422 26.464 147.834 26.608 147.378 26.896C146.934 27.184 146.712 27.58 146.712 28.084C146.712 28.36 146.784 28.624 146.928 28.876C147.084 29.128 147.3 29.332 147.576 29.488C147.864 29.644 148.218 29.722 148.638 29.722C149.07 29.722 149.484 29.638 149.88 29.47C150.276 29.302 150.594 29.086 150.834 28.822ZM155.09 26.302C155.09 25.402 155.27 24.586 155.63 23.854C156.002 23.11 156.506 22.522 157.142 22.09C157.778 21.646 158.51 21.424 159.338 21.424C160.058 21.424 160.706 21.61 161.282 21.982C161.87 22.354 162.326 22.816 162.65 23.368V17.86H164.63V28.768C164.63 28.996 164.672 29.158 164.756 29.254C164.84 29.35 164.978 29.404 165.17 29.416V31C164.798 31.06 164.51 31.09 164.306 31.09C163.934 31.09 163.616 30.982 163.352 30.766C163.1 30.55 162.968 30.292 162.956 29.992L162.938 29.29C162.578 29.89 162.092 30.358 161.48 30.694C160.868 31.018 160.232 31.18 159.572 31.18C158.924 31.18 158.324 31.054 157.772 30.802C157.232 30.55 156.758 30.196 156.35 29.74C155.954 29.284 155.642 28.762 155.414 28.174C155.198 27.586 155.09 26.962 155.09 26.302ZM162.65 27.616V25.15C162.518 24.766 162.302 24.424 162.002 24.124C161.714 23.812 161.384 23.566 161.012 23.386C160.652 23.206 160.292 23.116 159.932 23.116C159.512 23.116 159.128 23.206 158.78 23.386C158.444 23.566 158.15 23.806 157.898 24.106C157.658 24.406 157.472 24.748 157.34 25.132C157.208 25.516 157.142 25.918 157.142 26.338C157.142 26.77 157.214 27.178 157.358 27.562C157.502 27.934 157.706 28.27 157.97 28.57C158.246 28.858 158.558 29.086 158.906 29.254C159.266 29.41 159.656 29.488 160.076 29.488C160.34 29.488 160.604 29.44 160.868 29.344C161.144 29.248 161.402 29.116 161.642 28.948C161.894 28.78 162.104 28.582 162.272 28.354C162.452 28.126 162.578 27.88 162.65 27.616ZM167.145 31V21.586H169.125V31H167.145ZM167.145 20.038V17.86H169.125V20.038H167.145ZM179.946 31H177.966V25.726C177.966 24.85 177.822 24.208 177.534 23.8C177.258 23.392 176.844 23.188 176.292 23.188C175.908 23.188 175.524 23.284 175.14 23.476C174.768 23.668 174.432 23.932 174.132 24.268C173.832 24.592 173.616 24.97 173.484 25.402V31H171.504V21.586H173.304V23.476C173.544 23.056 173.856 22.696 174.24 22.396C174.636 22.084 175.08 21.844 175.572 21.676C176.064 21.508 176.586 21.424 177.138 21.424C177.702 21.424 178.164 21.526 178.524 21.73C178.896 21.934 179.184 22.216 179.388 22.576C179.604 22.924 179.748 23.332 179.82 23.8C179.904 24.256 179.946 24.742 179.946 25.258V31ZM181.561 28.246C181.561 27.646 181.729 27.124 182.065 26.68C182.413 26.224 182.887 25.876 183.487 25.636C184.087 25.384 184.783 25.258 185.575 25.258C185.995 25.258 186.421 25.288 186.853 25.348C187.297 25.408 187.687 25.504 188.023 25.636V25.042C188.023 24.382 187.825 23.866 187.429 23.494C187.033 23.122 186.463 22.936 185.719 22.936C185.191 22.936 184.693 23.032 184.225 23.224C183.757 23.404 183.259 23.662 182.731 23.998L182.065 22.666C182.689 22.246 183.313 21.934 183.937 21.73C184.573 21.526 185.239 21.424 185.935 21.424C187.195 21.424 188.185 21.76 188.905 22.432C189.637 23.092 190.003 24.034 190.003 25.258V28.768C190.003 28.996 190.039 29.158 190.111 29.254C190.195 29.35 190.333 29.404 190.525 29.416V31C190.345 31.036 190.183 31.06 190.039 31.072C189.895 31.084 189.775 31.09 189.679 31.09C189.259 31.09 188.941 30.988 188.725 30.784C188.509 30.58 188.383 30.34 188.347 30.064L188.293 29.524C187.885 30.052 187.363 30.46 186.727 30.748C186.091 31.036 185.449 31.18 184.801 31.18C184.177 31.18 183.619 31.054 183.127 30.802C182.635 30.538 182.251 30.184 181.975 29.74C181.699 29.296 181.561 28.798 181.561 28.246ZM187.555 28.822C187.699 28.666 187.813 28.51 187.897 28.354C187.981 28.198 188.023 28.06 188.023 27.94V26.86C187.687 26.728 187.333 26.632 186.961 26.572C186.589 26.5 186.223 26.464 185.863 26.464C185.143 26.464 184.555 26.608 184.099 26.896C183.655 27.184 183.433 27.58 183.433 28.084C183.433 28.36 183.505 28.624 183.649 28.876C183.805 29.128 184.021 29.332 184.297 29.488C184.585 29.644 184.939 29.722 185.359 29.722C185.791 29.722 186.205 29.638 186.601 29.47C186.997 29.302 187.315 29.086 187.555 28.822Z" fill="#CEB041"></path>
</svg><style>@media (prefers-color-scheme: light) { :root { filter: none; } }
</style></svg>