<svg width="263" height="51" viewBox="0 0 263 51" fill="none" xmlns="http://www.w3.org/2000/svg">
<path d="M27.4997 45.2336H27.5H27.4997ZM41.1255 33.8589C39.9319 33.6207 39.078 33.48 39.078 33.48L41.1255 34.3655L43.9539 35.5887L44.4966 35.6816C43.6221 35.7432 42.6203 35.9289 41.5061 36.3201C41.3837 36.3633 41.2563 36.4117 41.1255 36.4639C40.9825 36.5212 40.8333 36.5846 40.6811 36.6522C40.0774 36.9189 39.4073 37.2616 38.6962 37.6581C36.8678 38.6771 34.7791 40.0414 32.9035 41.3322C30.9938 42.6461 29.306 43.8831 28.3447 44.5988L28.1562 41.9325L27.7833 36.6522L27.7434 36.0868C27.8827 36.0418 28.0789 35.979 28.3201 35.9024C28.8011 35.7495 29.465 35.5428 30.2326 35.3136C31.0392 35.0725 31.9597 34.8076 32.9035 34.5544C35.0941 33.9671 37.4043 33.4487 38.6962 33.4596C38.8346 33.4606 38.9648 33.4662 39.078 33.48C39.078 33.48 38.9605 33.409 38.6962 33.3274C38.1179 33.1482 36.8374 32.9187 34.5532 33.2733C34.0078 33.358 33.452 33.4734 32.9035 33.6069C31.96 33.8364 31.0395 34.1194 30.2326 34.3946C29.0297 34.8045 28.0804 35.1954 27.6921 35.3605L27.6918 35.3548H27.4997H27.3079L27.3075 35.3605C26.8846 35.1807 25.7968 34.7329 24.4399 34.2845C23.6189 34.0134 22.6996 33.742 21.769 33.5297C21.3276 33.429 20.8835 33.3414 20.4464 33.2733C17.5223 32.8192 16.2436 33.323 15.9763 33.4515C15.9395 33.4693 15.9217 33.48 15.9217 33.48C15.9386 33.4781 15.9588 33.4775 15.9763 33.4756C16.104 33.4628 16.2449 33.4562 16.4017 33.4581C17.6439 33.4728 19.7347 33.9318 21.769 34.4674C22.7002 34.7126 23.6195 34.9737 24.4399 35.2163C25.7456 35.6019 26.8008 35.9396 27.2563 36.0868L27.2164 36.6522L26.8435 41.9325L26.6562 44.5823C25.6406 43.8055 23.8128 42.43 21.769 40.9979C19.8654 39.6643 17.7758 38.2825 15.9763 37.2863C15.5518 37.0512 15.1439 36.8385 14.7581 36.6522C14.3956 36.4771 14.0534 36.3264 13.736 36.2044C13.6541 36.1731 13.5718 36.1409 13.4939 36.1134C12.6311 35.8107 11.8367 35.64 11.1155 35.5587L13.736 34.4252L15.9217 33.48C15.9217 33.48 15.0015 33.6316 13.736 33.8868C11.1241 34.413 7.03942 35.3792 6.52777 36.362L15.9763 40.9435L21.5661 43.6542L27.4997 46.5312L33.4336 43.6542L38.6962 41.102L48.4719 36.362C47.951 35.3617 43.7292 34.3783 41.1255 33.8589Z" fill="white"/>
<path d="M27.431 11.6532C27.431 11.6532 40.2944 13.469 43.1657 16.9761C43.1657 16.9761 43.6789 11.2645 37.6929 7.71925C30.4094 3.40603 27.431 -8.2016e-05 27.431 -8.2016e-05C27.431 -8.2016e-05 24.4522 3.40603 17.1688 7.71925C11.1827 11.2645 11.6959 16.9761 11.6959 16.9761C14.4684 13.59 27.431 11.6532 27.431 11.6532Z" fill="white"/>
<path d="M39.7803 31.2943C40.0688 31.3444 40.5418 31.4291 41.1255 31.542V18.9141C41.1255 16.1424 27.4309 13.8954 27.4309 13.8954C27.4309 13.8954 13.736 16.1424 13.736 18.9141V31.5689C14.384 31.4425 14.9085 31.3484 15.2194 31.2943C15.422 31.2152 15.6749 31.1339 15.9763 31.0607V22.0841C15.9763 22.0797 15.9769 22.076 15.9769 22.0716C15.9739 22.076 15.9689 22.0797 15.9662 22.0841C15.9662 22.0841 15.8713 20.8543 16.9772 20.091C18.3225 19.1623 18.8725 18.4288 18.8725 18.4288C18.8725 18.4288 19.4228 19.1623 20.7684 20.091C21.8743 20.8543 21.7794 22.0841 21.7794 22.0841C21.7764 22.0797 21.7715 22.076 21.7684 22.0716C21.7684 22.0757 21.769 22.0797 21.769 22.0841V31.2033C22.6849 31.3906 23.5958 31.6364 24.4399 31.8953V20.3624C24.4399 20.3584 24.4405 20.3543 24.4405 20.3499C24.4374 20.3543 24.4325 20.3584 24.4295 20.3624C24.4295 20.3624 24.3349 19.1326 25.4405 18.3694C26.7861 17.4407 27.3364 16.7071 27.3364 16.7071C27.3364 16.7071 27.8864 17.4407 29.232 18.3694C30.3376 19.1326 30.243 20.3624 30.243 20.3624C30.24 20.3584 30.235 20.3543 30.232 20.3499C30.232 20.354 30.2326 20.3584 30.2326 20.3624V31.9976C31.0674 31.733 31.9793 31.4769 32.9035 31.274V22.0841C32.9035 22.0797 32.9041 22.076 32.9041 22.0716C32.901 22.076 32.8961 22.0797 32.8934 22.0841C32.8934 22.0841 32.7985 20.8543 33.9044 20.091C35.2497 19.1623 35.7997 18.4288 35.7997 18.4288C35.7997 18.4288 36.35 19.1623 37.6956 20.091C38.8015 20.8543 38.7066 22.0841 38.7066 22.0841C38.7036 22.0797 38.6986 22.076 38.6956 22.0716C38.6956 22.0757 38.6962 22.0797 38.6962 22.0841V30.9898C39.1486 31.0779 39.5089 31.1883 39.7803 31.2943Z" fill="white"/>
<path d="M47.6051 20.546C47.6051 20.546 50.3245 20.93 50.9313 21.6714C50.9313 21.6714 51.04 19.9835 49.7745 19.234C48.235 18.3222 47.6051 17.6024 47.6051 17.6024C47.6051 17.6024 46.9753 18.3222 45.4357 19.234C44.1703 19.9835 44.2786 21.6714 44.2786 21.6714C44.8649 20.9556 47.6051 20.546 47.6051 20.546Z" fill="white"/>
<path d="M44.7101 23.4593V32.33C47.1763 32.9469 48.9277 33.571 49.9507 34.5288H50.5001V23.4593C50.5001 22.8734 47.6051 22.3984 47.6051 22.3984C47.6051 22.3984 44.7101 22.8734 44.7101 23.4593Z" fill="white"/>
<path d="M7.39453 20.546C7.39453 20.546 10.1348 20.9556 10.721 21.6714C10.721 21.6714 10.8294 19.9835 9.56391 19.234C8.02435 18.3222 7.39453 17.6024 7.39453 17.6024C7.39453 17.6024 6.76501 18.3222 5.22545 19.234C3.95998 19.9835 4.06833 21.6714 4.06833 21.6714C4.67543 20.93 7.39453 20.546 7.39453 20.546Z" fill="white"/>
<path d="M4.49957 23.4593V34.5288H5.04929C6.07198 33.571 7.82363 32.9469 10.2898 32.33V23.4593C10.2898 22.8734 7.39454 22.3984 7.39454 22.3984C7.39454 22.3984 4.49957 22.8734 4.49957 23.4593Z" fill="white"/>
<path d="M38.9577 43.9801L27.4997 48.8809L16.0447 43.9807L0 37.1178C0.355947 39.645 2.08894 41.7475 4.47071 42.5411L27.4997 50.2173L50.5289 42.5411C52.9107 41.7475 54.644 39.645 55 37.1178L38.9577 43.9801Z" fill="white"/>
<path d="M76.2143 22.4265C76.0476 22.2431 75.806 22.0515 75.4893 21.8515C75.1726 21.6348 74.7976 21.4348 74.3643 21.2515C73.931 21.0681 73.4643 20.9181 72.9643 20.8015C72.4643 20.6848 71.9476 20.6265 71.4143 20.6265C70.2476 20.6265 69.381 20.8431 68.8143 21.2765C68.2476 21.7098 67.9643 22.3098 67.9643 23.0765C67.9643 23.6431 68.1226 24.0931 68.4393 24.4265C68.756 24.7431 69.2393 25.0098 69.8893 25.2265C70.5393 25.4431 71.356 25.6765 72.3393 25.9265C73.5393 26.2098 74.581 26.5515 75.4643 26.9515C76.3476 27.3348 77.0226 27.8515 77.4893 28.5015C77.956 29.1515 78.1893 30.0098 78.1893 31.0765C78.1893 31.9765 78.0226 32.7515 77.6893 33.4015C77.356 34.0515 76.8893 34.5848 76.2893 35.0015C75.6893 35.4015 74.9976 35.7015 74.2143 35.9015C73.431 36.0848 72.5893 36.1765 71.6893 36.1765C70.806 36.1765 69.9226 36.0848 69.0393 35.9015C68.1726 35.7181 67.3393 35.4515 66.5393 35.1015C65.756 34.7348 65.031 34.2931 64.3643 33.7765L65.6393 31.3765C65.856 31.5931 66.1643 31.8348 66.5643 32.1015C66.981 32.3515 67.456 32.5931 67.9893 32.8265C68.5393 33.0598 69.131 33.2598 69.7643 33.4265C70.4143 33.5765 71.0726 33.6515 71.7393 33.6515C72.856 33.6515 73.706 33.4598 74.2893 33.0765C74.8893 32.6765 75.1893 32.1098 75.1893 31.3765C75.1893 30.7765 74.9976 30.3015 74.6143 29.9515C74.231 29.5848 73.6726 29.2765 72.9393 29.0265C72.206 28.7765 71.331 28.5265 70.3143 28.2765C69.1476 27.9598 68.1726 27.6181 67.3893 27.2515C66.606 26.8681 66.0143 26.3848 65.6143 25.8015C65.231 25.2015 65.0393 24.4431 65.0393 23.5265C65.0393 22.3598 65.3226 21.3765 65.8893 20.5765C66.456 19.7598 67.2226 19.1515 68.1893 18.7515C69.1726 18.3348 70.2726 18.1265 71.4893 18.1265C72.2893 18.1265 73.0476 18.2181 73.7643 18.4015C74.481 18.5681 75.1476 18.8015 75.7643 19.1015C76.3976 19.4015 76.9726 19.7431 77.4893 20.1265L76.2143 22.4265ZM79.6731 32.1765C79.6731 31.3431 79.9064 30.6181 80.3731 30.0015C80.8564 29.3681 81.5148 28.8848 82.3481 28.5515C83.1814 28.2015 84.1481 28.0265 85.2481 28.0265C85.8314 28.0265 86.4231 28.0681 87.0231 28.1515C87.6398 28.2348 88.1814 28.3681 88.6481 28.5515V27.7265C88.6481 26.8098 88.3731 26.0931 87.8231 25.5765C87.2731 25.0598 86.4814 24.8015 85.4481 24.8015C84.7148 24.8015 84.0231 24.9348 83.3731 25.2015C82.7231 25.4515 82.0314 25.8098 81.2981 26.2765L80.3731 24.4265C81.2398 23.8431 82.1064 23.4098 82.9731 23.1265C83.8564 22.8431 84.7814 22.7015 85.7481 22.7015C87.4981 22.7015 88.8731 23.1681 89.8731 24.1015C90.8898 25.0181 91.3981 26.3265 91.3981 28.0265V32.9015C91.3981 33.2181 91.4481 33.4431 91.5481 33.5765C91.6648 33.7098 91.8564 33.7848 92.1231 33.8015V36.0015C91.8731 36.0515 91.6481 36.0848 91.4481 36.1015C91.2481 36.1181 91.0814 36.1265 90.9481 36.1265C90.3648 36.1265 89.9231 35.9848 89.6231 35.7015C89.3231 35.4181 89.1481 35.0848 89.0981 34.7015L89.0231 33.9515C88.4564 34.6848 87.7314 35.2515 86.8481 35.6515C85.9648 36.0515 85.0731 36.2515 84.1731 36.2515C83.3064 36.2515 82.5314 36.0765 81.8481 35.7265C81.1648 35.3598 80.6314 34.8681 80.2481 34.2515C79.8648 33.6348 79.6731 32.9431 79.6731 32.1765ZM87.9981 32.9765C88.1981 32.7598 88.3564 32.5431 88.4731 32.3265C88.5898 32.1098 88.6481 31.9181 88.6481 31.7515V30.2515C88.1814 30.0681 87.6898 29.9348 87.1731 29.8515C86.6564 29.7515 86.1481 29.7015 85.6481 29.7015C84.6481 29.7015 83.8314 29.9015 83.1981 30.3015C82.5814 30.7015 82.2731 31.2515 82.2731 31.9515C82.2731 32.3348 82.3731 32.7015 82.5731 33.0515C82.7898 33.4015 83.0898 33.6848 83.4731 33.9015C83.8731 34.1181 84.3648 34.2265 84.9481 34.2265C85.5481 34.2265 86.1231 34.1098 86.6731 33.8765C87.2231 33.6431 87.6648 33.3431 87.9981 32.9765ZM95.4112 25.3765H93.6612V23.2515H95.4112V22.7265C95.4112 22.0431 95.5195 21.3931 95.7362 20.7765C95.9528 20.1431 96.2778 19.5848 96.7112 19.1015C97.1445 18.6015 97.6695 18.2098 98.2862 17.9265C98.9195 17.6431 99.6528 17.5015 100.486 17.5015C101.103 17.5015 101.678 17.5681 102.211 17.7015C102.761 17.8348 103.261 18.0181 103.711 18.2515C104.178 18.4681 104.586 18.7015 104.936 18.9515L103.811 21.0015C103.445 20.6681 102.978 20.3931 102.411 20.1765C101.845 19.9598 101.261 19.8515 100.661 19.8515C100.095 19.8515 99.6195 19.9848 99.2362 20.2515C98.8695 20.5181 98.5945 20.8681 98.4112 21.3015C98.2445 21.7348 98.1612 22.1848 98.1612 22.6515V23.2515H105.011V36.0015H102.261V25.3765H98.1612V36.0015H95.4112V25.3765ZM120.034 36.0015H117.284V28.6765C117.284 27.4598 117.084 26.5681 116.684 26.0015C116.3 25.4348 115.725 25.1515 114.959 25.1515C114.425 25.1515 113.892 25.2848 113.359 25.5515C112.842 25.8181 112.375 26.1848 111.959 26.6515C111.542 27.1015 111.242 27.6265 111.059 28.2265V36.0015H108.309V22.9265H110.809V25.5515C111.142 24.9681 111.575 24.4681 112.109 24.0515C112.659 23.6181 113.275 23.2848 113.959 23.0515C114.642 22.8181 115.367 22.7015 116.134 22.7015C116.917 22.7015 117.559 22.8431 118.059 23.1265C118.575 23.4098 118.975 23.8015 119.259 24.3015C119.559 24.7848 119.759 25.3515 119.859 26.0015C119.975 26.6348 120.034 27.3098 120.034 28.0265V36.0015ZM122.276 32.1765C122.276 31.3431 122.509 30.6181 122.976 30.0015C123.459 29.3681 124.117 28.8848 124.951 28.5515C125.784 28.2015 126.751 28.0265 127.851 28.0265C128.434 28.0265 129.026 28.0681 129.626 28.1515C130.242 28.2348 130.784 28.3681 131.251 28.5515V27.7265C131.251 26.8098 130.976 26.0931 130.426 25.5765C129.876 25.0598 129.084 24.8015 128.051 24.8015C127.317 24.8015 126.626 24.9348 125.976 25.2015C125.326 25.4515 124.634 25.8098 123.901 26.2765L122.976 24.4265C123.842 23.8431 124.709 23.4098 125.576 23.1265C126.459 22.8431 127.384 22.7015 128.351 22.7015C130.101 22.7015 131.476 23.1681 132.476 24.1015C133.492 25.0181 134.001 26.3265 134.001 28.0265V32.9015C134.001 33.2181 134.051 33.4431 134.151 33.5765C134.267 33.7098 134.459 33.7848 134.726 33.8015V36.0015C134.476 36.0515 134.251 36.0848 134.051 36.1015C133.851 36.1181 133.684 36.1265 133.551 36.1265C132.967 36.1265 132.526 35.9848 132.226 35.7015C131.926 35.4181 131.751 35.0848 131.701 34.7015L131.626 33.9515C131.059 34.6848 130.334 35.2515 129.451 35.6515C128.567 36.0515 127.676 36.2515 126.776 36.2515C125.909 36.2515 125.134 36.0765 124.451 35.7265C123.767 35.3598 123.234 34.8681 122.851 34.2515C122.467 33.6348 122.276 32.9431 122.276 32.1765ZM130.601 32.9765C130.801 32.7598 130.959 32.5431 131.076 32.3265C131.192 32.1098 131.251 31.9181 131.251 31.7515V30.2515C130.784 30.0681 130.292 29.9348 129.776 29.8515C129.259 29.7515 128.751 29.7015 128.251 29.7015C127.251 29.7015 126.434 29.9015 125.801 30.3015C125.184 30.7015 124.876 31.2515 124.876 31.9515C124.876 32.3348 124.976 32.7015 125.176 33.0515C125.392 33.4015 125.692 33.6848 126.076 33.9015C126.476 34.1181 126.967 34.2265 127.551 34.2265C128.151 34.2265 128.726 34.1098 129.276 33.8765C129.826 33.6431 130.267 33.3431 130.601 32.9765ZM142.564 32.1765C142.564 31.3431 142.797 30.6181 143.264 30.0015C143.747 29.3681 144.405 28.8848 145.239 28.5515C146.072 28.2015 147.039 28.0265 148.139 28.0265C148.722 28.0265 149.314 28.0681 149.914 28.1515C150.53 28.2348 151.072 28.3681 151.539 28.5515V27.7265C151.539 26.8098 151.264 26.0931 150.714 25.5765C150.164 25.0598 149.372 24.8015 148.339 24.8015C147.605 24.8015 146.914 24.9348 146.264 25.2015C145.614 25.4515 144.922 25.8098 144.189 26.2765L143.264 24.4265C144.13 23.8431 144.997 23.4098 145.864 23.1265C146.747 22.8431 147.672 22.7015 148.639 22.7015C150.389 22.7015 151.764 23.1681 152.764 24.1015C153.78 25.0181 154.289 26.3265 154.289 28.0265V32.9015C154.289 33.2181 154.339 33.4431 154.439 33.5765C154.555 33.7098 154.747 33.7848 155.014 33.8015V36.0015C154.764 36.0515 154.539 36.0848 154.339 36.1015C154.139 36.1181 153.972 36.1265 153.839 36.1265C153.255 36.1265 152.814 35.9848 152.514 35.7015C152.214 35.4181 152.039 35.0848 151.989 34.7015L151.914 33.9515C151.347 34.6848 150.622 35.2515 149.739 35.6515C148.855 36.0515 147.964 36.2515 147.064 36.2515C146.197 36.2515 145.422 36.0765 144.739 35.7265C144.055 35.3598 143.522 34.8681 143.139 34.2515C142.755 33.6348 142.564 32.9431 142.564 32.1765ZM150.889 32.9765C151.089 32.7598 151.247 32.5431 151.364 32.3265C151.48 32.1098 151.539 31.9181 151.539 31.7515V30.2515C151.072 30.0681 150.58 29.9348 150.064 29.8515C149.547 29.7515 149.039 29.7015 148.539 29.7015C147.539 29.7015 146.722 29.9015 146.089 30.3015C145.472 30.7015 145.164 31.2515 145.164 31.9515C145.164 32.3348 145.264 32.7015 145.464 33.0515C145.68 33.4015 145.98 33.6848 146.364 33.9015C146.764 34.1181 147.255 34.2265 147.839 34.2265C148.439 34.2265 149.014 34.1098 149.564 33.8765C150.114 33.6431 150.555 33.3431 150.889 32.9765ZM157.65 17.7515H160.4V32.2265C160.4 32.8931 160.5 33.3181 160.7 33.5015C160.9 33.6848 161.15 33.7765 161.45 33.7765C161.783 33.7765 162.092 33.7431 162.375 33.6765C162.675 33.6098 162.933 33.5265 163.15 33.4265L163.55 35.6015C163.15 35.7681 162.675 35.9098 162.125 36.0265C161.575 36.1431 161.083 36.2015 160.65 36.2015C159.717 36.2015 158.983 35.9431 158.45 35.4265C157.917 34.8931 157.65 34.1598 157.65 33.2265V17.7515ZM185.888 36.0015V23.3515L180.663 32.9515H179.013L173.763 23.3515V36.0015H170.963V18.2515H173.963L179.838 29.1015L185.713 18.2515H188.713V36.0015H185.888ZM191.27 32.1765C191.27 31.3431 191.503 30.6181 191.97 30.0015C192.453 29.3681 193.111 28.8848 193.945 28.5515C194.778 28.2015 195.745 28.0265 196.845 28.0265C197.428 28.0265 198.02 28.0681 198.62 28.1515C199.236 28.2348 199.778 28.3681 200.245 28.5515V27.7265C200.245 26.8098 199.97 26.0931 199.42 25.5765C198.87 25.0598 198.078 24.8015 197.045 24.8015C196.311 24.8015 195.62 24.9348 194.97 25.2015C194.32 25.4515 193.628 25.8098 192.895 26.2765L191.97 24.4265C192.836 23.8431 193.703 23.4098 194.57 23.1265C195.453 22.8431 196.378 22.7015 197.345 22.7015C199.095 22.7015 200.47 23.1681 201.47 24.1015C202.486 25.0181 202.995 26.3265 202.995 28.0265V32.9015C202.995 33.2181 203.045 33.4431 203.145 33.5765C203.261 33.7098 203.453 33.7848 203.72 33.8015V36.0015C203.47 36.0515 203.245 36.0848 203.045 36.1015C202.845 36.1181 202.678 36.1265 202.545 36.1265C201.961 36.1265 201.52 35.9848 201.22 35.7015C200.92 35.4181 200.745 35.0848 200.695 34.7015L200.62 33.9515C200.053 34.6848 199.328 35.2515 198.445 35.6515C197.561 36.0515 196.67 36.2515 195.77 36.2515C194.903 36.2515 194.128 36.0765 193.445 35.7265C192.761 35.3598 192.228 34.8681 191.845 34.2515C191.461 33.6348 191.27 32.9431 191.27 32.1765ZM199.595 32.9765C199.795 32.7598 199.953 32.5431 200.07 32.3265C200.186 32.1098 200.245 31.9181 200.245 31.7515V30.2515C199.778 30.0681 199.286 29.9348 198.77 29.8515C198.253 29.7515 197.745 29.7015 197.245 29.7015C196.245 29.7015 195.428 29.9015 194.795 30.3015C194.178 30.7015 193.87 31.2515 193.87 31.9515C193.87 32.3348 193.97 32.7015 194.17 33.0515C194.386 33.4015 194.686 33.6848 195.07 33.9015C195.47 34.1181 195.961 34.2265 196.545 34.2265C197.145 34.2265 197.72 34.1098 198.27 33.8765C198.82 33.6431 199.261 33.3431 199.595 32.9765ZM205.506 29.4765C205.506 28.2265 205.756 27.0931 206.256 26.0765C206.773 25.0431 207.473 24.2265 208.356 23.6265C209.239 23.0098 210.256 22.7015 211.406 22.7015C212.406 22.7015 213.306 22.9598 214.106 23.4765C214.923 23.9931 215.556 24.6348 216.006 25.4015V17.7515H218.756V32.9015C218.756 33.2181 218.814 33.4431 218.931 33.5765C219.048 33.7098 219.239 33.7848 219.506 33.8015V36.0015C218.989 36.0848 218.589 36.1265 218.306 36.1265C217.789 36.1265 217.348 35.9765 216.981 35.6765C216.631 35.3765 216.448 35.0181 216.431 34.6015L216.406 33.6265C215.906 34.4598 215.231 35.1098 214.381 35.5765C213.531 36.0265 212.648 36.2515 211.731 36.2515C210.831 36.2515 209.998 36.0765 209.231 35.7265C208.481 35.3765 207.823 34.8848 207.256 34.2515C206.706 33.6181 206.273 32.8931 205.956 32.0765C205.656 31.2598 205.506 30.3931 205.506 29.4765ZM216.006 31.3015V27.8765C215.823 27.3431 215.523 26.8681 215.106 26.4515C214.706 26.0181 214.248 25.6765 213.731 25.4265C213.231 25.1765 212.731 25.0515 212.231 25.0515C211.648 25.0515 211.114 25.1765 210.631 25.4265C210.164 25.6765 209.756 26.0098 209.406 26.4265C209.073 26.8431 208.814 27.3181 208.631 27.8515C208.448 28.3848 208.356 28.9431 208.356 29.5265C208.356 30.1265 208.456 30.6931 208.656 31.2265C208.856 31.7431 209.139 32.2098 209.506 32.6265C209.889 33.0265 210.323 33.3431 210.806 33.5765C211.306 33.7931 211.848 33.9015 212.431 33.9015C212.798 33.9015 213.164 33.8348 213.531 33.7015C213.914 33.5681 214.273 33.3848 214.606 33.1515C214.956 32.9181 215.248 32.6431 215.481 32.3265C215.731 32.0098 215.906 31.6681 216.006 31.3015ZM222.249 36.0015V22.9265H224.999V36.0015H222.249ZM222.249 20.7765V17.7515H224.999V20.7765H222.249ZM240.029 36.0015H237.279V28.6765C237.279 27.4598 237.079 26.5681 236.679 26.0015C236.295 25.4348 235.72 25.1515 234.954 25.1515C234.42 25.1515 233.887 25.2848 233.354 25.5515C232.837 25.8181 232.37 26.1848 231.954 26.6515C231.537 27.1015 231.237 27.6265 231.054 28.2265V36.0015H228.304V22.9265H230.804V25.5515C231.137 24.9681 231.57 24.4681 232.104 24.0515C232.654 23.6181 233.27 23.2848 233.954 23.0515C234.637 22.8181 235.362 22.7015 236.129 22.7015C236.912 22.7015 237.554 22.8431 238.054 23.1265C238.57 23.4098 238.97 23.8015 239.254 24.3015C239.554 24.7848 239.754 25.3515 239.854 26.0015C239.97 26.6348 240.029 27.3098 240.029 28.0265V36.0015ZM242.271 32.1765C242.271 31.3431 242.504 30.6181 242.971 30.0015C243.454 29.3681 244.112 28.8848 244.946 28.5515C245.779 28.2015 246.746 28.0265 247.846 28.0265C248.429 28.0265 249.021 28.0681 249.621 28.1515C250.237 28.2348 250.779 28.3681 251.246 28.5515V27.7265C251.246 26.8098 250.971 26.0931 250.421 25.5765C249.871 25.0598 249.079 24.8015 248.046 24.8015C247.312 24.8015 246.621 24.9348 245.971 25.2015C245.321 25.4515 244.629 25.8098 243.896 26.2765L242.971 24.4265C243.837 23.8431 244.704 23.4098 245.571 23.1265C246.454 22.8431 247.379 22.7015 248.346 22.7015C250.096 22.7015 251.471 23.1681 252.471 24.1015C253.487 25.0181 253.996 26.3265 253.996 28.0265V32.9015C253.996 33.2181 254.046 33.4431 254.146 33.5765C254.262 33.7098 254.454 33.7848 254.721 33.8015V36.0015C254.471 36.0515 254.246 36.0848 254.046 36.1015C253.846 36.1181 253.679 36.1265 253.546 36.1265C252.962 36.1265 252.521 35.9848 252.221 35.7015C251.921 35.4181 251.746 35.0848 251.696 34.7015L251.621 33.9515C251.054 34.6848 250.329 35.2515 249.446 35.6515C248.562 36.0515 247.671 36.2515 246.771 36.2515C245.904 36.2515 245.129 36.0765 244.446 35.7265C243.762 35.3598 243.229 34.8681 242.846 34.2515C242.462 33.6348 242.271 32.9431 242.271 32.1765ZM250.596 32.9765C250.796 32.7598 250.954 32.5431 251.071 32.3265C251.187 32.1098 251.246 31.9181 251.246 31.7515V30.2515C250.779 30.0681 250.287 29.9348 249.771 29.8515C249.254 29.7515 248.746 29.7015 248.246 29.7015C247.246 29.7015 246.429 29.9015 245.796 30.3015C245.179 30.7015 244.871 31.2515 244.871 31.9515C244.871 32.3348 244.971 32.7015 245.171 33.0515C245.387 33.4015 245.687 33.6848 246.071 33.9015C246.471 34.1181 246.962 34.2265 247.546 34.2265C248.146 34.2265 248.721 34.1098 249.271 33.8765C249.821 33.6431 250.262 33.3431 250.596 32.9765Z" fill="white"/>
</svg>
