<svg width="14" height="18" viewBox="0 0 14 18" fill="none" xmlns="http://www.w3.org/2000/svg">
<path d="M2.87999 1.01509L3.85249 0.722586C4.38523 0.561939 4.95822 0.600611 5.46455 0.831386C5.97087 1.06216 6.37594 1.46927 6.60416 1.97675L7.35582 3.64842C7.55204 4.08492 7.60669 4.5719 7.51208 5.04103C7.41748 5.51017 7.17838 5.93791 6.82832 6.26425L5.58332 7.42509C5.54693 7.459 5.52387 7.50482 5.51832 7.55425C5.48166 7.88509 5.70582 8.52925 6.22249 9.42509C6.59832 10.0759 6.93916 10.5334 7.22832 10.7893C7.42999 10.9684 7.54082 11.0068 7.58832 10.9934L9.26332 10.4809C9.72075 10.341 10.2105 10.3477 10.6639 10.5002C11.1173 10.6526 11.5117 10.9431 11.7917 11.3309L12.8592 12.8109C13.1838 13.261 13.3341 13.8136 13.2821 14.3661C13.2302 14.9186 12.9795 15.4334 12.5767 15.8151L11.8383 16.5151C11.4465 16.8862 10.9652 17.1495 10.4413 17.2793C9.91749 17.4091 9.36896 17.4011 8.84916 17.2559C6.55416 16.6151 4.49666 14.6784 2.65332 11.4859C0.80749 8.28925 0.15999 5.53592 0.756657 3.22509C0.89097 2.70537 1.1569 2.229 1.5288 1.84192C1.90071 1.45483 2.36606 1.17007 2.87999 1.01509ZM3.24082 2.21259C2.93255 2.30546 2.65339 2.47616 2.43022 2.70823C2.20706 2.94029 2.04741 3.22592 1.96666 3.53759C1.46499 5.48092 2.03916 7.92175 3.73582 10.8609C5.42999 13.7959 7.25416 15.5126 9.18582 16.0526C9.4976 16.1394 9.82655 16.1441 10.1407 16.0661C10.4548 15.9881 10.7434 15.8302 10.9783 15.6076L11.7175 14.9076C11.9007 14.7341 12.0146 14.5 12.0382 14.2488C12.0618 13.9976 11.9935 13.7463 11.8458 13.5418L10.7792 12.0626C10.6519 11.8861 10.4725 11.7539 10.2663 11.6845C10.06 11.6152 9.83721 11.6122 9.62916 11.6759L7.94999 12.1901C6.97499 12.4801 6.08999 11.6959 5.13999 10.0501C4.49999 8.94175 4.20166 8.08342 4.27582 7.41592C4.31499 7.06925 4.47582 6.74925 4.73082 6.51092L5.97582 5.35009C6.13501 5.20176 6.24375 5.00732 6.2868 4.79405C6.32984 4.58077 6.30502 4.35937 6.21582 4.16092L5.46416 2.48925C5.36042 2.25876 5.17642 2.07385 4.94644 1.96898C4.71646 1.86411 4.4562 1.84643 4.21416 1.91925L3.24082 2.21259Z" fill="white"/>
</svg>
