<svg width="330" height="170" viewBox="0 0 219 42" fill="none" xmlns="http://www.w3.org/2000/svg">
<path d="M22.9997 37.8316H23H22.9997ZM34.3959 28.3183C33.3976 28.119 32.6834 28.0013 32.6834 28.0013L34.3959 28.7419L36.7614 29.765L37.2153 29.8427C36.484 29.8942 35.6461 30.0495 34.7142 30.3767C34.6118 30.4128 34.5053 30.4533 34.3959 30.497C34.2763 30.5449 34.1515 30.5979 34.0242 30.6544C33.5193 30.8775 32.9589 31.1641 32.3641 31.4957C30.8349 32.348 29.088 33.4891 27.5193 34.5686C25.9221 35.6675 24.5105 36.7021 23.7065 37.3007L23.5488 35.0707L23.2369 30.6544L23.2036 30.1816C23.3201 30.1439 23.4841 30.0914 23.6859 30.0273C24.0882 29.8994 24.6434 29.7266 25.2854 29.5349C25.9601 29.3332 26.7299 29.1117 27.5193 28.8999C29.3514 28.4087 31.2836 27.9751 32.3641 27.9843C32.4799 27.9851 32.5887 27.9898 32.6834 28.0013C32.6834 28.0013 32.5851 27.9419 32.3641 27.8737C31.8805 27.7238 30.8095 27.5319 28.8991 27.8284C28.4429 27.8993 27.978 27.9958 27.5193 28.1075C26.7302 28.2994 25.9603 28.5361 25.2854 28.7662C24.2794 29.1091 23.4854 29.436 23.1607 29.5741L23.1604 29.5694H22.9997H22.8393L22.839 29.5741C22.4853 29.4237 21.5755 29.0492 20.4407 28.6742C19.754 28.4474 18.9851 28.2205 18.2068 28.0429C17.8377 27.9587 17.4662 27.8854 17.1007 27.8284C14.655 27.4487 13.5856 27.87 13.362 27.9775C13.3312 27.9924 13.3163 28.0013 13.3163 28.0013C13.3304 27.9997 13.3474 27.9992 13.362 27.9976C13.4688 27.9869 13.5866 27.9814 13.7178 27.983C14.7567 27.9953 16.5054 28.3792 18.2068 28.8272C18.9856 29.0322 19.7545 29.2506 20.4407 29.4535C21.5327 29.776 22.4152 30.0584 22.7962 30.1816L22.7628 30.6544L22.4509 35.0707L22.2943 37.2869C21.4449 36.6372 19.9162 35.4868 18.2068 34.289C16.6147 33.1737 14.8671 32.018 13.362 31.1848C13.007 30.9881 12.6658 30.8103 12.3431 30.6544C12.04 30.508 11.7538 30.3819 11.4883 30.2799C11.4198 30.2538 11.351 30.2268 11.2858 30.2038C10.5642 29.9507 9.89983 29.8079 9.29657 29.7399L11.4883 28.7919L13.3163 28.0013C13.3163 28.0013 12.5467 28.1281 11.4883 28.3415C9.30376 28.7817 5.88752 29.5898 5.45959 30.4117L13.362 34.2435L18.0371 36.5107L22.9997 38.9169L27.9626 36.5107L32.3641 34.3761L40.5401 30.4117C40.1045 29.5751 36.5735 28.7526 34.3959 28.3183" fill="#CEB041"/>
<path d="M22.9423 9.74638C22.9423 9.74638 33.7008 11.265 36.1023 14.1982C36.1023 14.1982 36.5315 9.4213 31.5249 6.45618C25.4333 2.84876 22.9423 7.10264e-06 22.9423 7.10264e-06C22.9423 7.10264e-06 20.4509 2.84876 14.3593 6.45618C9.35281 9.4213 9.78202 14.1982 9.78202 14.1982C12.1008 11.3662 22.9423 9.74638 22.9423 9.74638" fill="#CEB041"/>
<path d="M33.2708 26.1735C33.5121 26.2154 33.9077 26.2862 34.3959 26.3806V15.8191C34.3959 13.501 22.9422 11.6217 22.9422 11.6217C22.9422 11.6217 11.4883 13.501 11.4883 15.8191V26.4031C12.0302 26.2975 12.4689 26.2188 12.729 26.1735C12.8984 26.1074 13.1099 26.0394 13.362 25.9782V18.4704C13.362 18.4668 13.3625 18.4636 13.3625 18.46C13.3599 18.4636 13.3558 18.4668 13.3535 18.4704C13.3535 18.4704 13.2742 17.4419 14.1991 16.8035C15.3243 16.0268 15.7843 15.4132 15.7843 15.4132C15.7843 15.4132 16.2445 16.0268 17.3699 16.8035C18.2948 17.4419 18.2155 18.4704 18.2155 18.4704C18.213 18.4668 18.2089 18.4636 18.2063 18.46C18.2063 18.4634 18.2068 18.4668 18.2068 18.4704V26.0974C18.9728 26.2541 19.7347 26.4596 20.4406 26.6762V17.0305C20.4406 17.0271 20.4412 17.0237 20.4412 17.02C20.4386 17.0237 20.4345 17.0271 20.4319 17.0305C20.4319 17.0305 20.3529 16.0019 21.2775 15.3635C22.4029 14.5868 22.8632 13.9733 22.8632 13.9733C22.8632 13.9733 23.3232 14.5868 24.4486 15.3635C25.3732 16.0019 25.2942 17.0305 25.2942 17.0305C25.2916 17.0271 25.2875 17.0237 25.2849 17.02C25.2849 17.0234 25.2854 17.0271 25.2854 17.0305V26.7617C25.9837 26.5404 26.7463 26.3263 27.5193 26.1565V18.4704C27.5193 18.4668 27.5198 18.4636 27.5198 18.46C27.5172 18.4636 27.5131 18.4668 27.5108 18.4704C27.5108 18.4704 27.4315 17.4419 28.3564 16.8035C29.4815 16.0268 29.9416 15.4132 29.9416 15.4132C29.9416 15.4132 30.4018 16.0268 31.5272 16.8035C32.4521 17.4419 32.3728 18.4704 32.3728 18.4704C32.3702 18.4668 32.3661 18.4636 32.3636 18.46C32.3636 18.4634 32.3641 18.4668 32.3641 18.4704V25.9188C32.7425 25.9925 33.0438 26.0849 33.2708 26.1735" fill="#CEB041"/>
<path d="M39.8152 17.184C39.8152 17.184 42.0896 17.5051 42.5971 18.1252C42.5971 18.1252 42.688 16.7135 41.6296 16.0866C40.342 15.3241 39.8152 14.722 39.8152 14.722C39.8152 14.722 39.2884 15.3241 38.0008 16.0866C36.9424 16.7135 37.033 18.1252 37.033 18.1252C37.5233 17.5266 39.8152 17.184 39.8152 17.184" fill="#CEB041"/>
<path d="M37.394 19.6208V27.0399C39.4566 27.5559 40.9213 28.0779 41.7769 28.8789H42.2364V19.6208C42.2364 19.1307 39.8152 18.7335 39.8152 18.7335C39.8152 18.7335 37.394 19.1307 37.394 19.6208" fill="#CEB041"/>
<path d="M6.18452 17.184C6.18452 17.184 8.47638 17.5266 8.96669 18.1252C8.96669 18.1252 9.0573 16.7135 7.99891 16.0866C6.71128 15.3241 6.18452 14.722 6.18452 14.722C6.18452 14.722 5.65802 15.3241 4.37038 16.0866C3.31199 16.7135 3.4026 18.1252 3.4026 18.1252C3.91036 17.5051 6.18452 17.184 6.18452 17.184Z" fill="#CEB041"/>
<path d="M3.76328 19.6208V28.8789H4.22303C5.07838 28.0779 6.54339 27.5559 8.60602 27.0399V19.6208C8.60602 19.1307 6.18452 18.7335 6.18452 18.7335C6.18452 18.7335 3.76328 19.1307 3.76328 19.6208" fill="#CEB041"/>
<path d="M32.5828 36.7834L22.9997 40.8823L13.4192 36.784L0 31.0441C0.297701 33.1577 1.74711 34.9162 3.73914 35.5799L22.9997 42L42.2606 35.5799C44.2526 34.9162 45.7022 33.1577 46 31.0441L32.5828 36.7834Z" fill="#CEB041"/>
<path d="M62 14.226C61.88 14.094 61.706 13.956 61.478 13.812C61.25 13.656 60.98 13.512 60.668 13.38C60.356 13.248 60.02 13.14 59.66 13.056C59.3 12.972 58.928 12.93 58.544 12.93C57.704 12.93 57.08 13.086 56.672 13.398C56.264 13.71 56.06 14.142 56.06 14.694C56.06 15.102 56.174 15.426 56.402 15.666C56.63 15.894 56.978 16.086 57.446 16.242C57.914 16.398 58.502 16.566 59.21 16.746C60.074 16.95 60.824 17.196 61.46 17.484C62.096 17.76 62.582 18.132 62.918 18.6C63.254 19.068 63.422 19.686 63.422 20.454C63.422 21.102 63.302 21.66 63.062 22.128C62.822 22.596 62.486 22.98 62.054 23.28C61.622 23.568 61.124 23.784 60.56 23.928C59.996 24.06 59.39 24.126 58.742 24.126C58.106 24.126 57.47 24.06 56.834 23.928C56.21 23.796 55.61 23.604 55.034 23.352C54.47 23.088 53.948 22.77 53.468 22.398L54.386 20.67C54.542 20.826 54.764 21 55.052 21.192C55.352 21.372 55.694 21.546 56.078 21.714C56.474 21.882 56.9 22.026 57.356 22.146C57.824 22.254 58.298 22.308 58.778 22.308C59.582 22.308 60.194 22.17 60.614 21.894C61.046 21.606 61.262 21.198 61.262 20.67C61.262 20.238 61.124 19.896 60.848 19.644C60.572 19.38 60.17 19.158 59.642 18.978C59.114 18.798 58.484 18.618 57.752 18.438C56.912 18.21 56.21 17.964 55.646 17.7C55.082 17.424 54.656 17.076 54.368 16.656C54.092 16.224 53.954 15.678 53.954 15.018C53.954 14.178 54.158 13.47 54.566 12.894C54.974 12.306 55.526 11.868 56.222 11.58C56.93 11.28 57.722 11.13 58.598 11.13C59.174 11.13 59.72 11.196 60.236 11.328C60.752 11.448 61.232 11.616 61.676 11.832C62.132 12.048 62.546 12.294 62.918 12.57L62 14.226ZM68.8702 11.22H70.7782L75.7462 24H73.6222L72.2722 20.526H67.3402L66.0082 24H63.8662L68.8702 11.22ZM71.8762 19.032L69.8242 13.434L67.7002 19.032H71.8762ZM77.3267 24V11.22H85.8407V13.002H79.3427V16.818H84.7787V18.492H79.3427V24H77.3267ZM87.7505 24V11.22H89.7665V24H87.7505ZM94.6708 14.964V24H92.6548V11.22H94.3108L101.547 20.454V11.238H103.581V24H101.817L94.6708 14.964ZM110.144 11.22H112.052L117.02 24H114.896L113.546 20.526H108.614L107.282 24H105.14L110.144 11.22ZM113.15 19.032L111.098 13.434L108.974 19.032H113.15ZM125.612 11.22H127.52L132.488 24H130.364L129.014 20.526H124.082L122.75 24H120.608L125.612 11.22ZM128.618 19.032L126.566 13.434L124.442 19.032H128.618ZM134.069 24V11.22H136.085V22.218H142.943V24H134.069ZM159.229 24V14.892L155.467 21.804H154.279L150.499 14.892V24H148.483V11.22H150.643L154.873 19.032L159.103 11.22H161.263V24H159.229ZM167.835 11.22H169.743L174.711 24H172.587L171.237 20.526H166.305L164.973 24H162.831L167.835 11.22ZM170.841 19.032L168.789 13.434L166.665 19.032H170.841ZM176.292 24V11.22H180.828C182.208 11.22 183.36 11.508 184.284 12.084C185.208 12.648 185.898 13.416 186.354 14.388C186.822 15.348 187.056 16.416 187.056 17.592C187.056 18.888 186.798 20.016 186.282 20.976C185.778 21.936 185.058 22.68 184.122 23.208C183.186 23.736 182.088 24 180.828 24H176.292ZM185.004 17.592C185.004 16.692 184.836 15.9 184.5 15.216C184.176 14.52 183.702 13.98 183.078 13.596C182.466 13.2 181.716 13.002 180.828 13.002H178.308V22.218H180.828C181.728 22.218 182.484 22.014 183.096 21.606C183.72 21.198 184.194 20.646 184.518 19.95C184.842 19.254 185.004 18.468 185.004 17.592ZM189.176 24V11.22H191.192V24H189.176ZM196.097 14.964V24H194.081V11.22H195.737L202.973 20.454V11.238H205.007V24H203.243L196.097 14.964ZM211.569 11.22H213.477L218.445 24H216.321L214.971 20.526H210.039L208.707 24H206.565L211.569 11.22ZM214.575 19.032L212.523 13.434L210.399 19.032H214.575Z" fill="#CEB041"/>
<path d="M103.212 31.668H100.38V39H99.024V31.668H96.18V30.48H103.212V31.668ZM106.918 33.864C106.406 33.872 105.95 33.988 105.55 34.212C105.158 34.436 104.878 34.752 104.71 35.16V39H103.39V32.724H104.614V34.128C104.83 33.696 105.114 33.352 105.466 33.096C105.818 32.832 106.19 32.688 106.582 32.664C106.662 32.664 106.726 32.664 106.774 32.664C106.83 32.664 106.878 32.668 106.918 32.676V33.864ZM107.41 37.164C107.41 36.764 107.522 36.416 107.746 36.12C107.978 35.816 108.294 35.584 108.694 35.424C109.094 35.256 109.558 35.172 110.086 35.172C110.366 35.172 110.65 35.192 110.938 35.232C111.234 35.272 111.494 35.336 111.718 35.424V35.028C111.718 34.588 111.586 34.244 111.322 33.996C111.058 33.748 110.678 33.624 110.182 33.624C109.83 33.624 109.498 33.688 109.186 33.816C108.874 33.936 108.542 34.108 108.19 34.332L107.746 33.444C108.162 33.164 108.578 32.956 108.994 32.82C109.418 32.684 109.862 32.616 110.326 32.616C111.166 32.616 111.826 32.84 112.306 33.288C112.794 33.728 113.038 34.356 113.038 35.172V37.512C113.038 37.664 113.062 37.772 113.11 37.836C113.166 37.9 113.258 37.936 113.386 37.944V39C113.266 39.024 113.158 39.04 113.062 39.048C112.966 39.056 112.886 39.06 112.822 39.06C112.542 39.06 112.33 38.992 112.186 38.856C112.042 38.72 111.958 38.56 111.934 38.376L111.898 38.016C111.626 38.368 111.278 38.64 110.854 38.832C110.43 39.024 110.002 39.12 109.57 39.12C109.154 39.12 108.782 39.036 108.454 38.868C108.126 38.692 107.87 38.456 107.686 38.16C107.502 37.864 107.41 37.532 107.41 37.164ZM111.406 37.548C111.502 37.444 111.578 37.34 111.634 37.236C111.69 37.132 111.718 37.04 111.718 36.96V36.24C111.494 36.152 111.258 36.088 111.01 36.048C110.762 36 110.518 35.976 110.278 35.976C109.798 35.976 109.406 36.072 109.102 36.264C108.806 36.456 108.658 36.72 108.658 37.056C108.658 37.24 108.706 37.416 108.802 37.584C108.906 37.752 109.05 37.888 109.234 37.992C109.426 38.096 109.662 38.148 109.942 38.148C110.23 38.148 110.506 38.092 110.77 37.98C111.034 37.868 111.246 37.724 111.406 37.548ZM116.181 39L113.793 32.724H115.161L116.949 37.776L118.737 32.724H120.009L117.621 39H116.181ZM123.589 39.12C123.101 39.12 122.657 39.036 122.257 38.868C121.865 38.692 121.525 38.456 121.237 38.16C120.949 37.856 120.725 37.512 120.565 37.128C120.413 36.736 120.337 36.32 120.337 35.88C120.337 35.288 120.473 34.748 120.745 34.26C121.017 33.764 121.397 33.368 121.885 33.072C122.373 32.768 122.945 32.616 123.601 32.616C124.257 32.616 124.821 32.768 125.293 33.072C125.773 33.368 126.145 33.76 126.409 34.248C126.673 34.736 126.805 35.26 126.805 35.82C126.805 35.916 126.801 36.008 126.793 36.096C126.785 36.176 126.777 36.244 126.769 36.3H121.741C121.765 36.668 121.865 36.992 122.041 37.272C122.225 37.544 122.457 37.76 122.737 37.92C123.017 38.072 123.317 38.148 123.637 38.148C123.989 38.148 124.321 38.06 124.633 37.884C124.953 37.708 125.169 37.476 125.281 37.188L126.409 37.512C126.273 37.816 126.065 38.092 125.785 38.34C125.513 38.58 125.189 38.772 124.813 38.916C124.437 39.052 124.029 39.12 123.589 39.12ZM121.705 35.424H125.497C125.473 35.064 125.369 34.748 125.185 34.476C125.009 34.196 124.781 33.98 124.501 33.828C124.229 33.668 123.925 33.588 123.589 33.588C123.261 33.588 122.957 33.668 122.677 33.828C122.405 33.98 122.181 34.196 122.005 34.476C121.829 34.748 121.729 35.064 121.705 35.424ZM127.894 30.24H129.214V37.188C129.214 37.508 129.262 37.712 129.358 37.8C129.454 37.888 129.574 37.932 129.718 37.932C129.878 37.932 130.026 37.916 130.162 37.884C130.306 37.852 130.43 37.812 130.534 37.764L130.726 38.808C130.534 38.888 130.306 38.956 130.042 39.012C129.778 39.068 129.542 39.096 129.334 39.096C128.886 39.096 128.534 38.972 128.278 38.724C128.022 38.468 127.894 38.116 127.894 37.668V30.24ZM139.9 39L135.808 34.668C135.464 34.3 135.192 33.988 134.992 33.732C134.792 33.476 134.648 33.24 134.56 33.024C134.472 32.808 134.428 32.584 134.428 32.352C134.428 31.96 134.524 31.616 134.716 31.32C134.916 31.024 135.188 30.792 135.532 30.624C135.876 30.456 136.26 30.372 136.684 30.372C137.076 30.372 137.436 30.444 137.764 30.588C138.092 30.724 138.356 30.928 138.556 31.2C138.756 31.464 138.856 31.792 138.856 32.184C138.856 32.552 138.76 32.884 138.568 33.18C138.376 33.476 138.12 33.748 137.8 33.996C137.48 34.244 137.124 34.488 136.732 34.728C136.428 34.928 136.152 35.128 135.904 35.328C135.656 35.52 135.46 35.728 135.316 35.952C135.18 36.168 135.112 36.412 135.112 36.684C135.112 36.956 135.188 37.2 135.34 37.416C135.492 37.624 135.696 37.788 135.952 37.908C136.208 38.02 136.488 38.076 136.792 38.076C137.168 38.076 137.524 37.988 137.86 37.812C138.196 37.636 138.496 37.388 138.76 37.068C139.024 36.74 139.228 36.356 139.372 35.916C139.524 35.476 139.6 34.996 139.6 34.476H140.68C140.68 35.18 140.568 35.816 140.344 36.384C140.128 36.952 139.832 37.44 139.456 37.848C139.088 38.256 138.66 38.572 138.172 38.796C137.692 39.012 137.184 39.12 136.648 39.12C136.096 39.12 135.608 39.012 135.184 38.796C134.76 38.572 134.428 38.276 134.188 37.908C133.956 37.54 133.84 37.128 133.84 36.672C133.84 36.224 133.94 35.836 134.14 35.508C134.348 35.172 134.612 34.876 134.932 34.62C135.26 34.356 135.588 34.12 135.916 33.912C136.268 33.688 136.572 33.492 136.828 33.324C137.084 33.148 137.284 32.972 137.428 32.796C137.572 32.612 137.644 32.416 137.644 32.208C137.644 31.952 137.552 31.748 137.368 31.596C137.192 31.436 136.964 31.356 136.684 31.356C136.476 31.356 136.292 31.4 136.132 31.488C135.98 31.576 135.86 31.692 135.772 31.836C135.684 31.98 135.64 32.14 135.64 32.316C135.64 32.436 135.672 32.56 135.736 32.688C135.8 32.808 135.92 32.968 136.096 33.168C136.272 33.36 136.516 33.624 136.828 33.96L141.64 39H139.9ZM151.493 31.668H148.661V39H147.305V31.668H144.461V30.48H151.493V31.668ZM154.022 39.12C153.526 39.12 153.082 39.036 152.69 38.868C152.298 38.692 151.958 38.452 151.67 38.148C151.39 37.844 151.174 37.5 151.022 37.116C150.87 36.724 150.794 36.308 150.794 35.868C150.794 35.428 150.87 35.012 151.022 34.62C151.174 34.228 151.39 33.884 151.67 33.588C151.958 33.284 152.298 33.048 152.69 32.88C153.09 32.704 153.534 32.616 154.022 32.616C154.51 32.616 154.95 32.704 155.342 32.88C155.742 33.048 156.082 33.284 156.362 33.588C156.65 33.884 156.87 34.228 157.022 34.62C157.174 35.012 157.25 35.428 157.25 35.868C157.25 36.308 157.174 36.724 157.022 37.116C156.87 37.5 156.65 37.844 156.362 38.148C156.082 38.452 155.742 38.692 155.342 38.868C154.95 39.036 154.51 39.12 154.022 39.12ZM152.15 35.88C152.15 36.28 152.234 36.64 152.402 36.96C152.57 37.28 152.794 37.532 153.074 37.716C153.354 37.9 153.67 37.992 154.022 37.992C154.366 37.992 154.678 37.9 154.958 37.716C155.246 37.524 155.474 37.268 155.642 36.948C155.81 36.62 155.894 36.26 155.894 35.868C155.894 35.468 155.81 35.108 155.642 34.788C155.474 34.468 155.246 34.216 154.958 34.032C154.678 33.84 154.366 33.744 154.022 33.744C153.67 33.744 153.354 33.84 153.074 34.032C152.794 34.224 152.57 34.48 152.402 34.8C152.234 35.112 152.15 35.472 152.15 35.88ZM158.361 36.564V32.724H159.681V36.3C159.681 36.86 159.781 37.284 159.981 37.572C160.189 37.852 160.489 37.992 160.881 37.992C161.129 37.992 161.369 37.94 161.601 37.836C161.841 37.732 162.057 37.58 162.249 37.38C162.449 37.172 162.609 36.924 162.729 36.636V32.724H164.049V37.512C164.049 37.664 164.077 37.772 164.133 37.836C164.189 37.9 164.281 37.936 164.409 37.944V39C164.273 39.024 164.161 39.04 164.073 39.048C163.985 39.056 163.901 39.06 163.821 39.06C163.581 39.06 163.381 38.996 163.221 38.868C163.061 38.732 162.969 38.56 162.945 38.352L162.921 37.728C162.641 38.184 162.277 38.532 161.829 38.772C161.381 39.004 160.889 39.12 160.353 39.12C159.697 39.12 159.201 38.904 158.865 38.472C158.529 38.04 158.361 37.404 158.361 36.564ZM169.261 33.864C168.749 33.872 168.293 33.988 167.893 34.212C167.501 34.436 167.221 34.752 167.053 35.16V39H165.733V32.724H166.957V34.128C167.173 33.696 167.457 33.352 167.809 33.096C168.161 32.832 168.533 32.688 168.925 32.664C169.005 32.664 169.069 32.664 169.117 32.664C169.173 32.664 169.221 32.668 169.261 32.676V33.864ZM172.454 39.12C171.926 39.12 171.426 39.036 170.954 38.868C170.482 38.692 170.078 38.432 169.742 38.088L170.234 37.2C170.594 37.52 170.954 37.752 171.314 37.896C171.682 38.04 172.046 38.112 172.406 38.112C172.774 38.112 173.074 38.044 173.306 37.908C173.538 37.764 173.654 37.556 173.654 37.284C173.654 37.084 173.594 36.936 173.474 36.84C173.354 36.744 173.178 36.66 172.946 36.588C172.722 36.516 172.45 36.436 172.13 36.348C171.682 36.212 171.306 36.072 171.002 35.928C170.698 35.776 170.47 35.592 170.318 35.376C170.166 35.16 170.09 34.884 170.09 34.548C170.09 34.14 170.194 33.792 170.402 33.504C170.61 33.216 170.898 32.996 171.266 32.844C171.642 32.692 172.074 32.616 172.562 32.616C173.018 32.616 173.438 32.688 173.822 32.832C174.214 32.968 174.558 33.184 174.854 33.48L174.29 34.356C174.01 34.1 173.722 33.912 173.426 33.792C173.138 33.672 172.826 33.612 172.49 33.612C172.298 33.612 172.114 33.636 171.938 33.684C171.762 33.724 171.614 33.804 171.494 33.924C171.382 34.036 171.326 34.196 171.326 34.404C171.326 34.572 171.374 34.708 171.47 34.812C171.566 34.916 171.71 35.004 171.902 35.076C172.094 35.148 172.33 35.228 172.61 35.316C173.098 35.46 173.514 35.604 173.858 35.748C174.202 35.884 174.466 36.064 174.65 36.288C174.842 36.504 174.938 36.804 174.938 37.188C174.938 37.796 174.71 38.272 174.254 38.616C173.806 38.952 173.206 39.12 172.454 39.12Z" fill="#CEB041"/>
</svg>
