<svg width="18" height="12" viewBox="0 0 18 12" fill="none" xmlns="http://www.w3.org/2000/svg">
<path d="M17.078 10.5V1.5C17.078 0.67 16.408 0 15.578 0H1.56801C0.738008 0 0.0680084 0.67 0.0680084 1.5V10.5C0.0680084 11.33 0.738008 12 1.56801 12H15.578C16.408 12 17.078 11.33 17.078 10.5ZM15.768 1.39C16.098 1.72 15.918 2.06 15.738 2.23L11.678 5.95L15.578 10.01C15.698 10.15 15.778 10.37 15.638 10.52C15.508 10.68 15.208 10.67 15.078 10.57L10.708 6.84L8.56801 8.79L6.43801 6.84L2.06801 10.57C1.93801 10.67 1.63801 10.68 1.50801 10.52C1.36801 10.37 1.44801 10.15 1.56801 10.01L5.46801 5.95L1.40801 2.23C1.22801 2.06 1.04801 1.72 1.37801 1.39C1.70801 1.06 2.04801 1.22 2.32801 1.46L8.56801 6.5L14.818 1.46C15.098 1.22 15.438 1.06 15.768 1.39Z" fill="white"/>
</svg>
