<svg width="14" height="18" viewBox="0 0 14 18" fill="none" xmlns="http://www.w3.org/2000/svg">
<path d="M2.87999 1.015L3.85249 0.722502C4.38523 0.561855 4.95822 0.600527 5.46455 0.831302C5.97087 1.06208 6.37594 1.46919 6.60416 1.97667L7.35582 3.64834C7.55204 4.08484 7.60669 4.57182 7.51208 5.04095C7.41748 5.51008 7.17838 5.93783 6.82832 6.26417L5.58332 7.425C5.54693 7.45892 5.52387 7.50473 5.51832 7.55417C5.48166 7.885 5.70582 8.52917 6.22249 9.425C6.59832 10.0758 6.93916 10.5333 7.22832 10.7892C7.42999 10.9683 7.54082 11.0067 7.58832 10.9933L9.26332 10.4808C9.72075 10.3409 10.2105 10.3477 10.6639 10.5001C11.1173 10.6525 11.5117 10.943 11.7917 11.3308L12.8592 12.8108C13.1838 13.2609 13.3341 13.8135 13.2821 14.366C13.2302 14.9185 12.9795 15.4333 12.5767 15.815L11.8383 16.515C11.4465 16.8861 10.9652 17.1494 10.4413 17.2792C9.91749 17.409 9.36896 17.401 8.84916 17.2558C6.55416 16.615 4.49666 14.6783 2.65332 11.4858C0.80749 8.28917 0.15999 5.53584 0.756657 3.225C0.89097 2.70528 1.1569 2.22892 1.5288 1.84183C1.90071 1.45475 2.36606 1.16999 2.87999 1.015ZM3.24082 2.2125C2.93255 2.30538 2.65339 2.47607 2.43022 2.70814C2.20706 2.94021 2.04741 3.22583 1.96666 3.5375C1.46499 5.48084 2.03916 7.92167 3.73582 10.8608C5.42999 13.7958 7.25416 15.5125 9.18582 16.0525C9.4976 16.1393 9.82655 16.144 10.1407 16.066C10.4548 15.988 10.7434 15.8301 10.9783 15.6075L11.7175 14.9075C11.9007 14.734 12.0146 14.4999 12.0382 14.2487C12.0618 13.9975 11.9935 13.7463 11.8458 13.5417L10.7792 12.0625C10.6519 11.886 10.4725 11.7538 10.2663 11.6845C10.06 11.6151 9.83721 11.6121 9.62916 11.6758L7.94999 12.19C6.97499 12.48 6.08999 11.6958 5.13999 10.05C4.49999 8.94167 4.20166 8.08334 4.27582 7.41584C4.31499 7.06917 4.47582 6.74917 4.73082 6.51083L5.97582 5.35C6.13501 5.20168 6.24375 5.00724 6.2868 4.79396C6.32984 4.58069 6.30502 4.35929 6.21582 4.16084L5.46416 2.48917C5.36042 2.25868 5.17642 2.07376 4.94644 1.96889C4.71646 1.86402 4.4562 1.84635 4.21416 1.91917L3.24082 2.2125Z" fill="white"/>
</svg>
