<?xml version="1.0" encoding="UTF-8"?>
<svg width="752pt" height="752pt" version="1.1" viewBox="0 0 752 752" xmlns="http://www.w3.org/2000/svg">
 <g fill="#ffc801">
  <path d="m185.11 408.73 21.273-11.18 21.273 11.18-4.0625-23.684 17.215-16.777-23.789-3.457-10.637-21.551-10.637 21.551-23.781 3.457 17.207 16.777z"/>
  <path d="m291.19 343.27-10.637 21.551-23.785 3.457 17.215 16.777-4.0664 23.684 21.273-11.18 21.273 11.18-4.0625-23.684 17.211-16.777-23.785-3.457z"/>
  <path d="m376 343.27-10.637 21.551-23.781 3.457 17.211 16.777-4.0664 23.684 21.273-11.18 21.273 11.18-4.0625-23.684 17.211-16.777-23.785-3.457z"/>
  <path d="m545.62 343.27-10.637 21.551-23.789 3.457 17.215 16.777-4.0625 23.684 21.273-11.18 21.273 11.18-4.0664-23.684 17.211-16.777-23.781-3.457z"/>
  <path d="m471.45 364.82-10.637-21.551-10.637 21.551-23.781 3.457 17.211 16.777-4.0664 23.684 21.273-11.18 21.273 11.18-4.0625-23.684 17.215-16.777z"/>
 </g>
</svg>
