<svg width="201" height="4" viewBox="0 0 201 4" fill="none" xmlns="http://www.w3.org/2000/svg">
<path fill-rule="evenodd" clip-rule="evenodd" d="M0.5 2C0.5 1.17157 1.17157 0.5 2 0.5H182.5C183.328 0.5 184 1.17157 184 2C184 2.82843 183.328 3.5 182.5 3.5H2C1.17157 3.5 0.5 2.82843 0.5 2Z" fill="#CEB041"/>
<path fill-rule="evenodd" clip-rule="evenodd" d="M186.5 2C186.5 1.17157 187.172 0.5 188 0.5H193C193.828 0.5 194.5 1.17157 194.5 2C194.5 2.82843 193.828 3.5 193 3.5H188C187.172 3.5 186.5 2.82843 186.5 2Z" fill="#CEB041"/>
<path fill-rule="evenodd" clip-rule="evenodd" d="M196.5 2C196.5 1.17157 197.172 0.5 198 0.5H199C199.828 0.5 200.5 1.17157 200.5 2C200.5 2.82843 199.828 3.5 199 3.5H198C197.172 3.5 196.5 2.82843 196.5 2Z" fill="#CEB041"/>
</svg>
