<svg width="85" height="66" viewBox="0 0 85 66" fill="none" xmlns="http://www.w3.org/2000/svg">
<path d="M82.5255 23.5351L69.9033 11.9563C69.2342 11.3497 68.385 11.0127 67.4972 11.0127C66.6094 11.0127 65.7602 11.3497 65.0911 11.9563L60.6135 16.0675C60.3561 15.07 60.2146 14.0186 60.2146 12.9268C60.2146 10.2848 61.0123 7.80461 62.4534 5.95792C63.8173 4.20559 65.6186 3.23507 67.4972 3.23507C71.5116 3.23507 74.7798 7.57546 74.7798 12.9268C74.7798 13.8164 75.4746 14.5443 76.3238 14.5443C77.173 14.5443 77.8678 13.8164 77.8678 12.9268C77.8678 5.79617 73.21 0 67.4972 0C64.6665 0 62.0288 1.38838 60.0602 3.90904C58.1688 6.33535 57.1266 9.52998 57.1266 12.9268C57.1266 14.8409 57.4611 16.6876 58.0916 18.386L52.4817 23.5351C51.0792 24.8292 50.2686 26.6893 50.2686 28.6439V57.6786C50.2686 62.1538 53.7426 65.7933 58.0144 65.7933H76.9928C81.2646 65.7933 84.7386 62.1538 84.7386 57.6786V28.6439C84.7386 26.6893 83.928 24.8292 82.5255 23.5351ZM81.6506 57.6786C81.6506 60.3745 79.5662 62.5582 76.9928 62.5582H58.0015C55.4282 62.5582 53.3437 60.3745 53.3437 57.6786V28.6439C53.3437 27.6194 53.7683 26.6354 54.5017 25.9614L59.5841 21.2975C59.7385 21.5132 59.8929 21.7289 60.0473 21.9446C62.0159 24.4652 64.6536 25.8536 67.4843 25.8536C68.3335 25.8536 69.0283 25.1257 69.0283 24.2361C69.0283 23.3464 68.3335 22.6185 67.4843 22.6185C65.5929 22.6185 63.8044 21.648 62.4405 19.8957C62.2604 19.6531 62.0803 19.4104 61.913 19.1543L67.1112 14.3826C67.2398 14.2613 67.3814 14.2343 67.4843 14.2343C67.5872 14.2343 67.7288 14.2613 67.8574 14.3826L80.4797 25.9614C81.2131 26.6354 81.6377 27.6194 81.6377 28.6439V57.6786H81.6506Z" fill="black"/>
<path d="M69.1956 40.9097H65.7987C64.6021 40.9097 63.6242 39.8852 63.6242 38.6316C63.6242 37.378 64.6021 36.3536 65.7987 36.3536H71.7818C72.631 36.3536 73.3258 35.6257 73.3258 34.7361C73.3258 33.8464 72.631 33.1185 71.7818 33.1185H69.0412V31.0157C69.0412 30.1261 68.3463 29.3982 67.4971 29.3982C66.6479 29.3982 65.9531 30.1261 65.9531 31.0157V33.1185H65.7987C62.8908 33.1185 60.5362 35.5987 60.5362 38.6316C60.5362 41.678 62.9037 44.1447 65.7987 44.1447H69.1956C70.3922 44.1447 71.37 45.1692 71.37 46.4227C71.37 47.6763 70.3922 48.7008 69.1956 48.7008H63.0967C62.2475 48.7008 61.5527 49.4287 61.5527 50.3183C61.5527 51.208 62.2475 51.9358 63.0967 51.9358H65.9531V54.0791C65.9531 54.9687 66.6479 55.6966 67.4971 55.6966C68.3463 55.6966 69.0412 54.9687 69.0412 54.0791V51.9358H69.2213C69.2342 51.9358 69.247 51.9358 69.2599 51.9358C72.1292 51.8954 74.4581 49.4421 74.4581 46.4227C74.4581 43.3764 72.0906 40.9097 69.1956 40.9097Z" fill="black"/>
<g clip-path="url(#clip0_58_532)">
<path d="M17.4979 39.3785C17.5841 39.1507 17.6825 38.9002 17.7933 38.6383C18.2609 37.5678 19.0362 36.2582 20.2422 35.0852C25.9029 31.0653 31.8344 15.9536 31.8344 15.9536C31.8344 15.9536 30.9114 10.4761 33.6802 10.4761C36.4491 10.4761 43.0327 12.1843 39.0825 23.2646C35.1323 34.3564 39.0825 32.6482 39.0825 32.6482C39.9932 32.4547 40.83 32.2952 41.6299 32.17C41.6299 32.17 53.0375 29.8013 57.2461 33.3657C60.6179 36.2126 57.9967 39.9706 57.9967 39.9706C57.9967 39.9706 62.7345 43.8767 57.9106 48.5457C57.9106 48.5457 60.9994 53.2717 55.5725 57.041C55.5725 57.041 58.0952 63.5435 48.0166 65.525C45.0509 66.1058 41.3222 66.083 37.8027 65.8325C29.004 66.0033 20.2545 64.9442 20.2545 64.9442L14.5938 42.1571C16.3043 41.2005 17.1165 40.0959 17.4979 39.3785ZM1.09415 42.476L1.08185 65.2517H14.4584C15.6521 65.2517 16.4273 64.3748 16.1812 63.293L11.8988 44.4347C11.6526 43.3528 10.4836 42.476 9.2899 42.476H1.09415Z" fill="black"/>
</g>
<defs>
<clipPath id="clip0_58_532">
<rect width="60" height="55.5238" fill="white" transform="translate(0.579529 10.4761)"/>
</clipPath>
</defs>
</svg>
